<svg width="0" height="0" style="position:absolute"><symbol fill="none" viewBox="0 0 39 15" id="acrl-r" xmlns="http://www.w3.org/2000/svg"><g clip-path="url(#aaa)" fill="#333"><path d="M15.002 2.56a4.93 4.93 0 0 0-1.49-.367c-2.444-.18-4.522 1.51-4.843 3.997-.233 1.806.368 3.286 1.858 4.33 1.411.99 2.927 1.067 4.506.486.077-.028.106-.068.106-.15-.002-.847 0-1.692 0-2.552-1.29 1.344-3.009.948-3.71.069-.76-.957-.65-2.596.25-3.43.89-.824 2.52-.784 3.459.36V2.714c.001-.106-.064-.127-.136-.156ZM21.096 9.221c-.76.006-1.521-.003-2.28.007-.17.002-.202-.053-.201-.213.007-1.066.003-2.132.003-3.198 0-1.072-.003-2.146.004-3.218 0-.16-.045-.199-.196-.197-.61.01-1.22.007-1.829 0-.131 0-.194.019-.193.179.005 2.798.005 5.595 0 8.393 0 .122.025.172.157.172a825.76 825.76 0 0 1 4.562 0c.128 0 .165-.042.162-.168a56.455 56.455 0 0 1 0-1.578c.003-.16-.057-.18-.19-.179ZM39.001 4.535a5.523 5.523 0 0 0-.365-1.988A3.947 3.947 0 0 0 37.218.7a3.805 3.805 0 0 0-2.19-.699c-2.89-.002-5.781-.005-8.671.003a3.98 3.98 0 0 0-2.63.98c-1.11.947-1.59 2.214-1.598 3.66-.02 3.387-.007 6.774-.006 10.16 0 .06-.022.126.034.197a2.531 2.531 0 0 1 1.197-1.304c.52-.271 1.08-.341 1.654-.341 2.897.002 5.794.002 8.691 0 .653 0 1.297-.062 1.932-.23 2.033-.541 3.364-2.298 3.365-4.447.002-1.382-.004-2.763.005-4.145Zm-10.246 6.577c-.118 0-.167-.066-.224-.148-.586-.837-1.172-1.674-1.76-2.51l-.073-.103c-.06.055-.032.121-.032.177-.003.8-.005 1.6 0 2.399 0 .15-.045.188-.186.186a70.941 70.941 0 0 0-1.726 0c-.138 0-.188-.03-.188-.184.005-2.783.005-5.565 0-8.349 0-.136.02-.197.176-.195 1.122.015 2.245-.012 3.37.023 1.055.032 1.89.451 2.434 1.404.654 1.149.47 2.792-.406 3.666-.36.36-.797.561-1.323.666l2.31 2.964c-.825 0-1.599 0-2.372.004Zm8.44-4.081a8354.081 8354.081 0 0 1-4.487 3.68c-.022.018-.041.036-.064.053a.274.274 0 0 1-.29.036c-.112-.047-.083-.15-.083-.237-.007-1.283-.01-2.567-.019-3.85-.008-1.282-.02-2.566-.034-3.847 0-.15.027-.252.197-.247.082.006.16.04.22.098l4.561 3.754c.244.2.24.36-.001.558v.002ZM5.761 2.573c-.045-.126-.103-.171-.235-.168-.685.006-1.37.008-2.055 0-.152 0-.213.055-.263.191-.247.675-.5 1.346-.753 2.02L0 11.144c.733 0 1.451-.004 2.169.005.144 0 .201-.053.246-.182.144-.394.306-.78.45-1.174.045-.126.104-.168.235-.168.911.005 1.822.005 2.733 0 .136 0 .19.052.232.175.136.395.287.785.425 1.18.04.126.106.168.238.168a83.153 83.153 0 0 1 1.972 0c.178.003.203-.032.14-.205-1.03-2.789-2.057-5.579-3.079-8.37Zm-.59 5.334c-.485 0-.97-.002-1.455 0-.123 0-.183-.018-.135-.163.292-.877.581-1.754.869-2.632l.055-.006.196.605.644 1.961c.076.235.075.235-.174.235Z"/><path d="M27.93 4.414c-.385-.08-.775-.027-1.163-.042-.124-.005-.102.082-.102.155v2.098c0 .085-.003.15.113.147.37-.013.74.022 1.104-.042.612-.107.951-.517.96-1.164.008-.638-.3-1.026-.911-1.152Z"/></g><defs><clipPath id="aaa"><path fill="#fff" d="M0 0h39v15H0z"/></clipPath></defs></symbol><symbol viewBox="0 0 32 32" id="archive" xmlns="http://www.w3.org/2000/svg"><path d="M2 2h28c1.106 0 2 .894 2 2v2c0 1.106-.894 2-2 2H2C.894 8 0 7.106 0 6V4c0-1.106.894-2 2-2Zm0 8h28v16c0 2.206-1.794 4-4 4H6c-2.206 0-4-1.794-4-4V10Zm8 5c0 .55.45 1 1 1h10c.55 0 1-.45 1-1s-.45-1-1-1H11c-.55 0-1 .45-1 1Z"/></symbol><symbol viewBox="0 0 28 32" id="arrow-left" xmlns="http://www.w3.org/2000/svg"><g clip-path="url(#aca)"><path d="m16.094 27.819-1.388 1.387a1.494 1.494 0 0 1-2.119 0L.437 17.063a1.494 1.494 0 0 1 0-2.12l12.15-12.15a1.494 1.494 0 0 1 2.12 0l1.387 1.388a1.502 1.502 0 0 1-.025 2.144L8.537 13.5H26.5c.831 0 1.5.669 1.5 1.5v2c0 .831-.669 1.5-1.5 1.5H8.537l7.532 7.175a1.49 1.49 0 0 1 .025 2.144Z"/></g><defs><clipPath id="aca"><path fill="#fff" d="M0 0h28v32H0z"/></clipPath></defs></symbol><symbol viewBox="0 0 32 28" id="bars" xmlns="http://www.w3.org/2000/svg"><path fill-rule="evenodd" clip-rule="evenodd" d="M1.143 5.143h29.714C31.488 5.143 32 4.63 32 4V1.143C32 .512 31.488 0 30.857 0H1.143C.512 0 0 .512 0 1.143V4c0 .631.512 1.143 1.143 1.143Zm0 11.428h29.714c.631 0 1.143-.511 1.143-1.143v-2.857c0-.63-.512-1.143-1.143-1.143H1.143C.512 11.428 0 11.94 0 12.572v2.857c0 .632.512 1.143 1.143 1.143ZM30.857 28H1.143A1.143 1.143 0 0 1 0 26.857V24c0-.631.512-1.143 1.143-1.143h29.714c.631 0 1.143.512 1.143 1.143v2.857c0 .631-.512 1.143-1.143 1.143Z"/></symbol><symbol viewBox="0 0 26 32" id="bell" xmlns="http://www.w3.org/2000/svg"><path d="M14.856 2v1.2c4.237.927 7.429 4.962 7.429 9.8v1.175c0 2.944 1.003 5.775 2.814 7.975l.43.519c.487.593.609 1.431.307 2.15-.302.719-.963 1.181-1.694 1.181H1.857c-.731 0-1.394-.462-1.694-1.181-.3-.719-.18-1.556.306-2.15l.43-.519c1.813-2.2 2.815-5.031 2.815-7.975V13c0-4.838 3.14-8.873 7.428-9.8V2c0-1.104.83-2 1.857-2 1.027 0 1.857.896 1.857 2ZM13 32a3.585 3.585 0 0 1-2.629-1.169c-.696-.75-1.085-1.825-1.085-2.831h7.428c0 1.006-.389 2.081-1.085 2.831S13.934 32 13 32Z"/></symbol><symbol viewBox="0 0 34 32" id="box" xmlns="http://www.w3.org/2000/svg"><path d="M29.75 0C32.094 0 34 2.046 34 4.571V27.43C34 29.95 32.094 32 29.75 32H4.25C1.903 32 0 29.95 0 27.429V4.57C0 2.046 1.903 0 4.25 0h25.5ZM6.375 4.571c-1.173 0-2.125 1.022-2.125 2.286s.952 2.286 2.125 2.286h21.25c1.175 0 2.125-1.022 2.125-2.286s-.95-2.286-2.125-2.286H6.375Z"/></symbol><symbol viewBox="0 0 8 8" id="bullet" xmlns="http://www.w3.org/2000/svg"><path d="M4.547 3.898a.27.27 0 0 0-.078-.18L.829.079A.27.27 0 0 0 .648 0a.27.27 0 0 0-.18.078l-.39.39A.27.27 0 0 0 0 .649a.27.27 0 0 0 .078.18l3.07 3.07-3.07 3.07a.27.27 0 0 0-.078.18.27.27 0 0 0 .078.18l.39.39a.27.27 0 0 0 .18.079.27.27 0 0 0 .18-.078l3.64-3.64a.27.27 0 0 0 .079-.18Zm3 0a.27.27 0 0 1-.078.18l-3.64 3.64a.27.27 0 0 1-.18.079.27.27 0 0 1-.18-.078l-.39-.39A.27.27 0 0 1 3 7.148a.27.27 0 0 1 .078-.18l3.07-3.07-3.07-3.07A.27.27 0 0 1 3 .648a.27.27 0 0 1 .078-.18l.39-.39A.27.27 0 0 1 3.649 0a.27.27 0 0 1 .18.078l3.64 3.64a.27.27 0 0 1 .079.18Z"/></symbol><symbol viewBox="0 0 28 32" id="calendar-days" xmlns="http://www.w3.org/2000/svg"><path d="M10 2v2h8V2a1.999 1.999 0 1 1 4 0v2h3a3 3 0 0 1 3 3v3H0V7a3 3 0 0 1 3-3h3V2a1.999 1.999 0 1 1 4 0ZM0 12h28v17a3 3 0 0 1-3 3H3a3 3 0 0 1-3-3V12Zm4 7c0 .55.447 1 1 1h2c.55 0 1-.45 1-1v-2c0-.55-.45-1-1-1H5c-.553 0-1 .45-1 1v2Zm8 0c0 .55.45 1 1 1h2c.55 0 1-.45 1-1v-2c0-.55-.45-1-1-1h-2c-.55 0-1 .45-1 1v2Zm9-3c-.55 0-1 .45-1 1v2c0 .55.45 1 1 1h2c.55 0 1-.45 1-1v-2c0-.55-.45-1-1-1h-2ZM4 27c0 .55.447 1 1 1h2c.55 0 1-.45 1-1v-2c0-.55-.45-1-1-1H5c-.553 0-1 .45-1 1v2Zm9-3c-.55 0-1 .45-1 1v2c0 .55.45 1 1 1h2c.55 0 1-.45 1-1v-2c0-.55-.45-1-1-1h-2Zm7 3c0 .55.45 1 1 1h2c.55 0 1-.45 1-1v-2c0-.55-.45-1-1-1h-2c-.55 0-1 .45-1 1v2Z"/></symbol><symbol viewBox="0 0 38 32" id="camera" xmlns="http://www.w3.org/2000/svg"><path d="M4.667 2.286V1.143C4.667.51 5.189 0 5.833 0H10.5c.642 0 1.167.511 1.167 1.143v1.143H14L17.682.483A4.744 4.744 0 0 1 19.768 0h12.899c2.574 0 4.666 2.046 4.666 4.571V27.43c0 2.521-2.092 4.571-4.666 4.571h-28C2.089 32 0 29.95 0 27.429V6.857c0-2.525 2.09-4.571 4.667-4.571ZM16.085 6.37A4.698 4.698 0 0 1 14 6.857H4.667v4.572h8.37a10.047 10.047 0 0 1 5.63-1.715c2.092 0 4.025.636 5.629 1.715h8.37V4.57H19.769l-3.683 1.8Zm2.582 6.772c-3.544 0-6.417 2.814-6.417 6.286 0 3.471 2.873 6.285 6.417 6.285 3.543 0 6.416-2.814 6.416-6.285 0-3.472-2.873-6.286-6.416-6.286Z"/></symbol><symbol viewBox="0 0 43 33" id="check" xmlns="http://www.w3.org/2000/svg"><g clip-path="url(#aja)"><path d="M14.575 31.44.628 17.494a2.146 2.146 0 0 1 0-3.035l3.035-3.034a2.145 2.145 0 0 1 3.034 0l9.395 9.395L36.215.697a2.146 2.146 0 0 1 3.034 0l3.035 3.034a2.146 2.146 0 0 1 0 3.035L17.609 31.44a2.146 2.146 0 0 1-3.034 0Z"/></g><defs><clipPath id="aja"><path fill="#fff" d="M0 0h43v33H0z"/></clipPath></defs></symbol><symbol viewBox="0 0 33 20" id="chevron-bottom" xmlns="http://www.w3.org/2000/svg"><path d="M15.11 18.905.87 4.663a1.759 1.759 0 0 1 0-2.487L2.53.516A1.759 1.759 0 0 1 5.014.511L16.354 11.8 27.694.512a1.759 1.759 0 0 1 2.484.003l1.66 1.661c.688.687.688 1.8 0 2.487l-14.24 14.242c-.687.686-1.8.686-2.488 0Z"/></symbol><symbol viewBox="0 0 20 32" id="chevron-left" xmlns="http://www.w3.org/2000/svg"><path d="M.515 14.756 14.757.516a1.759 1.759 0 0 1 2.487 0l1.66 1.66c.686.686.688 1.797.004 2.484L7.62 16l11.287 11.34a1.759 1.759 0 0 1-.003 2.484l-1.661 1.66c-.687.688-1.8.688-2.487 0L.514 17.245a1.759 1.759 0 0 1 0-2.488Z"/></symbol><symbol viewBox="0 0 21 32" id="chevron-right" xmlns="http://www.w3.org/2000/svg"><path d="M19.623 17.244 5.382 31.484c-.687.688-1.8.688-2.487 0l-1.661-1.66a1.759 1.759 0 0 1-.003-2.484L12.517 16 1.231 4.66a1.759 1.759 0 0 1 .003-2.484l1.66-1.66a1.759 1.759 0 0 1 2.488 0l14.241 14.24c.687.687.687 1.8 0 2.488Z"/></symbol><symbol viewBox="0 0 33 20" id="chevron-top" xmlns="http://www.w3.org/2000/svg"><path d="m17.332 1.095 14.241 14.242c.687.687.687 1.8 0 2.487l-1.66 1.661a1.759 1.759 0 0 1-2.485.003L16.088 8.2 4.748 19.488a1.759 1.759 0 0 1-2.483-.003L.604 17.824a1.759 1.759 0 0 1 0-2.487l14.24-14.242a1.759 1.759 0 0 1 2.488 0Z"/></symbol><symbol viewBox="0 0 33 32" id="circle-add" xmlns="http://www.w3.org/2000/svg"><path d="M26.961 5.04c-6.055-6.056-15.867-6.056-21.923 0-6.055 6.054-6.055 15.867 0 21.922 6.056 6.055 15.868 6.055 21.923 0 6.056-6.055 6.056-15.867 0-21.923ZM7.16 24.84c-4.884-4.884-4.884-12.795 0-17.68 4.884-4.883 12.796-4.883 17.68 0 4.884 4.885 4.884 12.796 0 17.68-4.884 4.885-12.796 4.885-17.68 0Zm16.089-7.09H17.75v5.5A.75.75 0 0 1 17 24H15a.75.75 0 0 1-.751-.75v-5.5H8.75A.75.75 0 0 1 8 17v-1.998a.75.75 0 0 1 .751-.752h5.499V8.752A.75.75 0 0 1 15 8h1.998a.75.75 0 0 1 .751.752v5.498h5.499a.75.75 0 0 1 .751.752V17a.75.75 0 0 1-.751.75Z"/></symbol><symbol viewBox="0 0 32 32" id="circle-check" xmlns="http://www.w3.org/2000/svg"><path fill-rule="evenodd" clip-rule="evenodd" d="M16 32c8.837 0 16-7.163 16-16S24.837 0 16 0 0 7.163 0 16s7.163 16 16 16Zm10.02-19.4L14.15 24.473a1.032 1.032 0 0 1-1.46 0l-6.71-6.71a1.032 1.032 0 0 1 0-1.46l1.46-1.46a1.032 1.032 0 0 1 1.46 0l4.52 4.52 9.68-9.68a1.032 1.032 0 0 1 1.46 0l1.46 1.46a1.032 1.032 0 0 1 0 1.459Z"/></symbol><symbol viewBox="0 0 32 32" id="circle-close" xmlns="http://www.w3.org/2000/svg"><g clip-path="url(#aqa)"><path d="M16 .5C7.437.5.5 7.438.5 16c0 8.563 6.938 15.5 15.5 15.5 8.563 0 15.5-6.938 15.5-15.5C31.5 7.437 24.562.5 16 .5Zm0 28C9.094 28.5 3.5 22.906 3.5 16S9.094 3.5 16 3.5 28.5 9.094 28.5 16 22.906 28.5 16 28.5Zm6.363-16.387L18.474 16l3.887 3.887a.75.75 0 0 1 0 1.063l-1.412 1.413a.75.75 0 0 1-1.063 0L16 18.474l-3.887 3.887a.75.75 0 0 1-1.063 0L9.637 20.95a.75.75 0 0 1 0-1.063L13.525 16l-3.888-3.887a.75.75 0 0 1 0-1.063l1.413-1.413a.75.75 0 0 1 1.063 0L16 13.525l3.887-3.888a.75.75 0 0 1 1.063 0l1.413 1.413a.75.75 0 0 1 0 1.063Z"/></g><defs><clipPath id="aqa"><path fill="#fff" d="M0 0h32v32H0z"/></clipPath></defs></symbol><symbol viewBox="0 0 32 32" id="circle-constrict" xmlns="http://www.w3.org/2000/svg"><g clip-path="url(#ara)" fill-rule="evenodd" clip-rule="evenodd"><path d="M16 3.404C9.04 3.404 3.404 9.04 3.404 16S9.04 28.596 16 28.596 28.596 22.959 28.596 16c0-6.96-5.637-12.596-12.596-12.596ZM0 16C0 7.16 7.16 0 16 0s16 7.16 16 16-7.16 16-16 16S0 24.84 0 16Z"/><path d="M7.54 19.65a1.634 1.634 0 0 1 0-2.31l8.416-8.417 8.416 8.416a1.634 1.634 0 0 1-2.31 2.311l-6.106-6.105-6.105 6.105a1.634 1.634 0 0 1-2.31 0Z"/></g><defs><clipPath id="ara"><path fill="#fff" transform="rotate(180 16 16)" d="M0 0h32v32H0z"/></clipPath></defs></symbol><symbol viewBox="0 0 32 32" id="circle-error" xmlns="http://www.w3.org/2000/svg"><path fill-rule="evenodd" clip-rule="evenodd" d="M0 16C0 7.161 7.161 0 16 0s16 7.161 16 16-7.161 16-16 16S0 24.839 0 16Zm23.845 5.297a.775.775 0 0 0 0-1.097L19.613 16l4.239-4.194a.775.775 0 0 0 0-1.096l-2.555-2.555a.775.775 0 0 0-1.097 0L16 12.387l-4.194-4.239a.775.775 0 0 0-1.096 0l-2.555 2.555a.775.775 0 0 0 0 1.097l4.232 4.2-4.232 4.194a.775.775 0 0 0 0 1.096l2.548 2.555a.775.775 0 0 0 1.097 0l4.2-4.232 4.194 4.232a.775.775 0 0 0 1.096 0l2.555-2.548Z"/></symbol><symbol viewBox="0 0 32 32" id="circle-expand" xmlns="http://www.w3.org/2000/svg"><g clip-path="url(#ata)" fill-rule="evenodd" clip-rule="evenodd"><path d="M16 28.596c6.96 0 12.596-5.637 12.596-12.596 0-6.96-5.637-12.596-12.596-12.596C9.04 3.404 3.404 9.04 3.404 16S9.04 28.596 16 28.596ZM32 16c0 8.84-7.16 16-16 16S0 24.84 0 16 7.16 0 16 0s16 7.16 16 16Z"/><path d="M24.46 12.35a1.634 1.634 0 0 1 0 2.31l-8.416 8.417-8.416-8.416a1.634 1.634 0 0 1 2.31-2.311l6.106 6.105 6.105-6.105a1.634 1.634 0 0 1 2.31 0Z"/></g><defs><clipPath id="ata"><path fill="#fff" d="M0 0h32v32H0z"/></clipPath></defs></symbol><symbol viewBox="0 0 24 24" id="circle-info" xmlns="http://www.w3.org/2000/svg"><g clip-path="url(#aua)"><path d="M12 2C6.48 2 2 6.48 2 12s4.48 10 10 10 10-4.48 10-10S17.52 2 12 2Zm1 15h-2v-6h2v6Zm0-8h-2V7h2v2Z"/></g><defs><clipPath id="aua"><path fill="#fff" d="M0 0h24v24H0z"/></clipPath></defs></symbol><symbol viewBox="0 0 32 32" id="clock" xmlns="http://www.w3.org/2000/svg"><path d="M14.5 7.5c0-.831.669-1.5 1.5-1.5s1.5.669 1.5 1.5v7.7l5.331 3.55c.688.462.875 1.394.363 2.081-.406.688-1.338.875-2.025.363l-6-4c-.419-.225-.669-.694-.669-1.25V7.5ZM16 0c8.837 0 16 7.162 16 16 0 8.837-7.163 16-16 16-8.838 0-16-7.163-16-16C0 7.162 7.162 0 16 0ZM3 16c0 7.181 5.819 13 13 13s13-5.819 13-13S23.181 3 16 3 3 8.819 3 16Z"/></symbol><symbol viewBox="0 0 32 32" id="clone" xmlns="http://www.w3.org/2000/svg"><g clip-path="url(#awa)"><path d="M0 28c0 2.206 1.794 4 4 4h14c2.206 0 4-1.794 4-4v-4h-8c-3.313 0-6-2.688-6-6v-8H4c-2.206 0-4 1.794-4 4v14Zm14-6h14c2.206 0 4-1.794 4-4V4c0-2.206-1.794-4-4-4H14c-2.206 0-4 1.794-4 4v14c0 2.206 1.794 4 4 4Z"/></g><defs><clipPath id="awa"><path fill="#fff" d="M0 0h32v32H0z"/></clipPath></defs></symbol><symbol viewBox="0 0 21 32" id="close" xmlns="http://www.w3.org/2000/svg"><g clip-path="url(#axa)"><path d="m14.48 16 5.97-6.254a2.033 2.033 0 0 0 0-2.78l-1.326-1.39a1.817 1.817 0 0 0-2.654 0L10.5 11.83 4.53 5.576a1.817 1.817 0 0 0-2.654 0L.55 6.966a2.033 2.033 0 0 0 0 2.78L6.52 16 .55 22.254a2.033 2.033 0 0 0 0 2.78l1.327 1.39a1.817 1.817 0 0 0 2.654 0l5.97-6.254 5.97 6.254a1.817 1.817 0 0 0 2.654 0l1.327-1.39a2.033 2.033 0 0 0 0-2.78L14.48 16Z"/></g><defs><clipPath id="axa"><path fill="#fff" d="M0 0h21v32H0z"/></clipPath></defs></symbol><symbol viewBox="0 0 32 32" id="closed-captioning" xmlns="http://www.w3.org/2000/svg"><path d="M29 4H3a3 3 0 0 0-3 3v18a3 3 0 0 0 3 3h26a3 3 0 0 0 3-3V7a3 3 0 0 0-3-3Zm-.375 21H3.375A.376.376 0 0 1 3 24.625V7.375C3 7.169 3.169 7 3.375 7h25.25c.206 0 .375.169.375.375v17.25a.376.376 0 0 1-.375.375Zm-13.194-5.356c.107.15.094.35-.031.481-3.35 3.55-10.8 2.006-10.8-4.244 0-6.081 7.606-7.469 10.781-4.381.131.125.156.2.063.356l-1.094 1.906a.39.39 0 0 1-.569.107c-2.55-2-5.912-.931-5.912 1.95 0 3 3.187 4.406 5.762 2.037a.386.386 0 0 1 .575.056l1.225 1.732Zm11.9 0c.107.15.094.35-.031.481-3.35 3.556-10.8 2.006-10.8-4.244 0-6.081 7.606-7.469 10.781-4.381.132.125.157.2.063.356l-1.094 1.906a.39.39 0 0 1-.569.107c-2.55-2-5.912-.931-5.912 1.95 0 3 3.187 4.406 5.762 2.037a.386.386 0 0 1 .575.056l1.225 1.732Z"/></symbol><symbol viewBox="0 0 32 32" id="compress" xmlns="http://www.w3.org/2000/svg"><path d="M12.497 17.997h-7c-1.338 0-2.006 1.612-1.063 2.562l2.057 1.938-6.2 6.206a1.003 1.003 0 0 0 0 1.413l1.587 1.587a1.003 1.003 0 0 0 1.413 0l6.206-6.206 1.944 2.062c.943.944 2.556.275 2.556-1.062v-7c0-.831-.669-1.5-1.5-1.5Zm7-4h7c1.337 0 2.006-1.619 1.062-2.563l-2.062-1.937 6.206-6.206a1.003 1.003 0 0 0 0-1.413L30.116.291a1.003 1.003 0 0 0-1.413 0l-6.206 6.206-1.944-2.063c-.944-.943-2.556-.275-2.556 1.063v7c0 .831.669 1.5 1.5 1.5Zm6 8.5 2.062-1.944c.944-.944.275-2.556-1.062-2.556h-7c-.831 0-1.5.669-1.5 1.5v7c0 1.337 1.619 2.006 2.562 1.062l1.938-2.056 6.206 6.206a1.003 1.003 0 0 0 1.413 0l1.587-1.587a1.003 1.003 0 0 0 0-1.413l-6.206-6.212ZM11.434 4.44 9.497 6.497 3.29.29a1.003 1.003 0 0 0-1.413 0L.291 1.878a1.003 1.003 0 0 0 0 1.413l6.206 6.206-2.063 1.944c-.943.943-.275 2.556 1.063 2.556h7c.831 0 1.5-.669 1.5-1.5v-7c0-1.331-1.619-2-2.563-1.056Z"/></symbol><symbol viewBox="0 0 32 32" id="config" xmlns="http://www.w3.org/2000/svg"><path d="M30.462 19.731 27.8 18.194c.269-1.45.269-2.938 0-4.388l2.662-1.537a.755.755 0 0 0 .344-.875 15.566 15.566 0 0 0-3.419-5.913.752.752 0 0 0-.925-.143L23.8 6.875A11.794 11.794 0 0 0 20 4.681V1.613a.749.749 0 0 0-.587-.732 15.712 15.712 0 0 0-6.825 0 .749.749 0 0 0-.588.732v3.075A12.167 12.167 0 0 0 8.2 6.88L5.544 5.344a.743.743 0 0 0-.925.144A15.473 15.473 0 0 0 1.2 11.4c-.106.338.038.7.344.875l2.662 1.537a12.039 12.039 0 0 0 0 4.388l-2.662 1.538a.755.755 0 0 0-.344.875 15.566 15.566 0 0 0 3.419 5.912.752.752 0 0 0 .925.144l2.662-1.538a11.795 11.795 0 0 0 3.8 2.194V30.4c0 .35.244.656.588.731 2.293.513 4.644.488 6.825 0a.749.749 0 0 0 .587-.731v-3.075a12.167 12.167 0 0 0 3.8-2.194l2.663 1.538a.743.743 0 0 0 .925-.144 15.472 15.472 0 0 0 3.419-5.912.772.772 0 0 0-.35-.882ZM16 21c-2.756 0-5-2.244-5-5s2.244-5 5-5 5 2.244 5 5-2.244 5-5 5Z"/></symbol><symbol viewBox="0 0 32 32" id="contrast" xmlns="http://www.w3.org/2000/svg"><g clip-path="url(#bba)"><path d="M.5 16c0 8.56 6.94 15.5 15.5 15.5 8.56 0 15.5-6.94 15.5-15.5C31.5 7.44 24.56.5 16 .5 7.44.5.5 7.44.5 16ZM16 27.5v-23c6.357 0 11.5 5.144 11.5 11.5 0 6.357-5.144 11.5-11.5 11.5Z"/></g><defs><clipPath id="bba"><path fill="#fff" d="M0 0h32v32H0z"/></clipPath></defs></symbol><symbol viewBox="0 0 32 32" id="dropanddown" xmlns="http://www.w3.org/2000/svg"><g clip-path="url(#bca)" fill-rule="evenodd" clip-rule="evenodd"><path d="M15.432.72a.803.803 0 0 1 1.135 0l5.108 5.107a.802.802 0 1 1-1.135 1.135l-3.738-3.737v11.972h11.973l-3.737-3.737a.802.802 0 1 1 1.135-1.135l5.107 5.107a.803.803 0 0 1 0 1.135l-5.107 5.108a.802.802 0 1 1-1.135-1.135l3.737-3.738H16.802v11.973l3.738-3.737a.802.802 0 1 1 1.135 1.135l-5.108 5.107a.803.803 0 0 1-1.135 0l-5.107-5.107a.802.802 0 1 1 1.135-1.135l3.737 3.737V16.802H3.226l3.737 3.738a.802.802 0 1 1-1.135 1.135L.72 16.567a.803.803 0 0 1 0-1.135l5.107-5.107a.802.802 0 1 1 1.135 1.135l-3.737 3.737h11.972V3.226L11.46 6.962a.802.802 0 1 1-1.135-1.135L15.432.72Z"/><path d="M15.09.377a1.287 1.287 0 0 1 1.82 0l5.107 5.107a1.287 1.287 0 1 1-1.82 1.82l-2.91-2.909v10.318h10.318l-2.91-2.91a1.287 1.287 0 0 1 1.82-1.82l5.108 5.107a1.287 1.287 0 0 1 0 1.82l-5.107 5.107a1.287 1.287 0 1 1-1.82-1.82l2.909-2.91H17.287v10.318l2.91-2.91a1.287 1.287 0 0 1 1.82 1.82l-5.107 5.108a1.287 1.287 0 0 1-1.82 0l-5.107-5.107a1.287 1.287 0 1 1 1.82-1.82l2.91 2.909V17.287H4.395l2.91 2.91a1.287 1.287 0 1 1-1.82 1.82L.376 16.91a1.287 1.287 0 0 1 0-1.82l5.107-5.107a1.287 1.287 0 1 1 1.82 1.82l-2.909 2.91h10.318V4.395l-2.91 2.91a1.287 1.287 0 0 1-1.82-1.82L15.09.376Zm1.135.686a.318.318 0 0 0-.45 0L10.668 6.17a.318.318 0 1 0 .45.45l3.737-3.738a.485.485 0 0 1 .827.343v11.972a.485.485 0 0 1-.485.485H3.226a.485.485 0 0 1-.343-.827l3.737-3.738a.318.318 0 1 0-.45-.449l-5.106 5.107a.318.318 0 0 0 0 .45l5.107 5.107a.318.318 0 1 0 .45-.45l-3.738-3.737a.485.485 0 0 1 .343-.827h11.972c.268 0 .485.217.485.484v11.973a.485.485 0 0 1-.827.343l-3.738-3.737a.318.318 0 1 0-.449.45l5.107 5.106a.318.318 0 0 0 .45 0l5.107-5.107a.318.318 0 1 0-.45-.45l-3.737 3.738a.485.485 0 0 1-.827-.343V16.802c0-.267.217-.484.484-.484h11.973a.485.485 0 0 1 .343.827l-3.737 3.738a.318.318 0 1 0 .45.449l5.106-5.107a.318.318 0 0 0 0-.45l-5.107-5.107a.318.318 0 1 0-.45.45l3.738 3.737a.485.485 0 0 1-.343.827H16.802a.485.485 0 0 1-.484-.485V3.226a.485.485 0 0 1 .827-.343l3.738 3.737a.318.318 0 1 0 .449-.45l-5.107-5.106Z"/></g><defs><clipPath id="bca"><path fill="#fff" d="M0 0h32v32H0z"/></clipPath></defs></symbol><symbol viewBox="0 0 12 32" id="ellipsis" xmlns="http://www.w3.org/2000/svg"><path d="M6 11.5c2.488 0 4.5 2.012 4.5 4.5S8.488 20.5 6 20.5A4.497 4.497 0 0 1 1.5 16c0-2.488 2.013-4.5 4.5-4.5ZM1.5 5c0 2.487 2.013 4.5 4.5 4.5 2.488 0 4.5-2.013 4.5-4.5S8.488.5 6 .5A4.497 4.497 0 0 0 1.5 5Zm0 22c0 2.488 2.013 4.5 4.5 4.5 2.488 0 4.5-2.012 4.5-4.5S8.488 22.5 6 22.5A4.497 4.497 0 0 0 1.5 27Z"/></symbol><symbol viewBox="0 0 32 32" id="error" xmlns="http://www.w3.org/2000/svg"><path fill-rule="evenodd" clip-rule="evenodd" d="M1.116 1.116a3.81 3.81 0 0 1 5.387 0L16 10.612l9.497-9.496a3.81 3.81 0 0 1 5.387 5.387L21.387 16l9.497 9.497a3.81 3.81 0 0 1-5.387 5.387L16 21.387l-9.497 9.497a3.81 3.81 0 0 1-5.387-5.387L10.612 16 1.117 6.503a3.81 3.81 0 0 1 0-5.387Z"/></symbol><symbol viewBox="0 0 29 32" id="expand" xmlns="http://www.w3.org/2000/svg"><path d="M0 11.25V3.5C0 2.669.693 2 1.554 2H9.58c.428 0 .777.337.777.75v2.5c0 .412-.35.75-.777.75H4.143v5.25c0 .412-.35.75-.777.75H.776C.35 12 0 11.662 0 11.25Zm18.643-8.5v2.5c0 .412.35.75.777.75h5.437v5.25c0 .412.35.75.777.75h2.59c.426 0 .776-.338.776-.75V3.5c0-.831-.693-1.5-1.554-1.5H19.42c-.428 0-.777.337-.777.75ZM28.223 20h-2.59c-.426 0-.776.337-.776.75V26H19.42c-.428 0-.777.337-.777.75v2.5c0 .413.35.75.777.75h8.026c.861 0 1.554-.669 1.554-1.5v-7.75c0-.413-.35-.75-.777-.75Zm-17.866 9.25v-2.5c0-.413-.35-.75-.777-.75H4.143v-5.25c0-.413-.35-.75-.777-.75H.776C.35 20 0 20.337 0 20.75v7.75c0 .831.693 1.5 1.554 1.5H9.58c.428 0 .777-.337.777-.75Z"/></symbol><symbol viewBox="0 0 32 32" id="external-link" xmlns="http://www.w3.org/2000/svg"><g clip-path="url(#bga)"><path d="M27 20h-2a1 1 0 0 0-1 1v7H4V8h9a1 1 0 0 0 1-1V5a1 1 0 0 0-1-1H3a3 3 0 0 0-3 3v22a3 3 0 0 0 3 3h22a3 3 0 0 0 3-3v-8a1 1 0 0 0-1-1Zm3.5-20h-8c-1.336 0-2.003 1.62-1.063 2.563l2.234 2.233L8.438 20.023a1.5 1.5 0 0 0 0 2.125l1.416 1.415a1.5 1.5 0 0 0 2.125 0l15.226-15.23 2.233 2.23C30.375 11.5 32 10.842 32 9.5v-8A1.5 1.5 0 0 0 30.5 0Z"/></g><defs><clipPath id="bga"><path fill="#fff" d="M0 0h32v32H0z"/></clipPath></defs></symbol><symbol viewBox="0 0 32 30" id="eye" xmlns="http://www.w3.org/2000/svg"><path d="M15.533 9.19c.156-.018.312-.023.467-.023 2.945 0 5.333 2.412 5.333 5.5 0 3.036-2.388 5.5-5.333 5.5-2.994 0-5.333-2.464-5.333-5.5 0-.16.005-.321.022-.482.517.258 1.117.482 1.755.482C14.406 14.667 16 13.022 16 11c0-.659-.217-1.278-.467-1.81ZM26.7 6.45c2.6 2.486 4.339 5.414 5.161 7.51.183.454.183.958 0 1.41-.822 2.046-2.561 4.973-5.161 7.511-2.617 2.51-6.211 4.618-10.7 4.618-4.489 0-8.083-2.108-10.699-4.618-2.6-2.538-4.338-5.465-5.164-7.51a1.884 1.884 0 0 1 0-1.41C.963 11.865 2.7 8.937 5.3 6.45 7.917 3.944 11.511 1.833 16 1.833s8.083 2.11 10.7 4.618ZM16 6.417c-4.417 0-8 3.695-8 8.25 0 4.554 3.583 8.25 8 8.25s8-3.696 8-8.25c0-4.555-3.583-8.25-8-8.25Z"/></symbol><symbol viewBox="0 0 32 52" id="facebook" xmlns="http://www.w3.org/2000/svg"><g clip-path="url(#bia)"><path d="m27.914 28.8 1.422-9.266h-8.891v-6.013c0-2.535 1.242-5.006 5.224-5.006h4.042V.626S26.043 0 22.536 0c-7.322 0-12.108 4.438-12.108 12.472v7.062H2.289V28.8h8.139v22.4h10.017V28.8h7.47Z"/></g><defs><clipPath id="bia"><path fill="#fff" d="M0 0h32v51.2H0z"/></clipPath></defs></symbol><symbol viewBox="0 0 32 37" id="flipboard" xmlns="http://www.w3.org/2000/svg"><path d="M0 2.286v32h32v-32H0Zm25.6 12.8h-6.4v6.4h-6.4v6.4H6.4v-19.2h19.2v6.4Z"/></symbol><symbol viewBox="0 0 25 25" id="forward-10-seconds" xmlns="http://www.w3.org/2000/svg"><path fill-rule="evenodd" clip-rule="evenodd" d="M10.987 1.413C10.987.743 11.53.2 12.2.2c6.628 0 12 5.373 12 12s-5.372 12-12 12c-6.627 0-12-5.373-12-12 0-4.449 2.37-8.418 6.006-10.492a1.213 1.213 0 1 1 1.202 2.108c-2.874 1.64-4.78 4.802-4.78 8.384A9.573 9.573 0 1 0 12.2 2.627c-.67 0-1.213-.543-1.213-1.214Z"/><path fill-rule="evenodd" clip-rule="evenodd" d="M1.212 2.762c0-.67.543-1.213 1.213-1.213h4.382c.67 0 1.214.543 1.214 1.213V6.47a1.213 1.213 0 1 1-2.427 0V3.976H2.425c-.67 0-1.213-.544-1.213-1.214Z"/><path d="M8.336 15.49a.82.82 0 1 0 1.64 0V9.407a.82.82 0 0 0-.82-.82h-.022c-.227 0-.464.054-.777.14L7.29 9.04a.735.735 0 0 0-.55.712c0 .388.335.712.723.712.086 0 .205-.022.291-.043l.583-.151v5.22ZM14.03 16.375c2.017 0 3.365-1.715 3.365-3.905v-.022c0-2.19-1.348-3.883-3.344-3.883-2.006 0-3.365 1.715-3.365 3.905v.021c0 2.19 1.326 3.884 3.344 3.884Zm.021-1.5c-1.003 0-1.661-1.024-1.661-2.405v-.022c0-1.38.647-2.383 1.64-2.383.992 0 1.66 1.035 1.66 2.405v.021c0 1.37-.636 2.384-1.639 2.384Z"/></symbol><symbol viewBox="0 0 47 32" id="gauge" xmlns="http://www.w3.org/2000/svg"><path fill-rule="evenodd" clip-rule="evenodd" d="M0 22.163C0 9.725 10.357 0 23.11 0c12.754 0 23.111 9.725 23.111 22.163 0 3.124-.776 6.195-1.786 8.719a1.778 1.778 0 1 1-3.301-1.32c.887-2.218 1.532-4.835 1.532-7.4 0-10.317-8.605-18.607-19.555-18.607S3.555 11.845 3.555 22.163c0 2.564.646 5.181 1.533 7.398a1.778 1.778 0 0 1-3.302 1.321C.776 28.358 0 25.287 0 22.162Zm32.664-8.606c.694.695.694 1.82 0 2.515l-8.296 8.296a1.778 1.778 0 1 1-2.514-2.514l8.296-8.296a1.778 1.778 0 0 1 2.514 0Z"/></symbol><symbol viewBox="0 0 40 32" id="google-news" xmlns="http://www.w3.org/2000/svg"><g clip-path="url(#bna)"><path d="M31.112 21.707c0 .544-.449.99-.997.99H8.998a.997.997 0 0 1-.998-.99V.99C8 .446 8.45 0 8.998 0h21.117c.549 0 .998.446.998.99v20.717Z" fill="#0C9D58"/><path opacity=".2" d="m31.112 5.326-7.914-1.019 7.914 2.123V5.326ZM19.938 1.08 7.953 6.431l13.246-4.82v-.014c-.233-.499-.8-.732-1.261-.517Z" fill="#004D40"/><path opacity=".2" d="M30.115 0H8.998A.997.997 0 0 0 8 .99v.223c0-.545.45-.99.998-.99h21.117c.549 0 .998.445.998.99V.99A.998.998 0 0 0 30.115 0Z" fill="#fff"/><path d="M13.125 21.07c-.143.532.142 1.075.633 1.206l19.559 5.26c.49.132 1.009-.196 1.15-.728l4.608-17.195c.143-.532-.142-1.075-.633-1.206l-19.558-5.26c-.491-.131-1.01.196-1.151.728L13.125 21.07Z" fill="#EA4335"/><path opacity=".2" d="m34.668 15.75 1.03 6.25-1.03 3.84V15.75ZM23.29 4.562l.922.248.573 3.857-1.494-4.105Z" fill="#3E2723"/><path opacity=".2" d="m38.443 8.407-19.559-5.26c-.49-.131-1.009.196-1.15.728L13.124 21.07c-.007.03-.01.058-.014.087l4.572-17.065c.143-.532.662-.86 1.152-.728l19.559 5.26c.464.124.739.617.647 1.12l.036-.13c.142-.533-.143-1.076-.634-1.207Z" fill="#fff"/><path d="M28.529 18.953c.188.517-.049 1.083-.526 1.256L7.364 27.721c-.477.174-1.022-.108-1.21-.625L.065 10.368C-.123 9.85.113 9.285.591 9.11L21.23 1.599c.477-.173 1.022.108 1.21.626l6.089 16.728Z" fill="#FFC107"/><path opacity=".2" d="M.143 10.579c-.188-.518.049-1.084.526-1.257L21.308 1.81c.472-.172 1.009.102 1.203.609l-.071-.195c-.189-.518-.733-.799-1.21-.625L.59 9.11c-.477.174-.714.74-.525 1.257l6.089 16.728.008.016L.143 10.579Z" fill="#fff"/><path d="M34.668 31c0 .55-.45 1-1 1H5.445c-.55 0-1-.45-1-1V9.667c0-.55.45-1 1-1h28.223c.55 0 1 .45 1 1V31Z" fill="#4285F4"/><path d="M29.28 17.111h-8.446V14.89h8.445c.246 0 .445.199.445.444v1.334a.445.445 0 0 1-.445.444Zm0 8.444h-8.446v-2.222h8.445c.246 0 .445.2.445.444v1.334a.444.444 0 0 1-.445.444Zm1.332-4.222h-9.778v-2.222h9.779c.245 0 .444.199.444.444v1.333a.444.444 0 0 1-.444.445Z" fill="#fff"/><path opacity=".2" d="M33.668 31.778H5.445c-.55 0-1-.45-1-1V31c0 .55.45 1 1 1h28.223c.55 0 1-.45 1-1v-.222c0 .55-.45 1-1 1Z" fill="#1A237E"/><path opacity=".2" d="M5.445 8.889h28.223c.55 0 1 .45 1 1v-.222c0-.55-.45-1-1-1H5.445c-.55 0-1 .45-1 1v.222c0-.55.45-1 1-1Z" fill="#fff"/><path d="M13.278 19.334v2.004h2.876c-.237 1.22-1.31 2.106-2.876 2.106-1.745 0-3.161-1.476-3.161-3.222S11.532 17 13.278 17c.787 0 1.49.27 2.046.8v.001l1.522-1.522c-.924-.861-2.13-1.39-3.568-1.39a5.334 5.334 0 1 0 0 10.667c3.08 0 5.106-2.165 5.106-5.212 0-.35-.032-.686-.084-1.01h-5.022Z" fill="#fff"/><g opacity=".2" fill="#1A237E"><path d="M13.334 21.338v.222h2.822c.021-.073.039-.147.054-.222h-2.876Z"/><path d="M13.334 25.555a5.332 5.332 0 0 1-5.33-5.222c-.001.037-.004.074-.004.111a5.333 5.333 0 0 0 5.334 5.334c3.08 0 5.107-2.166 5.107-5.213 0-.024-.003-.047-.003-.071-.067 2.967-2.075 5.061-5.104 5.061ZM15.38 17.8c-.556-.53-1.26-.8-2.046-.8-1.746 0-3.162 1.476-3.162 3.222 0 .038.005.074.006.111.059-1.697 1.447-3.111 3.156-3.111.786 0 1.49.27 2.046.8v.001l1.633-1.633c-.038-.036-.08-.067-.12-.102l-1.512 1.513-.001-.001Z"/></g><path opacity=".2" d="M29.724 16.889v-.222a.444.444 0 0 1-.445.444h-8.445v.222h8.445a.443.443 0 0 0 .445-.444Zm-.445 8.666h-8.445v.223h8.445a.444.444 0 0 0 .445-.445v-.222a.444.444 0 0 1-.445.444Zm1.334-4.222h-9.779v.222h9.779a.444.444 0 0 0 .444-.444v-.222a.444.444 0 0 1-.444.444Z" fill="#1A237E"/></g><defs><clipPath id="bna"><path fill="#fff" d="M0 0h39.113v32H0z"/></clipPath></defs></symbol><symbol style="color:#fff" viewBox="0 0 24 24" id="google-news-white" xmlns="http://www.w3.org/2000/svg"><path d="M21.267 21.2a.614.614 0 0 1-.613.613H3.344a.614.614 0 0 1-.612-.613V8.115a.614.614 0 0 1 .613-.613h17.309a.614.614 0 0 1 .613.613V21.2zm-3.032-3.42v-1.195a.08.08 0 0 0-.08-.08h-5.373v1.361h5.373a.082.082 0 0 0 .08-.083v-.003zm.817-2.587v-1.201a.08.08 0 0 0-.079-.082h-6.19v1.362h6.189a.079.079 0 0 0 .08-.078v-.004.003zm-.817-2.588V11.4a.08.08 0 0 0-.08-.08h-5.373v1.361h5.373a.082.082 0 0 0 .08-.079v.004zM8.15 14.045v1.226h1.77c-.145.748-.804 1.292-1.77 1.292a1.976 1.976 0 0 1 0-3.95 1.77 1.77 0 0 1 1.253.49l.934-.932a3.14 3.14 0 0 0-2.187-.853 3.268 3.268 0 1 0 0 6.537c1.89 0 3.133-1.328 3.133-3.197a3.941 3.941 0 0 0-.052-.619l-3.08.006zM2.27 7.654a.616.616 0 0 1 .613-.613h12.154l-1.269-3.49a.595.595 0 0 0-.743-.383L.368 7.775a.594.594 0 0 0-.323.775l2.225 6.112V7.654za.616.616 0 0 1 .613-.613h12.154l-1.269-3.49a.595.595 0 0 0-.743-.383L.368 7.775a.594.594 0 0 0-.323.775l2.225 6.112V7.654zm21.312-.31-8.803-2.37.751 2.067h5.584a.614.614 0 0 1 .613.613v8.794l2.247-8.366a.592.592 0 0 0-.392-.739zm-4.496-1.675V2.795a.61.61 0 0 0-.611-.608H5.524a.61.61 0 0 0-.616.605v2.837l8.39-3.052a.594.594 0 0 1 .743.39l.544 1.497 4.501 1.205z" fill="#fff"/></symbol><symbol viewBox="0 0 28 32" id="graduate" xmlns="http://www.w3.org/2000/svg"><path d="m.852 4.984.398.094v3.656C.812 8.994.5 9.456.5 10c0 .523.29.961.695 1.234l-.976 3.891c-.11.431.133.875.477.875h2.609c.344 0 .586-.445.477-.819l-.977-3.943c.406-.275.695-.713.695-1.238 0-.547-.313-1.008-.75-1.266V5.446l3.25.78V10c0 4.422 3.578 8 8 8 4.422 0 7.944-3.578 7.944-8L22 6.226l5.14-1.242c1.141-.273 1.141-1.687 0-1.968L15.24.14a5.523 5.523 0 0 0-2.476 0L.85 3.016C-.28 3.289-.28 4.71.851 4.984ZM20.45 19.55 14 26l-6.45-6.45C3.18 20.944 0 25 0 29.831 0 31.031.97 32 2.167 32h23.669A2.165 2.165 0 0 0 28 29.831c0-4.831-3.181-8.887-7.55-10.281Z"/></symbol><symbol viewBox="0 0 33 32" id="grid" xmlns="http://www.w3.org/2000/svg"><path d="M28.875 0C31.15 0 33 2.046 33 4.571V27.43C33 29.95 31.15 32 28.875 32H4.125C1.847 32 0 29.95 0 27.429V4.57C0 2.046 1.847 0 4.125 0h24.75Zm0 4.571H18.562v9.143h10.313V4.571Zm0 13.715H18.562v9.143h10.313v-9.143Zm-14.438-4.572V4.571H4.126v9.143h10.313ZM4.126 27.43h10.313v-9.143H4.124v9.143Z"/></symbol><symbol viewBox="0 0 32 32" id="group" xmlns="http://www.w3.org/2000/svg"><path d="M16 0c-.686 0-1.143.457-1.143 1.143v5.714C14.857 7.543 15.314 8 16 8c.686 0 1.143-.457 1.143-1.143V1.143C17.143.457 16.686 0 16 0ZM6.286 4.686a1.105 1.105 0 0 0-1.6 0 1.105 1.105 0 0 0 0 1.6l4 4c.228.228.571.343.8.343.228 0 .571-.115.8-.343a1.105 1.105 0 0 0 0-1.6l-4-4ZM8 16c0-.686-.457-1.143-1.143-1.143H1.143C.457 14.857 0 15.314 0 16c0 .686.457 1.143 1.143 1.143h5.714C7.543 17.143 8 16.686 8 16ZM8.686 21.6l-4 4a1.105 1.105 0 0 0 0 1.6c.228.229.571.343.8.343.228 0 .571-.114.8-.343l4-4a1.105 1.105 0 0 0 0-1.6c-.457-.457-1.143-.343-1.6 0ZM16 24c-.686 0-1.143.457-1.143 1.143v5.714c0 .686.457 1.143 1.143 1.143.686 0 1.143-.457 1.143-1.143v-5.714c0-.686-.457-1.143-1.143-1.143ZM23.314 21.6a1.105 1.105 0 0 0-1.6 0 1.105 1.105 0 0 0 0 1.6l4 4c.229.229.572.343.8.343.229 0 .572-.114.8-.343a1.105 1.105 0 0 0 0-1.6l-4-4ZM30.857 14.857h-5.714c-.686 0-1.143.457-1.143 1.143 0 .686.457 1.143 1.143 1.143h5.714c.686 0 1.143-.457 1.143-1.143 0-.686-.457-1.143-1.143-1.143ZM22.514 10.629c.343 0 .572-.115.8-.343l4-4a1.105 1.105 0 0 0 0-1.6 1.105 1.105 0 0 0-1.6 0l-4 4a1.105 1.105 0 0 0 0 1.6c.115.228.457.343.8.343Z"/></symbol><symbol viewBox="0 0 32 32" id="hand-regular" xmlns="http://www.w3.org/2000/svg"><path d="M25.5 5c-.25 0-.494.02-.733.06a4.509 4.509 0 0 0-5.434-2.916A4.502 4.502 0 0 0 15.5 0a4.506 4.506 0 0 0-3.838 2.152A4.437 4.437 0 0 0 10.506 2a4.51 4.51 0 0 0-4.505 4.5v7.6a5.001 5.001 0 0 0-6 4.906c-.001 1.268.471 2.47 1.34 3.403l5.078 5.453A13.035 13.035 0 0 0 15.931 32H18C24.619 32 30 26.619 30 20V9.5C30 7.019 27.981 5 25.5 5ZM27 20c0 4.963-4.037 9-8.944 9h-2.125a10.002 10.002 0 0 1-7.318-3.185l-4.986-5.352a2.18 2.18 0 0 1-.587-1.444c0-1.385 1.158-1.962 1.959-1.962.535 0 1.069.213 1.464.636l1.67 1.793a.78.78 0 0 0 .36.101.5.5 0 0 0 .505-.5V6.5c0-.828.672-1.5 1.444-1.5.828 0 1.443.672 1.443 1.5V16c.115.55.565 1 1.115 1s.944-.448.944-.944L14 4.5c0-.828.672-1.5 1.444-1.5.828 0 1.443.672 1.443 1.5V16c.113.55.563 1 1.113 1s1-.448 1-.944V6.544c0-.828.672-1.5 1.444-1.5.828 0 1.443.672 1.443 1.5v9.512C22 16.55 22.45 17 23 17s.944-.448.944-.944V9.5c0-.828.672-1.5 1.444-1.5.828 0 1.443.672 1.443 1.5V20H27Z"/></symbol><symbol viewBox="0 0 16 16" id="helper" xmlns="http://www.w3.org/2000/svg"><path fill-rule="evenodd" clip-rule="evenodd" d="M8 2C4.688 2 2 4.688 2 8s2.688 6 6 6 6-2.688 6-6-2.688-6-6-6Zm.6 9H7.4V7.4h1.2V11ZM7.4 6.2h1.2V5H7.4v1.2Z"/></symbol><symbol viewBox="0 0 40 32" id="image" xmlns="http://www.w3.org/2000/svg"><path d="M36.667 0H10C8.159 0 6.667 1.535 6.667 3.429v18.285c0 1.894 1.492 3.429 3.333 3.429h26.667c1.84 0 3.333-1.535 3.333-3.429V3.43C40 1.535 38.507 0 36.667 0ZM15.493 4.571c1.228 0 2.222 1.024 2.222 2.286s-.93 2.286-2.222 2.286c-1.227 0-2.222-1.024-2.222-2.286s1.055-2.286 2.222-2.286Zm18.82 15.4c-.195.372-.57.6-.98.6h-20c-.418 0-.8-.24-.99-.625a1.17 1.17 0 0 1 .093-1.191l4.86-6.857c.21-.298.544-.47.898-.47.355 0 .69.175.898.47l1.552 2.19 4.357-6.722c.145-.316.492-.509.923-.509.371 0 .718.191.924.51l7.41 11.428c.228.348.249.798.054 1.176Zm-2.646 8.6H8.333c-2.757 0-5-2.307-5-5.142V6.286c0-.943-.746-1.715-1.666-1.715C.747 4.571 0 5.343 0 6.286v17.143C0 28.157 3.738 32 8.333 32h23.334c.92 0 1.666-.768 1.666-1.714 0-.947-.743-1.715-1.666-1.715Z"/></symbol><symbol viewBox="0 0 32 32" id="info" xmlns="http://www.w3.org/2000/svg"><path d="M16 32c8.837 0 16-7.163 16-16 0-8.838-7.163-16-16-16C7.162 0 0 7.162 0 16c0 8.837 7.162 16 16 16Zm-2.5-11H15v-4h-1.5c-.831 0-1.5-.669-1.5-1.5s.669-1.5 1.5-1.5h3c.831 0 1.5.669 1.5 1.5V21h.5c.831 0 1.5.669 1.5 1.5s-.669 1.5-1.5 1.5h-5c-.831 0-1.5-.669-1.5-1.5s.669-1.5 1.5-1.5Zm2.5-9c-1.106 0-2-.894-2-2 0-1.106.894-2 2-2 1.106 0 2 .894 2 2 0 1.106-.894 2-2 2Z"/></symbol><symbol viewBox="0 0 30 29" id="instagram" xmlns="http://www.w3.org/2000/svg"><path d="M15.006 6.823a7.17 7.17 0 0 0-7.181 7.182 7.17 7.17 0 0 0 7.181 7.18 7.17 7.17 0 0 0 7.181-7.18 7.17 7.17 0 0 0-7.18-7.182Zm0 11.85a4.677 4.677 0 0 1-4.669-4.668 4.673 4.673 0 0 1 4.67-4.67 4.673 4.673 0 0 1 4.668 4.67c0 2.575-2.1 4.668-4.669 4.668Zm9.15-12.143c0 .93-.75 1.675-1.675 1.675a1.675 1.675 0 1 1 1.675-1.675Zm4.756 1.7c-.106-2.244-.618-4.232-2.262-5.87C25.012.724 23.025.21 20.78.099c-2.312-.13-9.244-.13-11.556 0C6.987.205 5 .718 3.356 2.355 1.712 3.992 1.206 5.98 1.094 8.223c-.132 2.313-.132 9.244 0 11.557.106 2.243.618 4.23 2.262 5.868 1.644 1.638 3.625 2.15 5.869 2.263 2.312.131 9.244.131 11.556 0 2.244-.106 4.231-.619 5.869-2.263 1.637-1.637 2.15-3.625 2.262-5.868.132-2.313.132-9.238 0-11.55Zm-2.987 14.03a4.727 4.727 0 0 1-2.663 2.663c-1.843.732-6.218.563-8.256.563-2.037 0-6.419.162-8.256-.563a4.727 4.727 0 0 1-2.663-2.662c-.73-1.844-.562-6.219-.562-8.256 0-2.038-.163-6.42.562-8.257A4.727 4.727 0 0 1 6.75 3.086c1.844-.731 6.219-.563 8.256-.563 2.038 0 6.419-.162 8.256.563a4.727 4.727 0 0 1 2.663 2.662c.731 1.844.562 6.22.562 8.257s.17 6.418-.562 8.256Z"/></symbol><symbol viewBox="0 0 24 32" id="interrogation" xmlns="http://www.w3.org/2000/svg"><path d="M15.322 0H7.2C3.23 0 0 3.082 0 6.871c0 1.265 1.073 2.226 2.4 2.226s2.4-1.025 2.4-2.226c0-1.262 1.075-2.29 2.4-2.29h8.122c2.138 0 3.878 1.66 3.878 3.707 0 1.411-.823 2.681-2.287 3.387l-7.328 4.1C8.782 16.188 8.4 16.94 8.4 17.75v2.863c0 1.264 1.073 2.29 2.4 2.29s2.4-1.026 2.4-2.29v-1.554l6-3.364c2.96-1.413 4.8-4.252 4.8-7.407C24 3.718 20.108 0 15.322 0ZM10.8 26.338c-1.657 0-3 1.282-3 2.863S9.143 32 10.8 32s3-1.281 3-2.799c0-1.517-1.343-2.863-3-2.863Z"/></symbol><symbol viewBox="0 0 32 32" id="key-lg" xmlns="http://www.w3.org/2000/svg"><g clip-path="url(#bxa)"><path d="M21 22c6.075 0 11-4.925 11-11S27.075 0 21 0 10 4.925 10 11c0 1.169.181 2.3.519 3.356L.437 24.438A1.499 1.499 0 0 0 0 25.5v5c0 .831.669 1.5 1.5 1.5h5c.831 0 1.5-.669 1.5-1.5V28h2.5c.831 0 1.5-.669 1.5-1.5V24h2.5c.4 0 .781-.156 1.063-.438l2.08-2.08C18.7 21.818 19.832 22 21 22Zm2.5-11a2.5 2.5 0 1 1-.001-4.999A2.5 2.5 0 0 1 23.5 11Z"/></g><defs><clipPath id="bxa"><path fill="#fff" d="M0 0h32v32H0z"/></clipPath></defs></symbol><symbol viewBox="0 0 32 32" id="link" xmlns="http://www.w3.org/2000/svg"><g clip-path="url(#bya)"><path d="M20.413 11.587c3.734 3.738 3.683 9.731.023 13.412l-.023.023-4.2 4.2c-3.704 3.704-9.73 3.704-13.435 0-3.704-3.704-3.704-9.731 0-13.435l2.32-2.32c.614-.614 1.674-.205 1.705.664.04 1.107.24 2.22.606 3.295.124.364.035.766-.237 1.038l-.817.818c-1.752 1.752-1.807 4.604-.073 6.372a4.505 4.505 0 0 0 6.396.032l4.2-4.2a4.499 4.499 0 0 0-.647-6.899 1.003 1.003 0 0 1-.434-.788 2.49 2.49 0 0 1 .731-1.863l1.316-1.316a1.004 1.004 0 0 1 1.287-.108c.458.32.887.68 1.282 1.075Zm8.809-8.809c-3.704-3.704-9.73-3.704-13.435 0l-4.2 4.2a.807.807 0 0 0-.023.023c-3.66 3.681-3.711 9.674.023 13.412.395.395.824.755 1.282 1.075.4.28.942.237 1.287-.108l1.316-1.316a2.49 2.49 0 0 0 .73-1.863 1.002 1.002 0 0 0-.433-.788 4.499 4.499 0 0 1-.646-6.9l4.2-4.2a4.505 4.505 0 0 1 6.395.033c1.734 1.768 1.679 4.62-.073 6.372l-.818.818c-.271.272-.36.674-.236 1.038.366 1.075.565 2.188.606 3.295.031.87 1.09 1.278 1.706.663l2.319-2.319c3.704-3.704 3.704-9.731 0-13.435Z"/></g><defs><clipPath id="bya"><path fill="#fff" d="M0 0h32v32H0z"/></clipPath></defs></symbol><symbol viewBox="0 0 32 37" id="linkedin" xmlns="http://www.w3.org/2000/svg"><path d="M7.163 32H.529V10.635h6.634V32ZM3.843 7.72C1.72 7.721 0 5.964 0 3.842a3.842 3.842 0 0 1 7.684 0c0 2.122-1.721 3.88-3.842 3.88ZM31.992 32h-6.62V21.6c0-2.479-.05-5.658-3.45-5.658-3.449 0-3.977 2.693-3.977 5.48V32h-6.627V10.635h6.362v2.915h.093c.886-1.679 3.05-3.45 6.277-3.45C30.766 10.1 32 14.52 32 20.264V32h-.007Z"/></symbol><symbol viewBox="0 0 32 44" id="location" xmlns="http://www.w3.org/2000/svg"><path d="M14.025 43.011C9.675 37.48 0 24.073 0 16.543 0 7.406 7.163 0 16 0c8.833 0 16 7.406 16 16.543 0 7.53-9.75 20.937-14.025 26.468-1.025 1.319-2.925 1.319-3.95 0ZM16 22.057c2.942 0 5.333-2.473 5.333-5.514 0-3.042-2.391-5.514-5.333-5.514s-5.333 2.472-5.333 5.514c0 3.041 2.391 5.514 5.333 5.514Z"/></symbol><symbol viewBox="0 0 70 62" id="logo-R7" xmlns="http://www.w3.org/2000/svg"><path fill-rule="evenodd" clip-rule="evenodd" d="M21.381 17.566h-3.197v9.488h3.095c3.815 0 5.723-1.606 5.723-4.821 0-3.11-1.874-4.667-5.62-4.667Z"/><path fill-rule="evenodd" clip-rule="evenodd" d="M59.843 17.206 47.727 44.174h-9.643L50.77 17.205H37.413V9.78h22.43v7.427ZM26.178 44.174l-7.993-11.139v11.139H9.78V9.779h10.88c2.921 0 5.13.173 6.626.517a9.175 9.175 0 0 1 3.945 1.96c2.818 2.338 4.227 5.483 4.227 9.435 0 2.854-.773 5.253-2.32 7.193-1.546 1.943-3.627 3.139-6.24 3.584l9.335 11.706H26.177ZM51.086 0H18.537C8.381 0 .13 8.17 0 18.295v42.71c3.396-4.293 8.026-7.052 13.924-7.052h37.162c10.238 0 18.537-8.3 18.537-18.537V18.537C69.623 8.3 61.323 0 51.086 0Z"/></symbol><symbol viewBox="0 0 33 32" id="logout" xmlns="http://www.w3.org/2000/svg"><path d="M31.414 16.862a1.883 1.883 0 0 0 0-2.73l-8-7.714a2.056 2.056 0 0 0-2.832 0 1.883 1.883 0 0 0 0 2.73l4.588 4.423H12c-1.106 0-2 .862-2 1.929 0 1.067.894 1.929 2 1.929h13.17l-4.588 4.423a1.883 1.883 0 0 0 0 2.73c.781.754 2.05.754 2.832 0l8-7.714v-.006ZM10.001 5.857c1.106 0 2-.862 2-1.928C12 2.862 11.107 2 10 2H6C2.687 2 0 4.592 0 7.786v15.428C0 26.41 2.688 29 6 29h4c1.107 0 2-.862 2-1.929 0-1.066-.893-1.928-2-1.928H6c-1.106 0-2-.862-2-1.929V7.786c0-1.067.894-1.929 2-1.929h4Z"/></symbol><symbol viewBox="0 0 32 32" id="more_item" xmlns="http://www.w3.org/2000/svg"><path d="M20.5 16c0 2.488-2.012 4.5-4.5 4.5a4.497 4.497 0 0 1-4.5-4.5c0-2.488 2.012-4.5 4.5-4.5s4.5 2.012 4.5 4.5Zm6.5-4.5a4.497 4.497 0 0 0-4.5 4.5c0 2.488 2.012 4.5 4.5 4.5s4.5-2.012 4.5-4.5-2.012-4.5-4.5-4.5Zm-22 0A4.497 4.497 0 0 0 .5 16c0 2.488 2.013 4.5 4.5 4.5s4.5-2.012 4.5-4.5-2.013-4.5-4.5-4.5Z"/></symbol><symbol viewBox="0 0 32 32" id="mosaic" xmlns="http://www.w3.org/2000/svg"><path d="M18.5 2h12A1.5 1.5 0 0 1 32 3.5v10a1.5 1.5 0 0 1-1.5 1.5h-12a1.5 1.5 0 0 1-1.5-1.5v-10A1.5 1.5 0 0 1 18.5 2Zm-5 0h-12A1.5 1.5 0 0 0 0 3.5v10A1.5 1.5 0 0 0 1.5 15h12a1.5 1.5 0 0 0 1.5-1.5v-10A1.5 1.5 0 0 0 13.5 2ZM0 18.5v10A1.5 1.5 0 0 0 1.5 30h12a1.5 1.5 0 0 0 1.5-1.5v-10a1.5 1.5 0 0 0-1.5-1.5h-12A1.5 1.5 0 0 0 0 18.5ZM18.5 30h12a1.5 1.5 0 0 0 1.5-1.5v-10a1.5 1.5 0 0 0-1.5-1.5h-12a1.5 1.5 0 0 0-1.5 1.5v10a1.5 1.5 0 0 0 1.5 1.5Z"/></symbol><symbol viewBox="0 0 32 28" id="paper" xmlns="http://www.w3.org/2000/svg"><path d="M28.5 0h-19C7.569 0 6 1.57 6 3.5v20c0 .826-.673 1.5-1.5 1.5S3 24.325 3 23.5V5a1.5 1.5 0 0 0-3 0v18.5C0 25.981 2.019 28 4.5 28h22c3.033 0 5.5-2.467 5.5-5.5v-19C32 1.57 30.431 0 28.5 0Zm.5 22.5c0 1.379-1.121 2.5-2.5 2.5H8.744c.162-.469.256-.975.256-1.5v-20c0-.275.225-.5.5-.5h19c.275 0 .5.225.5.5v19ZM16.5 15h-4c-.825 0-1.5.675-1.5 1.5s.675 1.5 1.5 1.5h4c.831 0 1.5-.669 1.5-1.5s-.669-1.5-1.5-1.5Zm9 0h-4c-.825 0-1.5.675-1.5 1.5s.675 1.5 1.5 1.5h4a1.5 1.5 0 0 0 0-3Zm-9 5h-4a1.5 1.5 0 0 0 0 3h4a1.5 1.5 0 0 0 0-3Zm9 0h-4c-.825 0-1.5.675-1.5 1.5s.672 1.5 1.5 1.5h4a1.5 1.5 0 0 0 0-3ZM25 5H13a2 2 0 0 0-2 2v4a2 2 0 0 0 2 2h12a2 2 0 0 0 2-2V7c0-1.106-.894-2-2-2Z"/></symbol><symbol viewBox="0 0 24 32" id="paper-word" xmlns="http://www.w3.org/2000/svg"><path d="m22.831 5.836-4.664-4.665A4.019 4.019 0 0 0 15.337 0H4a4 4 0 0 0-4 4v24a4 4 0 0 0 4 4h16c2.2 0 4-1.8 4-4V8.663a4.003 4.003 0 0 0-1.169-2.827ZM21 28a1 1 0 0 1-1 1H4.001a1 1 0 0 1-1-1L3 4.008a1 1 0 0 1 1-1h10V8a2 2 0 0 0 2 2h4.944v18H21Zm-7.588-12.5c-.206-.6-.775-1-1.412-1-.637 0-1.203.4-1.414 1l-1.542 4.381-1.618-4.854a1.511 1.511 0 0 0-1.9-.952 1.503 1.503 0 0 0-.95 1.9l3 9A1.502 1.502 0 0 0 8.989 26c.635 0 1.215-.4 1.426-1L12 20.506 13.588 25c.212.6.775 1 1.412 1a1.516 1.516 0 0 0 1.423-1.026l3-9a1.502 1.502 0 0 0-.948-1.898 1.501 1.501 0 0 0-1.898.949l-1.618 4.854-1.546-4.379Z"/></symbol><symbol viewBox="0 0 28 32" id="pause" xmlns="http://www.w3.org/2000/svg"><path d="M9 29.938H3a3 3 0 0 1-3-3v-22a3 3 0 0 1 3-3h6a3 3 0 0 1 3 3v22a3 3 0 0 1-3 3Zm19-3v-22a3 3 0 0 0-3-3h-6a3 3 0 0 0-3 3v22a3 3 0 0 0 3 3h6a3 3 0 0 0 3-3Z"/></symbol><symbol viewBox="0 0 80 80" id="pause-circle" xmlns="http://www.w3.org/2000/svg"><path d="M40 1.25C18.594 1.25 1.25 18.594 1.25 40S18.594 78.75 40 78.75 78.75 61.406 78.75 40 61.406 1.25 40 1.25ZM37.5 52.5c0 1.375-1.125 2.5-2.5 2.5h-7.5a2.507 2.507 0 0 1-2.5-2.5v-25c0-1.375 1.125-2.5 2.5-2.5H35c1.375 0 2.5 1.125 2.5 2.5v25Zm17.5 0c0 1.375-1.125 2.5-2.5 2.5H45a2.507 2.507 0 0 1-2.5-2.5v-25c0-1.375 1.125-2.5 2.5-2.5h7.5c1.375 0 2.5 1.125 2.5 2.5v25Z"/></symbol><symbol viewBox="0 0 32 32" id="pen" xmlns="http://www.w3.org/2000/svg"><g clip-path="url(#cja)"><path d="M22.669 1.208a4.006 4.006 0 0 1 5.662 0l2.463 2.464a4.002 4.002 0 0 1 0 5.66l-3.025 3.024-8.125-8.123 3.025-3.025Zm3.687 12.56-14.575 14.57a5.479 5.479 0 0 1-2.337 1.387l-7.52 2.212a1.41 1.41 0 0 1-1.485-.43c-.388-.332-.533-.9-.378-1.432l2.212-7.519a5.51 5.51 0 0 1 1.388-2.337L18.23 5.646l8.125 8.123Z"/></g><defs><clipPath id="cja"><path fill="#fff" d="M0 0h32v32H0z"/></clipPath></defs></symbol><symbol fill="none" viewBox="0 0 16 15" id="phone" xmlns="http://www.w3.org/2000/svg"><path d="M4.103.75h7.203a4.103 4.103 0 0 1 4.103 4.102v3.735a4.103 4.103 0 0 1-4.103 4.103H3.082c-1.306 0-2.33.61-3.082 1.56V4.799A4.103 4.103 0 0 1 4.103.75Z" fill="#4A4A4A"/><path d="M5.344 10.626H4.46a.852.852 0 0 1-.625-.26.852.852 0 0 1-.26-.625V6.643c0-.554.105-1.072.315-1.555a4.05 4.05 0 0 1 .852-1.262 4.05 4.05 0 0 1 1.262-.852 3.854 3.854 0 0 1 1.554-.315c.554 0 1.072.105 1.555.315.483.21.904.495 1.262.852.357.358.641.779.852 1.262.21.483.315 1.001.315 1.555V9.74a.852.852 0 0 1-.26.625.852.852 0 0 1-.625.26H9.77a.852.852 0 0 1-.625-.26.852.852 0 0 1-.26-.625v-1.77c0-.244.087-.452.26-.626a.852.852 0 0 1 .626-.26h.885v-.442c0-.863-.3-1.596-.902-2.197-.601-.601-1.334-.902-2.197-.902s-1.595.3-2.196.902c-.601.601-.902 1.334-.902 2.197v.442h.885c.244 0 .452.087.625.26.174.174.26.382.26.626v1.77a.852.852 0 0 1-.26.625.852.852 0 0 1-.625.26Z" fill="#fff"/></symbol><symbol viewBox="0 0 32 28" id="photo" xmlns="http://www.w3.org/2000/svg"><path d="M32 7v18a3 3 0 0 1-3 3H3a3 3 0 0 1-3-3V7a3 3 0 0 1 3-3h5.5l.769-2.056A2.996 2.996 0 0 1 12.075 0h7.844c1.25 0 2.369.775 2.806 1.944L23.5 4H29a3 3 0 0 1 3 3Zm-8.5 9c0-4.137-3.363-7.5-7.5-7.5A7.506 7.506 0 0 0 8.5 16c0 4.137 3.363 7.5 7.5 7.5 4.137 0 7.5-3.363 7.5-7.5Zm-2 0c0 3.031-2.469 5.5-5.5 5.5a5.508 5.508 0 0 1-5.5-5.5c0-3.031 2.469-5.5 5.5-5.5s5.5 2.469 5.5 5.5Z"/></symbol><symbol viewBox="0 0 32 32" id="pie-chart" xmlns="http://www.w3.org/2000/svg"><path d="M16.061 1.036c0-.564.36-1.036.945-1.036 7.304 0 13.227 6.269 13.227 14a.99.99 0 0 1-.98 1H16.06V1.036ZM0 17C0 9.419 5.32 3.146 12.17 2.14c.596-.078 1.057.382 1.057.96V18l9.24 9.781c.397.419.367 1.107-.088 1.45C20.065 30.975 17.23 32 14.172 32 6.348 32 0 25.288 0 17Zm31.083 1c.543 0 .98.488.91 1.063-.455 3.493-2.05 6.6-4.364 8.893-.355.3-.91.325-1.252-.037L17.006 18h14.077Z"/></symbol><symbol viewBox="0 0 25 32" id="play" xmlns="http://www.w3.org/2000/svg"><g clip-path="url(#coa)"><path d="M23.683 13.419 4.04.412C2.444-.644 0 .382 0 2.994V29c0 2.344 2.271 3.756 4.04 2.581l19.643-13c1.752-1.156 1.758-4.006 0-5.162Z"/></g><defs><clipPath id="coa"><path fill="#fff" d="M0 0h25v32H0z"/></clipPath></defs></symbol><symbol viewBox="0 0 80 80" id="play-circle" xmlns="http://www.w3.org/2000/svg"><path d="M40 1.25C18.594 1.25 1.25 18.594 1.25 40S18.594 78.75 40 78.75 78.75 61.406 78.75 40 61.406 1.25 40 1.25Zm18.078 42.5-27.5 15.781C28.11 60.906 25 59.141 25 56.25v-32.5c0-2.875 3.094-4.656 5.578-3.281l27.5 16.718c2.563 1.438 2.563 5.141 0 6.563Z"/></symbol><symbol viewBox="0 0 24 32" id="playlist" xmlns="http://www.w3.org/2000/svg"><path d="M16 0v8h8l-8-8Zm-2 8V0H3a3 3 0 0 0-3 3v26a3 3 0 0 0 3 3h18a3 3 0 0 0 3-3V10h-7.944C14.894 10 14 9.106 14 8Zm0 16a2 2 0 0 1-2 2H6a2 2 0 0 1-2-2v-6a2 2 0 0 1 2-2h6a2 2 0 0 1 2 2v6Zm6-6.194V24.2a1 1 0 0 1-1.53.848L16 23.5v-5l2.47-1.544a1 1 0 0 1 1.53.85Z"/></symbol><symbol viewBox="0 0 40 32" id="preview-closed" xmlns="http://www.w3.org/2000/svg"><path fill-rule="evenodd" clip-rule="evenodd" d="M35.077 3.035a1.713 1.713 0 0 0 0-2.514 1.948 1.948 0 0 0-2.652 0l-2.868 2.72C26.871 1.664 23.676.592 20.001.592c-5.612 0-10.105 2.501-13.374 5.472-3.25 2.947-5.423 6.417-6.456 8.902a2.126 2.126 0 0 0 0 1.67c1.002 2.35 3.073 5.683 6.16 8.624l-3.907 3.704a1.713 1.713 0 0 0 0 2.514c.732.695 1.92.695 2.652 0L35.077 3.035ZM11.272 20.576l2.516-2.385a6.454 6.454 0 0 1-.426-2.959c.111-1.147.351-1.822 1.014-2.788.565-.822 1.038-1.2 1.875-1.777 1.097-.758 1.817-1.225 3.166-1.356a6.856 6.856 0 0 1 3.217.493l2.515-2.385a10.122 10.122 0 0 0-5.148-1.394c-5.521 0-10 4.38-10 9.777 0 1.734.461 3.362 1.271 4.774Zm18.308-7.589 5.508-5.222c2.312 2.512 3.905 5.182 4.74 7.202.23.537.23 1.134 0 1.67-1.028 2.425-3.201 5.895-6.452 8.902-3.27 2.975-7.764 5.473-13.375 5.473a18.43 18.43 0 0 1-7.672-1.669l4.5-4.265c.996.326 2.063.502 3.172.502 5.52 0 10-4.38 10-9.777a9.57 9.57 0 0 0-.42-2.816ZM20 22.321c-.086 0-.173-.002-.26-.005l6.928-6.567v.053c0 3.6-2.986 6.519-6.667 6.519Z"/></symbol><symbol viewBox="0 0 33 32" id="profile" xmlns="http://www.w3.org/2000/svg"><path d="M15.823 16c-4.158 0-7.529-3.581-7.529-8 0-4.419 3.37-8 7.53-8 4.158 0 7.529 3.581 7.529 8 0 4.419-3.37 8-7.53 8Zm2.689 3C24.306 19 29 23.988 29 30.144 29 31.169 28.218 32 27.253 32H4.394c-.965 0-1.747-.831-1.747-1.856C2.647 23.988 7.341 19 13.135 19h5.377Z"/></symbol><symbol fill="none" viewBox="0 0 16 15" id="quotation" xmlns="http://www.w3.org/2000/svg"><path d="M4.103.75h7.203a4.103 4.103 0 0 1 4.103 4.102v3.735a4.103 4.103 0 0 1-4.103 4.103H3.082c-1.306 0-2.33.61-3.082 1.56V4.799A4.103 4.103 0 0 1 4.103.75Z" fill="#4A4A4A"/><g clip-path="url(#csa)"><path d="M8.115 10.017v-2.59c0-2 1.033-3.354 2.485-3.718l.276.754c-.673.321-1.105 1.1-1.105 1.874l1.106.175v3.505H8.115Zm-3.877 0v-2.59c0-2 1.037-3.354 2.49-3.718l.275.754c-.673.321-1.105 1.1-1.105 1.874l1.101.175v3.505H4.238Z" fill="#fff"/></g><defs><clipPath id="csa"><path fill="#fff" transform="rotate(180 5.439 5.534)" d="M0 0h6.639v8.41H0z"/></clipPath></defs></symbol><symbol fill="none" viewBox="0 0 60 14" id="r7-estudio" xmlns="http://www.w3.org/2000/svg"><g clip-path="url(#cta)" fill-rule="evenodd" clip-rule="evenodd" fill="#4A4A4A"><path d="M4.685 4.39h-.7v2.08h.679c.836 0 1.254-.353 1.254-1.057 0-.682-.41-1.023-1.231-1.023"/><path d="m13.115 4.31-2.656 5.913H8.346l2.78-5.913H8.2V2.683h4.916V4.31Zm-7.378 5.913L3.985 7.78v2.442H2.144v-7.54h2.384c.64 0 1.125.037 1.452.113.328.075.617.218.865.43.617.512.927 1.201.927 2.068 0 .625-.17 1.151-.509 1.577-.339.426-.795.688-1.367.786l2.045 2.566H5.738ZM11.195.538H4.063A4.064 4.064 0 0 0 0 4.55v9.363c.744-.94 1.76-1.546 3.052-1.546h8.143a4.063 4.063 0 0 0 4.063-4.063V4.602A4.063 4.063 0 0 0 11.195.538Zm12.309 8.543c-.204.309-.45.589-.731.832-.3.26-.64.47-1.008.62-.386.159-.8.239-1.217.236-.385 0-.73-.067-1.032-.202a1.6 1.6 0 0 1-.712-.605c-.172-.268-.258-.59-.258-.967 0-.745.204-1.515.612-2.309a5.687 5.687 0 0 1 1.67-1.98c.706-.526 1.477-.789 2.314-.789.394 0 .714.085.958.255.245.17.367.415.367.734 0 .479-.197.919-.59 1.32-.395.4-.89.744-1.484 1.028-.595.284-1.216.51-1.863.679a5.312 5.312 0 0 0-.075.859c0 .442.084.757.252.942.168.187.412.28.731.28.266 0 .565-.083.899-.248.334-.166.654-.427.961-.783l.206.098Zm-.641-4.93c-.253 0-.535.172-.846.515-.311.344-.6.79-.865 1.339a7.246 7.246 0 0 0-.579 1.694c.593-.258 1.06-.538 1.4-.84.332-.293.604-.645.803-1.038.195-.39.295-.819.292-1.253 0-.155-.017-.264-.05-.325a.167.167 0 0 0-.155-.092Zm2.569 6.262c.124.062.288.092.49.092.32 0 .579-.096.775-.288.198-.193.296-.457.296-.792a2.18 2.18 0 0 0-.174-.826 5.847 5.847 0 0 0-.535-.973 52.76 52.76 0 0 1-.299-.452 3.324 3.324 0 0 1-.37-.724 2.065 2.065 0 0 1-.121-.685c0-.36.093-.68.276-.958.186-.278.452-.496.8-.653.349-.158.763-.237 1.244-.237.547 0 1.007.1 1.378.298.371.199.556.535.556 1.01 0 .143-.028.287-.086.43a.86.86 0 0 1-.265.356.663.663 0 0 1-.425.14.625.625 0 0 1-.51-.235c-.13-.158-.194-.36-.194-.605 0-.205.038-.399.115-.58.077-.183.172-.337.284-.464a.88.88 0 0 0-.449-.104c-.306 0-.548.094-.724.282-.177.188-.267.452-.27.792 0 .217.044.42.133.611.09.19.2.387.333.59.133.202.232.355.298.457.27.442.463.806.579 1.09.116.284.174.57.174.856.005.351-.097.695-.292.989-.195.29-.474.52-.837.687-.363.168-.785.252-1.265.252-.606 0-1.108-.116-1.506-.347-.398-.231-.597-.603-.597-1.114 0-.25.063-.463.19-.639a.612.612 0 0 1 .525-.264c.224 0 .401.092.532.277.13.184.196.417.196.7 0 .168-.021.325-.063.472a4.04 4.04 0 0 1-.12.372c-.04.1-.064.162-.072.187Zm6.488-.89a.948.948 0 0 0-.038.252c0 .249.127.374.38.374.187 0 .367-.09.541-.27.175-.18.33-.45.467-.81l.192-.516h.243l-.255.73c-.34.99-.979 1.486-1.916 1.486-.43 0-.756-.111-.973-.334-.218-.224-.327-.528-.327-.912 0-.217.04-.469.118-.755l1.282-4.39h-1.157l.068-.252h1.163l.554-1.91c.734-.012 1.35-.071 1.847-.177L33.5 4.126h1.437l-.037.252h-1.474L31.92 9.523Zm9.48-1.007-.348.958c-.158.462-.387.794-.687.994-.3.2-.655.306-1.018.301-.223 0-.417-.037-.581-.113a.788.788 0 0 1-.364-.317 1.053 1.053 0 0 1-.118-.515c0-.21.044-.481.13-.817l.336-1.283c-.327.79-.644 1.406-.948 1.848-.305.442-.615.752-.93.93a2.104 2.104 0 0 1-1.051.267c-.382 0-.67-.089-.862-.267-.193-.178-.29-.433-.29-.764 0-.25.056-.54.169-.872l1.238-3.709c.049-.155.074-.276.074-.362 0-.176-.08-.264-.243-.264-.136 0-.27.07-.398.212-.128.141-.263.402-.404.783l-.23.602h-.243l.318-.921c.302-.86.872-1.29 1.71-1.29.776 0 1.164.346 1.164 1.038 0 .258-.063.577-.187.958l-1.145 3.395a1.815 1.815 0 0 0-.112.534c0 .197.08.295.243.295.249 0 .547-.244.892-.73.347-.488.696-1.136 1.049-1.944.367-.85.68-1.72.939-2.607l.199-.767c.75-.012 1.366-.07 1.848-.172l-1.593 5.606c-.054.192-.081.331-.081.418 0 .138.075.208.224.208.158 0 .3-.074.43-.224.128-.15.256-.404.385-.765l.243-.644h.242Zm-3.302-5.581c.283-.392.548-.796.796-1.21.245-.409.425-.705.541-.887a2.9 2.9 0 0 1 .41-.506c.212-.221.442-.332.691-.332.178 0 .334.064.467.19.112.111.168.238.168.38 0 .226-.125.455-.374.689-.12.118-.256.23-.407.338-.151.106-.45.299-.896.58-.446.28-.867.573-1.265.88l-.131-.122ZM48.76 8.553l-.305.92c-.158.476-.387.81-.69 1.004a1.805 1.805 0 0 1-.995.292c-.528 0-.864-.194-1.009-.583a1.175 1.175 0 0 1-.099-.516c0-.258.052-.559.156-.902l.012-.056c-.323.713-.667 1.233-1.03 1.563a1.856 1.856 0 0 1-1.29.494c-.448 0-.813-.147-1.096-.442-.282-.294-.422-.734-.422-1.32 0-.675.178-1.414.534-2.216a5.711 5.711 0 0 1 1.506-2.039c.647-.556 1.382-.835 2.202-.835.398 0 .658.141.778.424l.572-2.137c.042-.151.063-.268.063-.35 0-.168-.067-.29-.2-.365-.132-.076-.354-.113-.665-.113l.08-.265c.535 0 1.067-.045 1.593-.135a7.977 7.977 0 0 0 1.388-.38l-2.501 8.927a1.193 1.193 0 0 0-.07.344c0 .188.084.282.25.282.128 0 .257-.072.383-.215.126-.143.258-.401.395-.773l.218-.609h.242Zm-1.835-3.905c-.083-.295-.253-.442-.51-.442-.361 0-.742.257-1.142.77-.4.514-.733 1.166-.998 1.956a7.31 7.31 0 0 0-.398 2.34c0 .294.032.512.096.653.064.141.169.212.314.212.166 0 .366-.122.597-.366.233-.243.473-.601.722-1.074.249-.473.474-1.03.678-1.673l.64-2.376Zm4.64-2.585c0-.25.057-.464.171-.641.115-.179.27-.315.467-.41.207-.095.434-.144.662-.14.303 0 .537.068.7.205.164.138.246.329.246.574 0 .221-.06.42-.177.596a1.198 1.198 0 0 1-.479.411c-.208.1-.437.15-.669.148-.29 0-.516-.067-.678-.2a.667.667 0 0 1-.242-.543Zm-.478 3.094c.053-.147.08-.274.08-.38 0-.164-.074-.246-.223-.246-.154 0-.295.077-.424.23-.128.154-.259.409-.392.765l-.254.638h-.243l.36-.958c.307-.859.897-1.289 1.768-1.289.394 0 .68.093.858.28.178.186.267.43.267.733 0 .234-.047.481-.143.743l-1.337 3.85c-.05.147-.075.268-.075.362 0 .176.085.264.255.264.129 0 .257-.07.386-.212.129-.14.267-.4.416-.776l.224-.609h.243l-.33.922c-.299.863-.871 1.295-1.717 1.295-.771 0-1.156-.345-1.156-1.037 0-.283.061-.604.185-.964l1.252-3.61Zm2.481 3.537c0-.692.159-1.41.476-2.152a4.774 4.774 0 0 1 1.413-1.87c.624-.503 1.369-.755 2.236-.755.663 0 1.173.176 1.53.528.357.352.535.866.535 1.541 0 .692-.158 1.41-.476 2.152a4.787 4.787 0 0 1-1.415 1.873c-.627.506-1.373.758-2.24.758-.659 0-1.167-.177-1.523-.53-.357-.355-.535-.87-.535-1.545Zm4.063-4.531c-.32 0-.665.298-1.036.893-.371.596-.684 1.326-.94 2.192-.254.866-.382 1.669-.382 2.41 0 .303.035.522.106.657.07.135.18.202.33.202.31 0 .65-.289 1.02-.868.369-.58.681-1.298.936-2.155.255-.858.382-1.673.382-2.447 0-.332-.033-.562-.102-.69a.334.334 0 0 0-.315-.194Z"/></g><defs><clipPath id="cta"><path fill="#fff" d="M0 0h60v14H0z"/></clipPath></defs></symbol><symbol viewBox="0 0 32 32" id="read" xmlns="http://www.w3.org/2000/svg"><path d="M0 13.7v13.281c0 .89.726 1.64 1.656 1.688 3.051.156 9.606.787 13.344 3.325V15.325C11.338 12.844 5 12.175 1.865 12 .849 11.944 0 12.725 0 13.7ZM30.137 12c-3.13.178-9.456.842-13.068 3.318-.063.007-.069.013-.069.026V32c3.753-2.524 10.294-3.172 13.344-3.33.931-.051 1.656-.801 1.656-1.689V13.7c0-.975-.85-1.756-1.863-1.7ZM22 6c0-3.313-2.688-6-6-6-3.313 0-6 2.688-6 6 0 3.313 2.688 6 6 6 3.313 0 6-2.688 6-6Z"/></symbol><symbol viewBox="0 0 70 71" id="record" xmlns="http://www.w3.org/2000/svg"><mask id="cva" style="mask-type:luminance" maskUnits="userSpaceOnUse" x="11" y="0" width="57" height="31"><path fill-rule="evenodd" clip-rule="evenodd" d="M11.117.161h55.982v29.84H11.117V.16Z" fill="#fff"/></mask><g mask="url(#cva)"><path fill-rule="evenodd" clip-rule="evenodd" d="M11.117 9.343S19.073.242 34.52.162C48.547.09 60.84 8.475 66.71 21.006c0 0 1.38 3.546-1.062 6.854-2.444 3.31-5.241 2.719-8.788-1.34-3.545-4.057-8.28-9.795-17.572-14.695C29.95 6.899 17.065 4.85 11.117 9.343Z"/></g><mask id="cvb" style="mask-type:luminance" maskUnits="userSpaceOnUse" x="0" y="12" width="26" height="58"><path fill-rule="evenodd" clip-rule="evenodd" d="M0 12.173h25.89v57.02H0v-57.02Z" fill="#fff"/></mask><g mask="url(#cvb)"><path fill-rule="evenodd" clip-rule="evenodd" d="M7.69 13.952s1.653-1.892 6.303-1.774c4.648.117 4.255 4.611 3.15 7.963-.55 1.672-3.94 11.657-3.94 19.66 0 10.282 3.274 24.427 12.688 29.391 0 0-24.939-5.438-25.886-33.137 0 0-.474-12.134 7.684-22.103Z"/></g><path fill-rule="evenodd" clip-rule="evenodd" d="M10.326 12.339s1.618-4.14 10.996-3.983c9.377.16 17.336 4.414 22.772 8.078 5.438 3.667 10.561 9.929 10.561 9.929s3.662 5.122 7.486 4.611c3.822-.513 4.846-4.69 5.082-6.463 0 0 .708 1.617.552 3.428-.157 1.812-.67 4.846-3.663 9.614-2.996 4.768-14.831 17.692-31.694 20.254 0 0-5.383.471-7.353 1.968-1.284.975-3.349 2.6-.12 7.29 0 0-10.243-6.935-10.4-27.03 0 0-.088-8.07 3.27-17.178C21.52 12.81 16.032 12.06 16.032 12.06s-2.237-.716-5.705.278Z"/><mask id="cvc" style="mask-type:luminance" maskUnits="userSpaceOnUse" x="23" y="26" width="47" height="45"><path fill-rule="evenodd" clip-rule="evenodd" d="M23.88 26.6h46.017v43.468H23.88V26.6Z" fill="#fff"/></mask><g mask="url(#cvc)"><path fill-rule="evenodd" clip-rule="evenodd" d="M68.95 26.6c.466 3.694-.505 12.924-17.664 25.354 0 0-8.57 6.48-20.312 7.348-8.826.654-7.565 5.123-5.91 7.41 2.072 2.86 9.89 4.804 19.602 1.969 9.858-2.88 16.669-8.638 20.785-16.036C71.532 41.71 69.924 30.777 68.95 26.6Z"/></g></symbol><symbol viewBox="0 0 30 32" id="regula" xmlns="http://www.w3.org/2000/svg"><g clip-path="url(#cwa)"><path d="M28.413 4.121 25.016.88A3.22 3.22 0 0 0 22.793 0h-11.27C9.789 0 8.382 1.343 8.382 3v3H3.143C1.407 6 0 7.343 0 9v20c0 1.657 1.407 3 3.143 3h14.666c1.736 0 3.143-1.343 3.143-3v-3h5.238c1.736 0 3.143-1.343 3.143-3V6.243c0-.796-.33-1.56-.92-2.122ZM17.417 29H3.536a.403.403 0 0 1-.278-.11.367.367 0 0 1-.115-.265V9.375c0-.1.041-.195.115-.265A.403.403 0 0 1 3.536 9H8.38v14c0 1.657 1.407 3 3.143 3h6.286v2.625c0 .1-.042.195-.115.265a.403.403 0 0 1-.278.11Zm8.38-6h-13.88a.403.403 0 0 1-.278-.11.367.367 0 0 1-.115-.265V3.375c0-.1.041-.195.115-.265a.403.403 0 0 1 .278-.11h6.94v5.5c0 .828.704 1.5 1.572 1.5h5.762v12.625c0 .1-.042.195-.116.265a.403.403 0 0 1-.277.11Zm.393-16H22V3h.63c.105 0 .205.04.279.11l3.166 3.023a.374.374 0 0 1 .116.265V7Z"/></g><defs><clipPath id="cwa"><path fill="#fff" d="M0 0h29.333v32H0z"/></clipPath></defs></symbol><symbol viewBox="0 0 32 32" id="restore" xmlns="http://www.w3.org/2000/svg"><g clip-path="url(#cya)"><path fill-rule="evenodd" clip-rule="evenodd" d="M2.739 18.532a1.562 1.562 0 0 0-1.105 1.913c2.208 8.239 10.676 13.128 18.915 10.92 8.24-2.207 13.129-10.675 10.92-18.914C29.263 4.21 20.795-.678 12.556 1.53 7.025 3.011 2.879 7.28 1.512 12.49a1.562 1.562 0 0 0 3.021.793c1.081-4.12 4.378-7.544 8.83-8.737 6.573-1.761 13.329 2.14 15.09 8.712 1.761 6.573-2.14 13.328-8.712 15.09-6.573 1.76-13.329-2.14-15.09-8.712a1.562 1.562 0 0 0-1.912-1.105Z"/><path fill-rule="evenodd" clip-rule="evenodd" d="M1.158 5.931A1.562 1.562 0 0 0 .054 7.844l1.46 5.447a1.562 1.562 0 0 0 1.912 1.105l4.61-1.236a1.562 1.562 0 0 0-.809-3.017l-3.1.831L3.07 7.035a1.562 1.562 0 0 0-1.913-1.104Z"/><path d="m18.599 21.12-9.94.156a.868.868 0 0 1-.883-.854l-.018-1.16a.868.868 0 0 1 .853-.881l7.896-.143-.106-7.897a.868.868 0 0 1 .854-.88l1.16-.018a.868.868 0 0 1 .882.855l.156 9.94a.868.868 0 0 1-.854.882Z"/></g><defs><clipPath id="cya"><path fill="#fff" transform="rotate(180 16 16)" d="M0 0h32v32H0z"/></clipPath></defs></symbol><symbol viewBox="0 0 28 32" id="restore-1" xmlns="http://www.w3.org/2000/svg"><g clip-path="url(#cxa)"><path d="M10.238 0h7.524c.757 0 1.45.425 1.788 1.106L20 2h6c1.106 0 2 .894 2 2 0 1.106-.894 2-2 2H2C.894 6 0 5.106 0 4c0-1.106.894-2 2-2h6l.45-.894A1.992 1.992 0 0 1 10.238 0ZM2 8h24l-1.325 21.188A3.002 3.002 0 0 1 21.681 32H6.32a3.002 3.002 0 0 1-2.994-2.813L2 8Zm12 4c-.4 0-.781.156-1.063.438l-5 5a1.5 1.5 0 0 0 2.119 2.119l2.438-2.438V25.5c0 .831.668 1.5 1.5 1.5.831 0 1.5-.669 1.5-1.5v-8.381l2.437 2.437a1.494 1.494 0 0 0 2.119 0 1.5 1.5 0 0 0 0-2.119l-5-5A1.499 1.499 0 0 0 13.987 12H14Z"/></g><defs><clipPath id="cxa"><path fill="#fff" d="M0 0h28v32H0z"/></clipPath></defs></symbol><symbol viewBox="0 0 24 25" id="rewind-10-seconds" xmlns="http://www.w3.org/2000/svg"><path fill-rule="evenodd" clip-rule="evenodd" d="M13.213 1.413C13.213.743 12.67.2 12 .2 5.373.2 0 5.573 0 12.2s5.373 12 12 12 12-5.373 12-12c0-4.449-2.37-8.418-6.005-10.492a1.213 1.213 0 1 0-1.203 2.108c2.874 1.64 4.781 4.802 4.781 8.384A9.573 9.573 0 1 1 12 2.627c.67 0 1.213-.543 1.213-1.214Z"/><path fill-rule="evenodd" clip-rule="evenodd" d="M22.989 2.762c0-.67-.544-1.214-1.214-1.214h-4.382c-.67 0-1.213.544-1.213 1.214V6.47a1.213 1.213 0 0 0 2.427 0V3.975h3.168c.67 0 1.214-.543 1.214-1.213Z"/><path d="M8.136 15.49a.82.82 0 1 0 1.64 0V9.406a.82.82 0 0 0-.82-.82h-.021c-.227 0-.464.054-.777.14L7.09 9.04a.735.735 0 0 0-.55.711c0 .389.334.712.723.712.086 0 .205-.021.291-.043l.582-.15v5.22ZM13.83 16.374c2.018 0 3.366-1.715 3.366-3.904v-.022c0-2.19-1.349-3.883-3.344-3.883-2.006 0-3.365 1.715-3.365 3.905v.021c0 2.19 1.326 3.883 3.343 3.883Zm.022-1.499c-1.003 0-1.661-1.025-1.661-2.405v-.022c0-1.38.647-2.384 1.64-2.384.992 0 1.66 1.036 1.66 2.406v.021c0 1.37-.636 2.384-1.64 2.384Z"/></symbol><symbol viewBox="0 0 32 32" id="satellite" xmlns="http://www.w3.org/2000/svg"><path d="M13.467 6.5c-.826 0-1.503.675-1.503 1.5s.673 1.5 1.503 1.5c4.972 0 9.016 4.036 9.016 9a1.502 1.502 0 0 0 3.005 0c0-6.62-5.39-12-12.021-12Zm.5-6.5a2 2 0 1 0 0 4c7.733 0 14.025 6.28 14.025 14 0 1.105.897 2 2.003 2A2.001 2.001 0 0 0 32 18c0-9.925-8.09-18-18.031-18ZM11.77 21.624l1.714-1.71c.164.039.317.094.489.094a2 2 0 1 0 0-4 2.006 2.006 0 0 0-2.003 2c0 .18.05.328.098.492l-1.719 1.712-7.314-7.306c-.454-.453-1.26-.375-1.51.187-2.613 4.868-1.87 11.044 2.24 15.15 4.107 4.1 10.304 4.843 15.175 2.234.571-.313.65-1.11.188-1.563l-7.358-7.29Z"/></symbol><symbol viewBox="0 0 32 32" id="scale" xmlns="http://www.w3.org/2000/svg"><path d="M0 2a2 2 0 0 1 2-2h8a2 2 0 0 1 2 2v24a6 6 0 0 1-12 0V2Zm8 2H4v4h4V4ZM4 16h4v-4H4v4Zm2 11.5c.831 0 1.5-.669 1.5-1.5s-.669-1.5-1.5-1.5c-.828 0-1.5.669-1.5 1.5s.672 1.5 1.5 1.5Zm8-1.5V9.625l4.712-4.71a2.003 2.003 0 0 1 2.832 0l5.656 5.654c.781.781.781 2.05 0 2.831L13.975 26.619c.019-.2.025-.413.025-.619Zm9.425-6H30c1.106 0 2 .894 2 2v8c0 1.106-.894 2-2 2H11.425l12-12Z"/></symbol><symbol viewBox="0 0 40 32" id="screen" xmlns="http://www.w3.org/2000/svg"><path d="M32 28H7.944C6.894 28 6 28.894 6 29.944 6 30.994 6.894 32 7.944 32h24C33.106 32 34 31.106 34 30c0-1.106-.894-2-2-2Zm5-28H3a3 3 0 0 0-3 3v20a3 3 0 0 0 3 3h34a3 3 0 0 0 3-3V3a3 3 0 0 0-3-3Zm-1 22H4V4h32v18Z"/></symbol><symbol viewBox="0 0 32 32" id="search" xmlns="http://www.w3.org/2000/svg"><g clip-path="url(#dda)"><path d="m31.563 27.669-6.232-6.232A1.499 1.499 0 0 0 24.27 21H23.25A12.936 12.936 0 0 0 26 13c0-7.181-5.819-13-13-13S0 5.819 0 13s5.819 13 13 13c3.019 0 5.794-1.025 8-2.75v1.019c0 .4.156.781.438 1.062l6.23 6.232a1.494 1.494 0 0 0 2.12 0l1.768-1.77a1.507 1.507 0 0 0 .006-2.124ZM13 21c-4.419 0-8-3.575-8-8 0-4.419 3.575-8 8-8 4.419 0 8 3.575 8 8 0 4.419-3.575 8-8 8Z"/></g><defs><clipPath id="dda"><path fill="#fff" d="M0 0h32v32H0z"/></clipPath></defs></symbol><symbol viewBox="0 0 12 12" id="share" xmlns="http://www.w3.org/2000/svg"><path d="M7.655 4.345a3.56 3.56 0 0 1 .008 5.03l-.008.008-1.575 1.575a3.566 3.566 0 0 1-5.038 0 3.566 3.566 0 0 1 0-5.038l.87-.87a.375.375 0 0 1 .64.249c.014.415.089.833.226 1.236a.377.377 0 0 1-.088.389l-.307.307c-.657.657-.678 1.726-.027 2.39a1.69 1.69 0 0 0 2.398.011L6.33 8.058a1.687 1.687 0 0 0-.242-2.588.376.376 0 0 1-.163-.295.934.934 0 0 1 .274-.699l.494-.493a.377.377 0 0 1 .482-.041c.172.12.333.255.481.403Zm3.303-3.303a3.566 3.566 0 0 0-5.038 0L4.345 2.617a3.56 3.56 0 0 0 .481 5.441c.15.105.353.089.482-.04l.494-.494a.934.934 0 0 0 .274-.699.376.376 0 0 0-.163-.295 1.687 1.687 0 0 1-.242-2.587l1.575-1.575a1.69 1.69 0 0 1 2.398.012c.65.663.63 1.732-.027 2.39l-.307.306a.377.377 0 0 0-.088.39c.137.402.212.82.227 1.235.012.326.409.48.64.249l.87-.87a3.566 3.566 0 0 0 0-5.038Z"/></symbol><symbol viewBox="0 0 32 32" id="slider" xmlns="http://www.w3.org/2000/svg"><path d="M0 26c0-1.106.896-2 2-2h3.416A4.996 4.996 0 0 1 10 21c2.05 0 3.756 1.231 4.581 3H30c1.106 0 2 .894 2 2 0 1.106-.894 2-2 2H14.581c-.825 1.769-2.531 3-4.581 3a4.996 4.996 0 0 1-4.584-3H2c-1.104 0-2-.894-2-2Zm12 0c0-1.106-.894-2-2-2-1.106 0-2 .894-2 2 0 1.106.894 2 2 2 1.106 0 2-.894 2-2Zm10-15c2.05 0 3.756 1.231 4.581 3H30c1.106 0 2 .894 2 2 0 1.106-.894 2-2 2h-3.419c-.825 1.769-2.531 3-4.581 3a4.99 4.99 0 0 1-4.581-3H2a1.999 1.999 0 1 1 0-4h15.419A4.99 4.99 0 0 1 22 11Zm2 5c0-1.106-.894-2-2-2-1.106 0-2 .894-2 2 0 1.106.894 2 2 2 1.106 0 2-.894 2-2Zm6-12c1.106 0 2 .896 2 2 0 1.106-.894 2-2 2H16.581c-.825 1.769-2.531 3-4.581 3a4.99 4.99 0 0 1-4.581-3H2a1.999 1.999 0 1 1 0-4h5.419A4.995 4.995 0 0 1 12 1c2.05 0 3.756 1.234 4.581 3H30ZM10 6c0 1.106.894 2 2 2a2 2 0 1 0-2-2Z"/></symbol><symbol viewBox="0 0 27 33" id="start" xmlns="http://www.w3.org/2000/svg"><g clip-path="url(#dga)"><path d="M23.683 13.417 4.04.41C2.444-.646 0 .379 0 2.99v26.007c0 2.344 2.271 3.756 4.04 2.581l19.643-13c1.752-1.156 1.758-4.006 0-5.162Z"/><path fill-rule="evenodd" clip-rule="evenodd" d="M25 0a2 2 0 0 1 2 2v28a2 2 0 1 1-4 0V2a2 2 0 0 1 2-2Z"/></g><defs><clipPath id="dga"><path fill="#fff" d="M0 0h27v33H0z"/></clipPath></defs></symbol><symbol viewBox="0 0 16 16" id="success" xmlns="http://www.w3.org/2000/svg"><path fill-rule="evenodd" clip-rule="evenodd" d="M8 14A6 6 0 1 0 8 2a6 6 0 0 0 0 12Zm3.758-7.275-4.452 4.452a.387.387 0 0 1-.547 0L4.242 8.66a.387.387 0 0 1 0-.548l.548-.547a.387.387 0 0 1 .547 0L7.032 9.26l3.63-3.63a.387.387 0 0 1 .548 0l.548.547a.387.387 0 0 1 0 .547Z"/></symbol><symbol viewBox="0 0 33 32" id="support" xmlns="http://www.w3.org/2000/svg"><path d="M16 3C8.819 3 3 8.819 3 16v2.5c0 .831-.669 1.5-1.5 1.5S0 19.331 0 18.5V16C0 7.162 7.162 0 16 0c8.837 0 16 7.162 16 16v9.006c0 3.038-2.462 5.5-5.506 5.5L19.6 30.5A3.005 3.005 0 0 1 17 32h-2a3 3 0 0 1 0-6h2c1.113 0 2.081.606 2.6 1.5l6.9.006a2.5 2.5 0 0 0 2.5-2.5V16c0-7.181-5.819-13-13-13ZM9 13h1c1.106 0 2 .894 2 2v7c0 1.106-.894 2-2 2H9c-2.206 0-4-1.794-4-4v-3c0-2.206 1.794-4 4-4Zm14 0c2.206 0 4 1.794 4 4v3c0 2.206-1.794 4-4 4h-1c-1.106 0-2-.894-2-2v-7c0-1.106.894-2 2-2h1Z"/></symbol><symbol viewBox="0 0 33 32" id="theme" xmlns="http://www.w3.org/2000/svg"><path d="M32 16v.169C31.975 18.45 29.9 20 27.619 20H21.5a3 3 0 0 0-2.938 3.619c.132.637.407 1.25.675 1.869.382.862.757 1.718.757 2.625 0 1.987-1.35 3.793-3.338 3.875-.218.006-.437.012-.662.012C7.162 32 0 24.837 0 16 0 7.162 7.162 0 16 0c8.837 0 16 7.162 16 16ZM8 18c0-1.106-.894-2-2-2-1.106 0-2 .894-2 2 0 1.106.894 2 2 2 1.106 0 2-.894 2-2Zm0-6c1.106 0 2-.894 2-2 0-1.106-.894-2-2-2-1.106 0-2 .894-2 2 0 1.106.894 2 2 2Zm10-6c0-1.106-.894-2-2-2-1.106 0-2 .894-2 2 0 1.106.894 2 2 2 1.106 0 2-.894 2-2Zm6 6c1.106 0 2-.894 2-2 0-1.106-.894-2-2-2-1.106 0-2 .894-2 2 0 1.106.894 2 2 2Z"/></symbol><symbol fill="none" viewBox="0 0 32 32" id="thunder" xmlns="http://www.w3.org/2000/svg"><path fill-rule="evenodd" clip-rule="evenodd" d="M8.52 0C3.852 0 .06 4.285 0 9.596V32c1.56-2.252 3.689-3.7 6.4-3.7h17.08c4.706 0 8.52-4.353 8.52-9.723V9.724C32 4.353 28.186 0 23.48 0H8.52Z" fill="#4A4A4A"/><path d="M11.637 6.095h8.769l-3.524 7.297h3.524L14.259 24.38v-8.242h-2.622V6.095Z" fill="#fff"/></symbol><symbol viewBox="0 0 27 27" id="tiktok" xmlns="http://www.w3.org/2000/svg"><path d="M24.546 0H2.454A2.454 2.454 0 0 0 0 2.455v22.09A2.454 2.454 0 0 0 2.455 27h22.09A2.454 2.454 0 0 0 27 24.546V2.454C27 1.098 25.9 0 24.546 0Zm-1.61 11.627c-.159.015-.32.025-.482.025a5.241 5.241 0 0 1-4.386-2.37v8.072a5.966 5.966 0 1 1-5.966-5.967c.125 0 .247.01.368.018v2.94c-.122-.014-.242-.036-.368-.036a3.045 3.045 0 0 0 0 6.09c1.683 0 3.168-1.326 3.168-3.007l.03-13.709h2.808a5.238 5.238 0 0 0 4.828 4.677v3.267Z"/></symbol><symbol viewBox="0 0 33 32" id="tools" xmlns="http://www.w3.org/2000/svg"><path d="M20.737 14.006c1.769 0 3.43.687 4.68 1.936l1.223 1.224c2.501-1.108 4.454-3.33 5.102-6.04a9.11 9.11 0 0 0 .013-4.275c-.163-.68-1.027-.907-1.521-.413l-4.306 4.306h-4.725V6.075l4.306-4.306c.494-.495.267-1.358-.413-1.521a9.11 9.11 0 0 0-4.275.013c-3.456.827-6.15 3.764-6.7 7.275a8.254 8.254 0 0 0-.102 1.527l5.173 5.178a4.759 4.759 0 0 1 1.545-.235ZM24 17.413c-1.448-1.448-3.598-1.724-5.337-.87l-6.72-6.668V6L4 0 0 3.944l6 7.944h3.877l6.67 6.662c-.855 1.74-.579 3.89.869 5.337l7.312 7.32a2.336 2.336 0 0 0 3.294-.001l3.297-3.297a2.336 2.336 0 0 0 0-3.294L24 17.413Zm-9.756 1.774-3.7-3.693L1.238 24.8A4.217 4.217 0 1 0 7.2 30.764l7.444-7.444c-.551-1.301-.732-2.733-.401-4.133ZM4 29.5a1.5 1.5 0 1 1 0-3 1.5 1.5 0 0 1 0 3Z"/></symbol><symbol viewBox="0 0 28 32" id="trash" xmlns="http://www.w3.org/2000/svg"><g clip-path="url(#dna)"><path d="M8.45 1.106A1.998 1.998 0 0 1 10.238 0h7.524c.757 0 1.45.428 1.788 1.106L20 2h6a1.999 1.999 0 1 1 0 4H2a2 2 0 0 1 0-4h6l.45-.894ZM24.675 29.13C24.575 30.77 23.269 32 21.681 32H6.32c-1.585 0-2.896-1.231-2.995-2.869L1.944 8H26l-1.325 21.131Z"/></g><defs><clipPath id="dna"><path fill="#fff" d="M0 0h28v32H0z"/></clipPath></defs></symbol><symbol viewBox="0 0 1200 1227" id="twitter" xmlns="http://www.w3.org/2000/svg"><path xmlns="http://www.w3.org/2000/svg" d="M714.163 519.284 1160.89 0h-105.86L667.137 450.887 357.328 0H0l468.492 681.821L0 1226.37h105.866l409.625-476.152 327.181 476.152H1200L714.137 519.284h.026ZM569.165 687.828l-47.468-67.894-377.686-540.24h162.604l304.797 435.991 47.468 67.894 396.2 566.721H892.476L569.165 687.854v-.026Z"/></symbol><symbol viewBox="0 0 32 32" id="upload" xmlns="http://www.w3.org/2000/svg"><g clip-path="url(#dpa)"><path d="M18.5 23.999h-5c-.831 0-1.5-.669-1.5-1.5V11.997H6.519c-1.113 0-1.669-1.344-.881-2.131L15.143.352a1.21 1.21 0 0 1 1.706 0l9.512 9.514c.788.787.232 2.131-.88 2.131H20V22.5c0 .831-.669 1.5-1.5 1.5Zm13.5-.5v7c0 .832-.669 1.501-1.5 1.501h-29C.669 32 0 31.331 0 30.5v-7.001c0-.832.669-1.5 1.5-1.5H10v.5c0 1.931 1.569 3.5 3.5 3.5h5c1.931 0 3.5-1.569 3.5-3.5v-.5h8.5c.831 0 1.5.668 1.5 1.5Zm-7.75 5.5c0-.687-.563-1.25-1.25-1.25-.688 0-1.25.563-1.25 1.25 0 .688.563 1.25 1.25 1.25.688 0 1.25-.562 1.25-1.25Zm4 0c0-.687-.563-1.25-1.25-1.25-.688 0-1.25.563-1.25 1.25 0 .688.563 1.25 1.25 1.25.688 0 1.25-.562 1.25-1.25Z"/></g><defs><clipPath id="dpa"><path fill="#fff" d="M0 0h32v32H0z"/></clipPath></defs></symbol><symbol viewBox="0 0 28 32" id="user-austronaut" xmlns="http://www.w3.org/2000/svg"><g clip-path="url(#dqa)"><path d="M23.169 6.006A9.988 9.988 0 0 0 14 0a9.988 9.988 0 0 0-9.169 6.006A2.001 2.001 0 0 0 3 8v4c0 1.05.806 1.906 1.831 1.994A9.988 9.988 0 0 0 14 20a9.988 9.988 0 0 0 9.169-6.006A2.001 2.001 0 0 0 25 12V8c0-1.05-.806-1.906-1.831-1.994ZM21 9v1c0 3.313-2.688 6-6 6h-2c-3.313 0-6-2.688-6-6V9a3 3 0 0 1 3-3h8a3 3 0 0 1 3 3Zm-9.169 1.169-.375-1.325A.469.469 0 0 0 11 8.5c-.213 0-.4.137-.456.344l-.375 1.325-1.325.375A.469.469 0 0 0 8.5 11c0 .213.137.4.344.456l1.325.375.375 1.325A.469.469 0 0 0 11 13.5c.213 0 .4-.137.456-.344l.375-1.325 1.325-.375A.469.469 0 0 0 13.5 11c0-.213-.137-.4-.344-.456l-1.325-.375ZM7.044 19.78C2.919 21.413 0 25.438 0 30.144 0 31.169.831 32 1.856 32H8v-4c0-1.106.894-2 2-2h8c1.106 0 2 .894 2 2v4h6.144A1.857 1.857 0 0 0 28 30.144c0-4.706-2.919-8.731-7.044-10.363A11.975 11.975 0 0 1 14 22c-2.594 0-4.994-.825-6.956-2.219ZM11 28c-.55 0-1 .45-1 1v3h2v-3c0-.55-.45-1-1-1Zm6 2c.55 0 1-.45 1-1s-.45-1-1-1-1 .45-1 1 .45 1 1 1Z"/></g><defs><clipPath id="dqa"><path fill="#fff" d="M0 0h28v32H0z"/></clipPath></defs></symbol><symbol viewBox="0 0 45 32" id="video" xmlns="http://www.w3.org/2000/svg"><path d="M30 4v24c0 2.21-1.679 4-3.75 4H3.75C1.679 32 0 30.21 0 28V4c0-2.21 1.679-4 3.75-4h22.5C28.32 0 30 1.79 30 4Zm15 1.292V26.7c0 2.125-2.279 3.366-3.937 2.15L32.5 22.557V9.442l8.563-6.297C42.727 1.927 45 3.175 45 5.292Z"/></symbol><symbol viewBox="0 0 32 32" id="volume-mute" xmlns="http://www.w3.org/2000/svg"><g clip-path="url(#dsa)"><path d="M13.44 4.44 7.878 10H1.5A1.5 1.5 0 0 0 0 11.5v9A1.5 1.5 0 0 0 1.5 22h6.379l5.56 5.56c.94.939 2.561.279 2.561-1.061V5.5c0-1.341-1.623-1.999-2.56-1.06ZM28.851 16l2.853-2.852a1.009 1.009 0 0 0 0-1.427l-1.426-1.426a1.009 1.009 0 0 0-1.427 0L26 13.148l-2.852-2.853a1.009 1.009 0 0 0-1.427 0l-1.426 1.426a1.009 1.009 0 0 0 0 1.427L23.147 16l-2.851 2.852a1.009 1.009 0 0 0 0 1.426l1.426 1.426a1.009 1.009 0 0 0 1.426 0L26 18.852l2.852 2.853a1.009 1.009 0 0 0 1.427 0l1.426-1.426a1.009 1.009 0 0 0 0-1.427L28.853 16Z"/></g><defs><clipPath id="dsa"><path fill="#fff" d="M0 0h32v32H0z"/></clipPath></defs></symbol><symbol viewBox="0 0 36 32" id="volume-up" xmlns="http://www.w3.org/2000/svg"><path d="M13.44 4.44 7.878 10H1.5A1.5 1.5 0 0 0 0 11.5v9A1.5 1.5 0 0 0 1.5 22h6.379l5.56 5.56c.94.939 2.561.279 2.561-1.061V5.5c0-1.341-1.623-1.998-2.56-1.06Zm14.582-3.192a1.512 1.512 0 1 0-1.66 2.529A14.585 14.585 0 0 1 32.976 16c0 4.936-2.472 9.505-6.614 12.223a1.512 1.512 0 1 0 1.66 2.529A17.605 17.605 0 0 0 36 16a17.603 17.603 0 0 0-7.978-14.752ZM30 16a11.54 11.54 0 0 0-5.36-9.765 1.494 1.494 0 0 0-2.07.466 1.518 1.518 0 0 0 .462 2.085A8.529 8.529 0 0 1 27 16a8.529 8.529 0 0 1-3.968 7.214c-.699.446-.906 1.38-.463 2.085.407.647 1.32.946 2.07.466A11.54 11.54 0 0 0 30 16Zm-8.86-4.804a1.505 1.505 0 0 0-2.039.59c-.4.726-.135 1.638.59 2.038A2.493 2.493 0 0 1 21 16c0 .899-.501 1.733-1.308 2.176a1.501 1.501 0 0 0 1.448 2.628A5.496 5.496 0 0 0 24 16a5.493 5.493 0 0 0-2.86-4.803Z"/></symbol><symbol viewBox="0 0 16 16" id="waiting" xmlns="http://www.w3.org/2000/svg"><path d="M8 0c-.343 0-.571.229-.571.571V3.43c0 .342.228.571.571.571.343 0 .571-.229.571-.571V.57C8.571.23 8.343 0 8 0ZM3.143 2.343a.552.552 0 0 0-.8 0 .552.552 0 0 0 0 .8l2 2a.617.617 0 0 0 .4.171.617.617 0 0 0 .4-.171.552.552 0 0 0 0-.8l-2-2ZM4 8c0-.343-.229-.571-.571-.571H.57C.23 7.429 0 7.657 0 8c0 .343.229.572.571.572H3.43C3.77 8.572 4 8.343 4 8ZM4.343 10.8l-2 2a.552.552 0 0 0 0 .8.617.617 0 0 0 .4.172.617.617 0 0 0 .4-.172l2-2a.552.552 0 0 0 0-.8c-.229-.228-.572-.171-.8 0ZM8 12c-.343 0-.571.229-.571.571v2.858c0 .342.228.571.571.571.343 0 .571-.229.571-.571V12.57C8.571 12.23 8.343 12 8 12ZM11.657 10.8a.553.553 0 0 0-.8 0 .553.553 0 0 0 0 .8l2 2a.618.618 0 0 0 .4.171.617.617 0 0 0 .4-.171.552.552 0 0 0 0-.8l-2-2ZM15.429 7.429H12.57c-.342 0-.571.228-.571.571 0 .343.229.572.571.572h2.858c.342 0 .571-.229.571-.572 0-.343-.229-.571-.571-.571ZM11.257 5.314a.519.519 0 0 0 .4-.171l2-2a.552.552 0 0 0 0-.8.552.552 0 0 0-.8 0l-2 2a.553.553 0 0 0 0 .8c.057.114.229.171.4.171Z"/></symbol><symbol viewBox="0 0 32 37" id="whatsapp" xmlns="http://www.w3.org/2000/svg"><path d="M27.207 6.936c-2.993-3-6.978-4.65-11.214-4.65C7.25 2.286.136 9.4.136 18.143c0 2.793.728 5.521 2.114 7.928L0 34.287l8.407-2.207a15.809 15.809 0 0 0 7.579 1.928h.007C24.729 34.007 32 26.893 32 18.15c0-4.236-1.8-8.214-4.793-11.214Zm-11.214 24.4c-2.372 0-4.693-.636-6.714-1.836l-.479-.286-4.986 1.308 1.329-4.865-.314-.5a13.136 13.136 0 0 1-2.015-7.014C2.814 10.879 8.73 4.964 16 4.964c3.521 0 6.829 1.372 9.314 3.865 2.486 2.492 4.015 5.8 4.007 9.321 0 7.272-6.064 13.186-13.328 13.186Zm7.228-9.872c-.392-.2-2.342-1.157-2.707-1.285-.364-.136-.628-.2-.893.2-.264.4-1.021 1.285-1.257 1.557-.228.264-.464.3-.857.1-2.328-1.165-3.857-2.079-5.393-4.715-.407-.7.407-.65 1.165-2.164.128-.264.064-.493-.036-.693-.1-.2-.893-2.15-1.222-2.943-.321-.77-.65-.664-.892-.678-.229-.014-.493-.014-.758-.014-.264 0-.692.1-1.057.492-.364.4-1.385 1.358-1.385 3.308 0 1.95 1.421 3.835 1.614 4.1.2.264 2.793 4.264 6.771 5.985 2.515 1.086 3.5 1.179 4.757.993.765-.114 2.343-.957 2.672-1.886.328-.928.328-1.72.228-1.885-.092-.179-.357-.279-.75-.472Z"/></symbol><symbol viewBox="0 0 32 32" id="zoomin" xmlns="http://www.w3.org/2000/svg"><g clip-path="url(#dwa)"><path d="m31.563 27.669-6.232-6.232A1.499 1.499 0 0 0 24.27 21H23.25A12.936 12.936 0 0 0 26 13c0-7.181-5.819-13-13-13S0 5.819 0 13s5.819 13 13 13c3.019 0 5.794-1.025 8-2.75v1.019c0 .4.156.781.438 1.062l6.23 6.232a1.494 1.494 0 0 0 2.12 0l1.768-1.77a1.507 1.507 0 0 0 .006-2.124ZM13 21c-4.419 0-8-3.575-8-8 0-4.419 3.575-8 8-8 4.419 0 8 3.575 8 8 0 4.419-3.575 8-8 8Z"/><path d="M17.53 14.094h-3.436v3.436c0 .26-.21.47-.47.47h-1.248a.47.47 0 0 1-.47-.47v-3.436H8.47a.47.47 0 0 1-.47-.47v-1.248c0-.26.21-.47.47-.47h3.436V8.47c0-.26.21-.47.47-.47h1.248c.26 0 .47.21.47.47v3.436h3.436c.26 0 .47.21.47.47v1.248c0 .26-.21.47-.47.47Z"/></g><defs><clipPath id="dwa"><path fill="#fff" d="M0 0h32v32H0z"/></clipPath></defs></symbol></svg>