<svg xmlns="http://www.w3.org/2000/svg" width="29" height="32" viewBox="0 0 29 32" fill="#fff">
  <path 
    d="M0 11.25V3.5C0 2.66875 0.692634 2 1.55357 2H9.58036C10.0076 2 10.3571 2.3375 10.3571 2.75V5.25C10.3571 5.6625 10.0076 6 9.58036 6H4.14286V11.25C4.14286 11.6625 3.7933 12 3.36607 12H0.776786C0.349554 12 0 11.6625 0 11.25ZM18.6429 2.75V5.25C18.6429 5.6625 18.9924 6 19.4196 6H24.8571V11.25C24.8571 11.6625 25.2067 12 25.6339 12H28.2232C28.6504 12 29 11.6625 29 11.25V3.5C29 2.66875 28.3074 2 27.4464 2H19.4196C18.9924 2 18.6429 2.3375 18.6429 2.75ZM28.2232 20H25.6339C25.2067 20 24.8571 20.3375 24.8571 20.75V26H19.4196C18.9924 26 18.6429 26.3375 18.6429 26.75V29.25C18.6429 29.6625 18.9924 30 19.4196 30H27.4464C28.3074 30 29 29.3312 29 28.5V20.75C29 20.3375 28.6504 20 28.2232 20ZM10.3571 29.25V26.75C10.3571 26.3375 10.0076 26 9.58036 26H4.14286V20.75C4.14286 20.3375 3.7933 20 3.36607 20H0.776786C0.349554 20 0 20.3375 0 20.75V28.5C0 29.3312 0.692634 30 1.55357 30H9.58036C10.0076 30 10.3571 29.6625 10.3571 29.25Z" />
</svg>