<svg xmlns="http://www.w3.org/2000/svg" width="26" height="32" viewBox="0 0 26 32">
  <path
    d="M14.8563 2V3.2C19.0927 4.12687 22.2845 8.1625 22.2845 13V14.175C22.2845 17.1187 23.2884 19.95 25.099 22.15L25.5285 22.6688C26.016 23.2625 26.1378 24.1 25.8361 24.8188C25.5343 25.5375 24.8727 26 24.1415 26H1.85703C1.12582 26 0.462563 25.5375 0.162999 24.8188C-0.136564 24.1 -0.0167447 23.2625 0.469121 22.6688L0.89949 22.15C2.71243 19.95 3.71407 17.1187 3.71407 14.175V13C3.71407 8.1625 6.85362 4.12687 11.1422 3.2V2C11.1422 0.895625 11.9721 0 12.9993 0C14.0264 0 14.8563 0.895625 14.8563 2ZM12.9993 32C12.0127 32 11.0668 31.5812 10.3704 30.8312C9.674 30.0812 9.28519 29.0063 9.28519 28H16.7133C16.7133 29.0063 16.3245 30.0812 15.6281 30.8312C14.9317 31.5812 13.9336 32 12.9993 32Z" />
</svg>