<svg width="8" height="8" viewBox="0 0 8 8" xmlns="http://www.w3.org/2000/svg">
  <path d="M4.54688 3.89844C4.54688 3.83594 4.51563 3.76563 4.46876 3.71875L0.828126 0.078125C0.781251 0.03125 0.710938 0 0.648438 0C0.585938 0 0.515626 0.03125 0.468751 0.078125L0.0781251 0.46875C0.03125 0.515626 0 0.585938 0 0.648438C0 0.710939 0.03125 0.781251 0.0781251 0.828126L3.14844 3.89844L0.0781251 6.96876C0.03125 7.01563 0 7.08595 0 7.14845C0 7.21095 0.03125 7.28126 0.0781251 7.32813L0.468751 7.71876C0.515626 7.76563 0.585938 7.79688 0.648438 7.79688C0.710938 7.79688 0.781251 7.76563 0.828126 7.71876L4.46876 4.07813C4.51563 4.03125 4.54688 3.96094 4.54688 3.89844ZM7.54688 3.89844C7.54688 3.96094 7.51563 4.03125 7.46876 4.07813L3.82813 7.71876C3.78125 7.76563 3.71094 7.79688 3.64844 7.79688C3.58594 7.79688 3.51563 7.76563 3.46875 7.71876L3.07813 7.32813C3.03125 7.28126 3 7.21095 3 7.14845C3 7.08595 3.03125 7.01563 3.07813 6.96876L6.14844 3.89844L3.07813 0.828126C3.03125 0.781251 3 0.710939 3 0.648438C3 0.585938 3.03125 0.515626 3.07813 0.46875L3.46875 0.078125C3.51563 0.03125 3.58594 0 3.64844 0C3.71094 0 3.78125 0.03125 3.82813 0.078125L7.46876 3.71875C7.51563 3.76563 7.54688 3.83594 7.54688 3.89844Z"/>
</svg>
