<svg width="32" height="32" viewBox="0 0 32 32" xmlns="http://www.w3.org/2000/svg">
  <g clip-path="url(#clip0_416_23)">
    <path fill-rule="evenodd" clip-rule="evenodd"
      d="M16 3.40426C9.04048 3.40426 3.40425 9.04049 3.40425 16C3.40425 22.9595 9.04048 28.5957 16 28.5957C22.9595 28.5957 28.5957 22.9595 28.5957 16C28.5957 9.04049 22.9595 3.40426 16 3.40426ZM-1.39876e-06 16C-2.17155e-06 7.16037 7.16036 4.0789e-06 16 3.30611e-06C24.8396 6.25979e-07 32 7.16037 32 16C32 24.8396 24.8396 32 16 32C7.16036 32 -6.25979e-07 24.8396 -1.39876e-06 16Z" />
    <path fill-rule="evenodd" clip-rule="evenodd"
      d="M7.54009 19.6504C6.90195 19.0123 6.90194 17.9777 7.54007 17.3395L15.9563 8.92319L24.3725 17.3394C25.0106 17.9775 25.0106 19.0121 24.3725 19.6503C23.7343 20.2884 22.6997 20.2884 22.0616 19.6503L15.9563 13.545L9.85097 19.6504C9.21284 20.2885 8.17822 20.2885 7.54009 19.6504Z" />
  </g>
  <defs>
    <clipPath id="clip0_416_23">
      <rect width="32" height="32" fill="white" transform="translate(32 32) rotate(180)" />
    </clipPath>
  </defs>
</svg>