<svg width="33" height="32" viewBox="0 0 33 32" xmlns="http://www.w3.org/2000/svg">
  <path
    d="M26.9614 5.03909C20.9061 -1.01628 11.0937 -1.01628 5.03835 5.03909C-1.01702 11.0945 -1.01702 20.9068 5.03835 26.9622C11.0937 33.0175 20.9061 33.0175 26.9614 26.9622C33.0168 20.9068 33.0168 11.0945 26.9614 5.03909ZM7.15994 24.8406C2.27587 19.9565 2.27587 12.0448 7.15994 7.16068C12.044 2.2766 19.9558 2.2766 24.8399 7.16068C29.7239 12.0448 29.7239 19.9565 24.8399 24.8406C19.9558 29.7247 12.044 29.7247 7.15994 24.8406ZM23.2487 17.7509L17.7502 17.7509L17.7502 23.2494C17.7502 23.6649 17.4143 24.0008 16.9988 24.0008H15.001C14.5855 24.0008 14.2496 23.6649 14.2496 23.2494L14.2496 17.7509L8.75114 17.7509C8.33566 17.7509 7.99974 17.415 7.99974 16.9995L7.99974 15.0017C7.99974 14.5862 8.33566 14.2503 8.75113 14.2503L14.2496 14.2503V8.75187C14.2496 8.33639 14.5855 8.00047 15.001 8.00047H16.9988C17.4143 8.00047 17.7502 8.33639 17.7502 8.75187V14.2503L23.2487 14.2503C23.6641 14.2503 24.0001 14.5862 24.0001 15.0017V16.9995C24.0001 17.415 23.6641 17.7509 23.2487 17.7509Z" />
</svg>