<svg width="32" height="32" viewBox="0 0 32 32" xmlns="http://www.w3.org/2000/svg">
  <g clip-path="url(#clip0_414_71)">
    <path fill-rule="evenodd" clip-rule="evenodd"
      d="M16 28.5957C22.9595 28.5957 28.5957 22.9595 28.5957 16C28.5957 9.04048 22.9595 3.40425 16 3.40426C9.04049 3.40426 3.40426 9.04049 3.40425 16C3.40425 22.9595 9.04048 28.5957 16 28.5957ZM32 16C32 24.8396 24.8396 32 16 32C7.16037 32 -5.1519e-07 24.8396 0 16C5.1519e-07 7.16037 7.16037 7.72782e-07 16 0C24.8396 -7.72782e-07 32 7.16037 32 16Z" />
    <path fill-rule="evenodd" clip-rule="evenodd"
      d="M24.4599 12.3496C25.0981 12.9877 25.0981 14.0223 24.4599 14.6605L16.0437 23.0768L7.62754 14.6606C6.98941 14.0225 6.98941 12.9879 7.62754 12.3497C8.26567 11.7116 9.30029 11.7116 9.93842 12.3497L16.0437 18.455L22.149 12.3496C22.7872 11.7115 23.8218 11.7115 24.4599 12.3496Z" />
  </g>
  <defs>
    <clipPath id="clip0_414_71">
      <rect width="32" height="32" fill="white" />
    </clipPath>
  </defs>
</svg>