<svg width="32" height="32" viewBox="0 0 32 32" fill="#ffffff" xmlns="http://www.w3.org/2000/svg">
    <g clip-path="url(#clip0_1102_123)">
        <path
            d="M0 28C0 30.2062 1.79375 32 4 32H18C20.2062 32 22 30.2062 22 28V24H14C10.6875 24 8 21.3125 8 18V10H4C1.79375 10 0 11.7937 0 14V28ZM14 22H28C30.2062 22 32 20.2062 32 18V4C32 1.79375 30.2062 0 28 0H14C11.7937 0 10 1.79375 10 4V18C10 20.2062 11.7937 22 14 22Z" />
    </g>
    <defs>
        <clipPath id="clip0_1102_123">
            <rect width="32" height="32" fill="white" />
        </clipPath>
    </defs>
</svg>