<svg width="21" height="32" viewBox="0 0 21 32" xmlns="http://www.w3.org/2000/svg">
  <g clip-path="url(#clip0_23_101)">
    <path
      d="M14.4805 16L20.4505 9.74562C21.1832 8.97812 21.1832 7.73375 20.4505 6.96562L19.1237 5.57563C18.3911 4.80813 17.2033 4.80813 16.4701 5.57563L10.5 11.83L4.52991 5.57563C3.7973 4.80813 2.60949 4.80813 1.87628 5.57563L0.54946 6.96562C-0.183153 7.73312 -0.183153 8.9775 0.54946 9.74562L6.51955 16L0.54946 22.2544C-0.183153 23.0219 -0.183153 24.2662 0.54946 25.0344L1.87628 26.4244C2.60889 27.1919 3.7973 27.1919 4.52991 26.4244L10.5 20.17L16.4701 26.4244C17.2027 27.1919 18.3911 27.1919 19.1237 26.4244L20.4505 25.0344C21.1832 24.2669 21.1832 23.0225 20.4505 22.2544L14.4805 16Z" />
  </g>
  <defs>
    <clipPath id="clip0_23_101">
      <rect width="21" height="32" fill="white" />
    </clipPath>
  </defs>
</svg>