<svg xmlns="http://www.w3.org/2000/svg" width="32" height="32" viewBox="0 0 32 32">
  <path
    d="M29 4H3C1.34375 4 0 5.34375 0 7V25C0 26.6562 1.34375 28 3 28H29C30.6562 28 32 26.6562 32 25V7C32 5.34375 30.6562 4 29 4ZM28.625 25H3.375C3.16875 25 3 24.8312 3 24.625V7.375C3 7.16875 3.16875 7 3.375 7H28.625C28.8312 7 29 7.16875 29 7.375V24.625C29 24.8312 28.8312 25 28.625 25ZM15.4312 19.6437C15.5375 19.7937 15.525 19.9937 15.4 20.125C12.05 23.675 4.6 22.1313 4.6 15.8813C4.6 9.8 12.2063 8.4125 15.3813 11.5C15.5125 11.625 15.5375 11.7 15.4438 11.8562L14.35 13.7625C14.2313 13.9563 13.9625 14.0125 13.7812 13.8687C11.2312 11.8687 7.86875 12.9375 7.86875 15.8188C7.86875 18.8188 11.0563 20.225 13.6313 17.8563C13.8063 17.7 14.075 17.725 14.2063 17.9125L15.4312 19.6437ZM27.3312 19.6437C27.4375 19.7937 27.425 19.9937 27.3 20.125C23.95 23.6812 16.5 22.1313 16.5 15.8813C16.5 9.8 24.1063 8.4125 27.2812 11.5C27.4125 11.625 27.4375 11.7 27.3438 11.8562L26.25 13.7625C26.1313 13.9563 25.8625 14.0125 25.6812 13.8687C23.1313 11.8687 19.7687 12.9375 19.7687 15.8188C19.7687 18.8188 22.9562 20.225 25.5312 17.8563C25.7062 17.7 25.975 17.725 26.1063 17.9125L27.3312 19.6437Z" />
</svg>