<svg xmlns="http://www.w3.org/2000/svg" width="32" height="32" viewBox="0 0 32 32">
  <path
    d="M12.4969 17.9969H5.49687C4.15937 17.9969 3.49062 19.6094 4.43437 20.5594L6.49062 22.4969L0.290625 28.7031C-0.096875 29.0906 -0.096875 29.7281 0.290625 30.1156L1.87813 31.7031C2.26562 32.0906 2.90313 32.0906 3.29063 31.7031L9.49687 25.4969L11.4406 27.5594C12.3844 28.5031 13.9969 27.8344 13.9969 26.4969V19.4969C13.9969 18.6656 13.3281 17.9969 12.4969 17.9969ZM19.4969 13.9969H26.4969C27.8344 13.9969 28.5031 12.3781 27.5594 11.4344L25.4969 9.49687L31.7031 3.29063C32.0906 2.90313 32.0906 2.26562 31.7031 1.87813L30.1156 0.290625C29.7281 -0.096875 29.0906 -0.096875 28.7031 0.290625L22.4969 6.49687L20.5531 4.43437C19.6094 3.49062 17.9969 4.15937 17.9969 5.49687V12.4969C17.9969 13.3281 18.6656 13.9969 19.4969 13.9969ZM25.4969 22.4969L27.5594 20.5531C28.5031 19.6094 27.8344 17.9969 26.4969 17.9969H19.4969C18.6656 17.9969 17.9969 18.6656 17.9969 19.4969V26.4969C17.9969 27.8344 19.6156 28.5031 20.5594 27.5594L22.4969 25.5031L28.7031 31.7094C29.0906 32.0969 29.7281 32.0969 30.1156 31.7094L31.7031 30.1219C32.0906 29.7344 32.0906 29.0969 31.7031 28.7094L25.4969 22.4969ZM11.4344 4.44062L9.49687 6.49687L3.29063 0.290625C2.90313 -0.096875 2.26562 -0.096875 1.87813 0.290625L0.290625 1.87813C-0.096875 2.26562 -0.096875 2.90313 0.290625 3.29063L6.49687 9.49687L4.43437 11.4406C3.49062 12.3844 4.15937 13.9969 5.49687 13.9969H12.4969C13.3281 13.9969 13.9969 13.3281 13.9969 12.4969V5.49687C13.9969 4.16562 12.3781 3.49687 11.4344 4.44062Z" />
</svg>