<svg width="32" height="32" viewBox="0 0 32 32" xmlns="http://www.w3.org/2000/svg">
  <path
    d="M30.4625 19.7313L27.8 18.1938C28.0688 16.7438 28.0688 15.2563 27.8 13.8063L30.4625 12.2688C30.7688 12.0938 30.9063 11.7313 30.8063 11.3938C30.1125 9.16879 28.9313 7.15629 27.3875 5.48129C27.15 5.22504 26.7625 5.16254 26.4625 5.33754L23.8 6.87504C22.6813 5.91254 21.3938 5.16879 20 4.68129V1.61253C20 1.26253 19.7563 0.956284 19.4125 0.881284C17.1188 0.368784 14.7688 0.393784 12.5875 0.881284C12.2438 0.956284 12 1.26253 12 1.61253V4.68754C10.6125 5.18129 9.32503 5.92504 8.20003 6.88129L5.54379 5.34379C5.23754 5.16879 4.85629 5.22504 4.61879 5.48754C3.07504 7.15629 1.89379 9.16879 1.20004 11.4C1.09379 11.7375 1.23754 12.1 1.54379 12.275L4.20629 13.8125C3.93754 15.2625 3.93754 16.75 4.20629 18.2L1.54379 19.7375C1.23754 19.9125 1.10004 20.275 1.20004 20.6125C1.89379 22.8375 3.07504 24.85 4.61879 26.525C4.85629 26.7813 5.24379 26.8438 5.54379 26.6688L8.20628 25.1313C9.32503 26.0938 10.6125 26.8375 12.0063 27.325V30.4C12.0063 30.75 12.25 31.0563 12.5938 31.1313C14.8875 31.6438 17.2375 31.6188 19.4188 31.1313C19.7625 31.0563 20.0063 30.75 20.0063 30.4V27.325C21.3938 26.8313 22.6813 26.0875 23.8063 25.1313L26.4688 26.6688C26.775 26.8438 27.1563 26.7875 27.3938 26.525C28.9375 24.8563 30.1188 22.8438 30.8125 20.6125C30.9063 20.2688 30.7688 19.9063 30.4625 19.7313ZM16 21C13.2438 21 11 18.7563 11 16C11 13.2438 13.2438 11 16 11C18.7563 11 21 13.2438 21 16C21 18.7563 18.7563 21 16 21Z" />
</svg>