<svg xmlns="http://www.w3.org/2000/svg" width="25" height="25" viewBox="0 0 25 25">
  <path fill-rule="evenodd" clip-rule="evenodd"
    d="M10.9867 1.41343C10.9867 0.743246 11.53 0.199951 12.2002 0.199951C18.8276 0.199951 24.2002 5.57253 24.2002 12.2C24.2002 18.8274 18.8276 24.2 12.2002 24.2C5.57278 24.2 0.200195 18.8274 0.200195 12.2C0.200195 7.75102 2.57057 3.78182 6.20555 1.70777C6.78765 1.37563 7.52879 1.57827 7.86092 2.16037C8.19305 2.74247 7.99042 3.4836 7.40832 3.81573C4.53405 5.45573 2.62716 8.61816 2.62716 12.2C2.62716 17.487 6.91315 21.773 12.2002 21.773C17.4872 21.773 21.7732 17.487 21.7732 12.2C21.7732 6.91291 17.4872 2.62692 12.2002 2.62692C11.53 2.62692 10.9867 2.08362 10.9867 1.41343Z" />
  <path fill-rule="evenodd" clip-rule="evenodd"
    d="M1.21191 2.76207C1.21191 2.09188 1.75521 1.54858 2.4254 1.54858L6.80742 1.54858C7.47761 1.54858 8.0209 2.09188 8.0209 2.76207V6.46993C8.0209 7.14012 7.47761 7.68342 6.80742 7.68342C6.13723 7.68342 5.59394 7.14012 5.59394 6.46993V3.97555L2.4254 3.97555C1.75521 3.97555 1.21191 3.43226 1.21191 2.76207Z" />
  <path
    d="M8.33566 15.4901C8.33566 15.9432 8.7024 16.3099 9.15544 16.3099C9.60847 16.3099 9.97521 15.9432 9.97521 15.4901V9.40653C9.97521 8.9535 9.60847 8.58676 9.15544 8.58676H9.13386C8.90735 8.58676 8.67004 8.64069 8.35724 8.72698L7.28937 9.03979C6.95499 9.13687 6.73926 9.41732 6.73926 9.7517C6.73926 10.14 7.07364 10.4636 7.46195 10.4636C7.54825 10.4636 7.6669 10.442 7.75319 10.4205L8.33566 10.2695V15.4901Z" />
  <path
    d="M14.0296 16.3746C16.0467 16.3746 17.395 14.6596 17.395 12.4699V12.4483C17.395 10.2587 16.0467 8.56519 14.0512 8.56519C12.0449 8.56519 10.6858 10.2802 10.6858 12.4699V12.4915C10.6858 14.6811 12.0125 16.3746 14.0296 16.3746ZM14.0512 14.8753C13.048 14.8753 12.39 13.8506 12.39 12.4699V12.4483C12.39 11.0677 13.0372 10.0645 14.0296 10.0645C15.022 10.0645 15.6907 11.1 15.6907 12.4699V12.4915C15.6907 13.8614 15.0543 14.8753 14.0512 14.8753Z" />
</svg>