<svg width="40" height="32" viewBox="0 0 40 32" xmlns="http://www.w3.org/2000/svg">
  <g clip-path="url(#clip0_1607_167)">
    <path
      d="M31.1123 21.7069C31.1123 22.2514 30.6633 22.6974 30.1146 22.6974H8.99789C8.44918 22.6974 8.00018 22.2514 8.00018 21.7069V0.990503C8.00018 0.445995 8.44918 0 8.99789 0H30.1152C30.6639 0 31.1129 0.445995 31.1129 0.990503V21.7069H31.1123Z"
      fill="#0C9D58" />
    <path opacity="0.2" d="M31.1123 5.32567L23.1981 4.30711L31.1123 6.43021V5.32567Z" fill="#004D40" />
    <path opacity="0.2"
      d="M19.938 1.08006L7.953 6.4314L21.1991 1.61024V1.5971C20.9662 1.09797 20.399 0.865124 19.938 1.08006Z"
      fill="#004D40" />
    <path opacity="0.2"
      d="M30.1152 0H8.99789C8.44918 0 8.00018 0.445995 8.00018 0.990503V1.21261C8.00018 0.668097 8.44918 0.222102 8.99789 0.222102H30.1152C30.6639 0.222102 31.1129 0.668097 31.1129 1.21261V0.990503C31.1123 0.445995 30.6639 0 30.1152 0Z"
      fill="white" />
    <path
      d="M13.1249 21.0704C12.9822 21.6024 13.267 22.1451 13.7578 22.2765L33.3167 27.5365C33.8075 27.6678 34.3257 27.34 34.4678 26.8081L39.0754 9.61307C39.2181 9.0811 38.9333 8.53839 38.4425 8.40704L18.8836 3.14704C18.3928 3.01569 17.8746 3.34347 17.7325 3.87544L13.1249 21.0704Z"
      fill="#EA4335" />
    <path opacity="0.2" d="M34.6684 15.7507L35.6972 22L34.6684 25.8408V15.7507Z" fill="#3E2723" />
    <path opacity="0.2" d="M23.2906 4.56205L24.2125 4.80982L24.7845 8.66675L23.2906 4.56205Z" fill="#3E2723" />
    <path opacity="0.2"
      d="M38.4431 8.40704L18.8842 3.14704C18.3934 3.01569 17.8752 3.34347 17.7331 3.87544L13.1254 21.0704C13.1177 21.0991 13.1159 21.1283 13.1105 21.157L17.6835 4.09217C17.8262 3.5602 18.3445 3.23242 18.8347 3.36377L38.3936 8.62376C38.8575 8.74795 39.1327 9.24052 39.0414 9.74383L39.0766 9.61307C39.2187 9.0811 38.9339 8.53839 38.4431 8.40704Z"
      fill="white" />
    <path
      d="M28.5287 18.9527C28.7168 19.4703 28.4804 20.0357 28.0033 20.2095L7.36429 27.721C6.88664 27.8947 6.34211 27.6135 6.15403 27.0958L0.0650799 10.3677C-0.122998 9.8501 0.113443 9.2847 0.590504 9.11096L21.2295 1.59949C21.7072 1.42575 22.2517 1.70696 22.4398 2.2246L28.5287 18.9527Z"
      fill="#FFC107" />
    <path opacity="0.2"
      d="M0.143297 10.5785C-0.0447813 10.0609 0.19166 9.49546 0.668721 9.32172L21.3077 1.80965C21.78 1.6377 22.3168 1.91175 22.5108 2.41864L22.4398 2.22401C22.2511 1.70636 21.7066 1.42515 21.2295 1.5989L0.590504 9.11096C0.112846 9.2847 -0.123595 9.8501 0.0650801 10.3677L6.15403 27.0958C6.15582 27.1012 6.1594 27.106 6.16179 27.112L0.143297 10.5785Z"
      fill="white" />
    <path
      d="M34.6684 30.9999C34.6684 31.5498 34.2182 32 33.6683 32H5.44471C4.8948 32 4.44461 31.5498 4.44461 30.9999V9.66681C4.44461 9.11693 4.8948 8.66675 5.44471 8.66675H33.6683C34.2182 8.66675 34.6684 9.11693 34.6684 9.66681V30.9999Z"
      fill="#4285F4" />
    <path
      d="M29.2793 17.1114H20.8343V14.8892H29.2793C29.5247 14.8892 29.7235 15.088 29.7235 15.3334V16.6666C29.7235 16.912 29.5247 17.1114 29.2793 17.1114ZM29.2793 25.5555H20.8343V23.3332H29.2793C29.5247 23.3332 29.7235 23.5321 29.7235 23.7774V25.1107C29.7235 25.3566 29.5247 25.5555 29.2793 25.5555ZM30.6125 21.3331H20.8343V19.1109H30.6125C30.8579 19.1109 31.0567 19.3097 31.0567 19.5551V20.8883C31.0567 21.1343 30.8579 21.3331 30.6125 21.3331Z"
      fill="white" />
    <path opacity="0.2"
      d="M33.6683 31.7779H5.44471C4.8948 31.7779 4.44461 31.3277 4.44461 30.7778V30.9999C4.44461 31.5498 4.8948 32 5.44471 32H33.6683C34.2182 32 34.6684 31.5498 34.6684 30.9999V30.7778C34.6684 31.3277 34.2182 31.7779 33.6683 31.7779Z"
      fill="#1A237E" />
    <path opacity="0.2"
      d="M5.44471 8.88886H33.6683C34.2182 8.88886 34.6684 9.33903 34.6684 9.88891V9.66681C34.6684 9.11693 34.2182 8.66675 33.6683 8.66675H5.44471C4.8948 8.66675 4.44461 9.11693 4.44461 9.66681V9.88891C4.44461 9.33903 4.8948 8.88886 5.44471 8.88886Z"
      fill="white" />
    <path
      d="M13.2783 19.3336V21.3379H16.1544C15.9168 22.5589 14.8432 23.4443 13.2783 23.4443C11.5325 23.4443 10.1168 21.9678 10.1168 20.222C10.1168 18.4763 11.5325 16.9998 13.2783 16.9998C14.0647 16.9998 14.7686 17.2702 15.3245 17.7998V17.801L16.8464 16.2791C15.9221 15.4176 14.7167 14.8892 13.2777 14.8892C10.3324 14.8892 7.94406 17.2768 7.94406 20.2226C7.94406 23.1685 10.3318 25.5561 13.2777 25.5561C16.358 25.5561 18.3845 23.3906 18.3845 20.3438C18.3845 19.9946 18.3522 19.6578 18.3003 19.3336H13.2783Z"
      fill="white" />
    <g opacity="0.2">
      <path d="M13.3338 21.3379V21.56H16.1562C16.1771 21.4872 16.195 21.4131 16.2099 21.3379H13.3338Z" fill="#1A237E" />
      <path
        d="M13.3338 25.5555C10.4255 25.5555 8.06228 23.2276 8.00317 20.3331C8.00257 20.3701 8.00018 20.4071 8.00018 20.4441C8.00018 23.39 10.3879 25.7776 13.3338 25.7776C16.4141 25.7776 18.4406 23.6121 18.4406 20.5653C18.4406 20.5408 18.4376 20.5182 18.4376 20.4937C18.3713 23.461 16.3634 25.5555 13.3338 25.5555ZM15.38 17.7998C14.8241 17.2708 14.1196 16.9998 13.3338 16.9998C11.588 16.9998 10.1723 18.4763 10.1723 20.222C10.1723 20.2596 10.1765 20.2961 10.1777 20.3331C10.2368 18.6363 11.625 17.2219 13.3338 17.2219C14.1202 17.2219 14.8241 17.4923 15.38 18.0219V18.0231L17.013 16.3902C16.9748 16.3543 16.9324 16.3227 16.893 16.2881L15.3806 17.801L15.38 17.7998Z"
        fill="#1A237E" />
    </g>
    <path opacity="0.2"
      d="M29.7235 16.8887V16.6666C29.7235 16.912 29.5247 17.1108 29.2793 17.1108H20.8343V17.3329H29.2793C29.5247 17.3335 29.7235 17.1347 29.7235 16.8887ZM29.2793 25.5555H20.8343V25.7776H29.2793C29.5247 25.7776 29.7235 25.5787 29.7235 25.3334V25.1113C29.7235 25.3566 29.5247 25.5555 29.2793 25.5555ZM30.6125 21.3331H20.8343V21.5552H30.6125C30.8579 21.5552 31.0567 21.3564 31.0567 21.111V20.8889C31.0567 21.1343 30.8579 21.3331 30.6125 21.3331Z"
      fill="#1A237E" />
  </g>
  <defs>
    <clipPath id="clip0_1607_167">
      <rect width="39.113" height="32" fill="white" />
    </clipPath>
  </defs>
</svg>