<svg width="30" height="29" viewBox="0 0 30 29" xmlns="http://www.w3.org/2000/svg">
  <path
    d="M15.0061 6.82343C11.0312 6.82343 7.82491 10.0297 7.82491 14.0047C7.82491 17.9797 11.0312 21.1859 15.0061 21.1859C18.9811 21.1859 22.1874 17.9797 22.1874 14.0047C22.1874 10.0297 18.9811 6.82343 15.0061 6.82343ZM15.0061 18.6734C12.4374 18.6734 10.3374 16.5797 10.3374 14.0047C10.3374 11.4297 12.4311 9.33592 15.0061 9.33592C17.5811 9.33592 19.6749 11.4297 19.6749 14.0047C19.6749 16.5797 17.5749 18.6734 15.0061 18.6734ZM24.1561 6.52968C24.1561 7.46093 23.4061 8.20468 22.4811 8.20468C21.5499 8.20468 20.8061 7.45468 20.8061 6.52968C20.8061 5.60468 21.5561 4.85468 22.4811 4.85468C23.4061 4.85468 24.1561 5.60468 24.1561 6.52968ZM28.9124 8.22968C28.8061 5.98593 28.2936 3.99843 26.6499 2.36093C25.0124 0.723436 23.0249 0.210937 20.7811 0.0984373C18.4686 -0.0328124 11.5374 -0.0328124 9.22491 0.0984373C6.98741 0.204687 4.99992 0.717186 3.35617 2.35468C1.71243 3.99218 1.20618 5.97968 1.09368 8.22342C0.962427 10.5359 0.962427 17.4672 1.09368 19.7797C1.19993 22.0234 1.71243 24.0109 3.35617 25.6484C4.99992 27.2859 6.98116 27.7984 9.22491 27.9109C11.5374 28.0421 18.4686 28.0421 20.7811 27.9109C23.0249 27.8046 25.0124 27.2921 26.6499 25.6484C28.2874 24.0109 28.7999 22.0234 28.9124 19.7797C29.0436 17.4672 29.0436 10.5422 28.9124 8.22968ZM25.9249 22.2609C25.4374 23.4859 24.4936 24.4296 23.2624 24.9234C21.4186 25.6546 17.0436 25.4859 15.0061 25.4859C12.9686 25.4859 8.58741 25.6484 6.74991 24.9234C5.52492 24.4359 4.58117 23.4922 4.08742 22.2609C3.35617 20.4172 3.52492 16.0422 3.52492 14.0047C3.52492 11.9672 3.36242 7.58593 4.08742 5.74843C4.57492 4.52343 5.51867 3.57968 6.74991 3.08593C8.59366 2.35468 12.9686 2.52343 15.0061 2.52343C17.0436 2.52343 21.4249 2.36093 23.2624 3.08593C24.4874 3.57343 25.4311 4.51718 25.9249 5.74843C26.6561 7.59218 26.4874 11.9672 26.4874 14.0047C26.4874 16.0422 26.6561 20.4234 25.9249 22.2609Z" />
</svg>