<svg xmlns="http://www.w3.org/2000/svg" width="33" height="32" viewBox="0 0 33 32">
  <path
    d="M31.414 16.8621C32.1953 16.1087 32.1953 14.8853 31.414 14.1319L23.4136 6.41763C22.6324 5.66429 21.3635 5.66429 20.5823 6.41763C19.801 7.17098 19.801 8.39442 20.5823 9.14777L25.17 13.5714H12.0006C10.8943 13.5714 10.0005 14.4333 10.0005 15.5C10.0005 16.5667 10.8943 17.4286 12.0006 17.4286H25.17L20.5823 21.8522C19.801 22.6056 19.801 23.829 20.5823 24.5824C21.3635 25.3357 22.6324 25.3357 23.4136 24.5824L31.414 16.8681V16.8621ZM10.0005 5.85714C11.1068 5.85714 12.0006 4.99531 12.0006 3.92857C12.0006 2.86183 11.1068 2 10.0005 2H6.00029C2.68763 2 0 4.59152 0 7.78571V23.2143C0 26.4085 2.68763 29 6.00029 29H10.0005C11.1068 29 12.0006 28.1382 12.0006 27.0714C12.0006 26.0047 11.1068 25.1429 10.0005 25.1429H6.00029C4.89399 25.1429 4.0002 24.281 4.0002 23.2143V7.78571C4.0002 6.71897 4.89399 5.85714 6.00029 5.85714H10.0005Z" />
</svg>