<svg width="32" height="32" viewBox="0 0 32 32" xmlns="http://www.w3.org/2000/svg">
  <path
    d="M20.5 16C20.5 18.4875 18.4875 20.5 16 20.5C13.5125 20.5 11.5 18.4875 11.5 16C11.5 13.5125 13.5125 11.5 16 11.5C18.4875 11.5 20.5 13.5125 20.5 16ZM27 11.5C24.5125 11.5 22.5 13.5125 22.5 16C22.5 18.4875 24.5125 20.5 27 20.5C29.4875 20.5 31.5 18.4875 31.5 16C31.5 13.5125 29.4875 11.5 27 11.5ZM5 11.5C2.5125 11.5 0.5 13.5125 0.5 16C0.5 18.4875 2.5125 20.5 5 20.5C7.4875 20.5 9.5 18.4875 9.5 16C9.5 13.5125 7.4875 11.5 5 11.5Z" />
</svg>