<svg xmlns="http://www.w3.org/2000/svg" width="32" height="32" viewBox="0 0 32 32">
  <path
    d="M18.5 2H30.5C31.3284 2 32 2.67156 32 3.5V13.5C32 14.3284 31.3284 15 30.5 15H18.5C17.6716 15 17 14.3284 17 13.5V3.5C17 2.67156 17.6716 2 18.5 2ZM13.5 2H1.5C0.671562 2 0 2.67156 0 3.5V13.5C0 14.3284 0.671562 15 1.5 15H13.5C14.3284 15 15 14.3284 15 13.5V3.5C15 2.67156 14.3284 2 13.5 2ZM0 18.5V28.5C0 29.3284 0.671562 30 1.5 30H13.5C14.3284 30 15 29.3284 15 28.5V18.5C15 17.6716 14.3284 17 13.5 17H1.5C0.671562 17 0 17.6716 0 18.5ZM18.5 30H30.5C31.3284 30 32 29.3284 32 28.5V18.5C32 17.6716 31.3284 17 30.5 17H18.5C17.6716 17 17 17.6716 17 18.5V28.5C17 29.3284 17.6716 30 18.5 30Z" />
</svg>