<svg xmlns="http://www.w3.org/2000/svg" width="32" height="28" viewBox="0 0 32 28">
  <path
    d="M28.5 0H9.5C7.56875 0 6 1.57062 6 3.5V23.5C6 24.3263 5.32687 25 4.5 25C3.67313 25 3 24.325 3 23.5V5C3 4.17188 2.32812 3.5 1.5 3.5C0.671875 3.5 0 4.17188 0 5V23.5C0 25.9813 2.01875 28 4.5 28H26.5C29.5331 28 32 25.5331 32 22.5V3.5C32 1.57062 30.4312 0 28.5 0ZM29 22.5C29 23.8787 27.8787 25 26.5 25H8.74375C8.90625 24.5312 9 24.025 9 23.5V3.5C9 3.22463 9.22462 3 9.5 3H28.5C28.7754 3 29 3.22463 29 3.5V22.5ZM16.5 15H12.5C11.675 15 11 15.675 11 16.5C11 17.325 11.675 18 12.5 18H16.5C17.3312 18 18 17.3312 18 16.5C18 15.6687 17.3312 15 16.5 15ZM25.5 15H21.5C20.675 15 20 15.675 20 16.5C20 17.325 20.675 18 21.5 18H25.5C26.3281 18 27 17.3281 27 16.5C27 15.6719 26.3312 15 25.5 15ZM16.5 20H12.5C11.6719 20 11 20.6719 11 21.5C11 22.3281 11.6719 23 12.5 23H16.5C17.3281 23 18 22.3281 18 21.5C18 20.6719 17.3312 20 16.5 20ZM25.5 20H21.5C20.675 20 20 20.675 20 21.5C20 22.325 20.6719 23 21.5 23H25.5C26.3281 23 27 22.3281 27 21.5C27 20.6719 26.3312 20 25.5 20ZM25 5H13C11.8956 5 11 5.89563 11 7V11C11 12.1044 11.8956 13 13 13H25C26.1044 13 27 12.1044 27 11V7C27 5.89375 26.1063 5 25 5Z" />
</svg>