<svg xmlns="http://www.w3.org/2000/svg" width="80" height="80" viewBox="0 0 80 80" fill="#fff">
  <path
    d="M40 1.25C18.5938 1.25 1.25 18.5938 1.25 40C1.25 61.4062 18.5938 78.75 40 78.75C61.4062 78.75 78.75 61.4062 78.75 40C78.75 18.5938 61.4062 1.25 40 1.25ZM37.5 52.5C37.5 53.875 36.375 55 35 55H27.5C26.125 55 25 53.875 25 52.5V27.5C25 26.125 26.125 25 27.5 25H35C36.375 25 37.5 26.125 37.5 27.5V52.5ZM55 52.5C55 53.875 53.875 55 52.5 55H45C43.625 55 42.5 53.875 42.5 52.5V27.5C42.5 26.125 43.625 25 45 25H52.5C53.875 25 55 26.125 55 27.5V52.5Z" />
</svg>