<svg width="32" height="32" viewBox="0 0 32 32" xmlns="http://www.w3.org/2000/svg">
  <g clip-path="url(#clip0_631_104)">
    <path
      d="M22.6687 1.20755C24.2312 -0.354827 26.7687 -0.354827 28.3312 1.20755L30.7937 3.67192C32.3562 5.2338 32.3562 7.7688 30.7937 9.3313L27.7687 12.3563L19.6437 4.23255L22.6687 1.20755ZM26.3562 13.7688L11.7812 28.3375C11.1312 28.9875 10.325 29.4688 9.44374 29.725L1.92311 31.9375C1.39686 32.0938 0.827486 31.95 0.439361 31.5063C0.0512234 31.175 -0.0938892 30.6063 0.0609858 30.075L2.27311 22.5563C2.53311 21.675 3.00999 20.8688 3.66061 20.2188L18.2312 5.6463L26.3562 13.7688Z" />
  </g>
  <defs>
    <clipPath id="clip0_631_104">
      <rect width="32" height="32" fill="white" />
    </clipPath>
  </defs>
</svg>