<svg width="16" height="15" viewBox="0 0 16 15" fill="none" xmlns="http://www.w3.org/2000/svg">
<path d="M4.10257 0.749298H11.306C13.5718 0.749298 15.4086 2.58605 15.4086 4.85187V8.58743C15.4086 10.8532 13.5718 12.69 11.306 12.69L3.08164 12.6899C1.77623 12.6899 0.751498 13.3004 9.05964e-05 14.2507L0 4.79823C0.0288097 2.55733 1.85478 0.749298 4.10257 0.749298Z" fill="#4A4A4A"/>
<path d="M5.34421 10.6264H4.45896C4.21551 10.6264 4.00711 10.5397 3.83374 10.3663C3.66038 10.193 3.5737 9.98457 3.5737 9.74113V6.64273C3.5737 6.08944 3.67882 5.5712 3.88907 5.088C4.09932 4.60479 4.38334 4.1843 4.74113 3.8265C5.09892 3.46871 5.51942 3.18469 6.00262 2.97445C6.48583 2.7642 7.00407 2.65907 7.55735 2.65907C8.11064 2.65907 8.62888 2.7642 9.11209 2.97445C9.59529 3.18469 10.0158 3.46871 10.3736 3.8265C10.7314 4.1843 11.0154 4.60479 11.2256 5.088C11.4359 5.5712 11.541 6.08944 11.541 6.64273V9.74113C11.541 9.98457 11.4543 10.193 11.281 10.3663C11.1076 10.5397 10.8992 10.6264 10.6558 10.6264H9.7705C9.52705 10.6264 9.31865 10.5397 9.14528 10.3663C8.97192 10.193 8.88524 9.98457 8.88524 9.74113V7.97061C8.88524 7.72717 8.97192 7.51876 9.14528 7.3454C9.31865 7.17204 9.52705 7.08536 9.7705 7.08536H10.6558V6.64273C10.6558 5.7796 10.3551 5.04742 9.7539 4.44618C9.15266 3.84495 8.42048 3.54433 7.55735 3.54433C6.69423 3.54433 5.96205 3.84495 5.36081 4.44618C4.75957 5.04742 4.45896 5.7796 4.45896 6.64273V7.08536H5.34421C5.58766 7.08536 5.79606 7.17204 5.96943 7.3454C6.14279 7.51876 6.22947 7.72717 6.22947 7.97061V9.74113C6.22947 9.98457 6.14279 10.193 5.96943 10.3663C5.79606 10.5397 5.58766 10.6264 5.34421 10.6264Z" fill="white"/>
</svg>
