<svg width="32" height="28" viewBox="0 0 32 28" xmlns="http://www.w3.org/2000/svg">
  <path
    d="M32 7V25C32 26.6562 30.6562 28 29 28H3C1.34375 28 0 26.6562 0 25V7C0 5.34375 1.34375 4 3 4H8.5L9.26875 1.94375C9.70625 0.775 10.825 0 12.075 0H19.9188C21.1688 0 22.2875 0.775 22.725 1.94375L23.5 4H29C30.6562 4 32 5.34375 32 7ZM23.5 16C23.5 11.8625 20.1375 8.5 16 8.5C11.8625 8.5 8.5 11.8625 8.5 16C8.5 20.1375 11.8625 23.5 16 23.5C20.1375 23.5 23.5 20.1375 23.5 16ZM21.5 16C21.5 19.0312 19.0312 21.5 16 21.5C12.9688 21.5 10.5 19.0312 10.5 16C10.5 12.9688 12.9688 10.5 16 10.5C19.0312 10.5 21.5 12.9688 21.5 16Z" />
</svg>