<svg xmlns="http://www.w3.org/2000/svg" width="24" height="32" viewBox="0 0 24 32">
  <path
    d="M16 0V8H24L16 0ZM14 8V0H3C1.34312 0 0 1.34312 0 3V29C0 30.6562 1.34312 32 3 32H21C22.6569 32 24 30.6569 24 29V10H16.0562C14.8937 10 14 9.10625 14 8ZM14 24C14 25.1044 13.1044 26 12 26H6C4.89563 26 4 25.1044 4 24V18C4 16.8956 4.89563 16 6 16H12C13.1044 16 14 16.8956 14 18V24ZM20 17.8062V24.2C20 24.9856 19.1362 25.4644 18.47 25.0481L16 23.5V18.5L18.47 16.9562C19.1375 16.5375 20 17.0187 20 17.8062Z" />
</svg>