<svg width="16" height="15" viewBox="0 0 16 15" fill="none" xmlns="http://www.w3.org/2000/svg">
<path d="M4.10257 0.749298H11.306C13.5718 0.749298 15.4086 2.58605 15.4086 4.85187V8.58743C15.4086 10.8532 13.5718 12.69 11.306 12.69L3.08164 12.6899C1.77623 12.6899 0.751498 13.3004 9.05964e-05 14.2507L0 4.79823C0.0288097 2.55733 1.85478 0.749298 4.10257 0.749298Z" fill="#4A4A4A"/>
<g clip-path="url(#clip0_2322_334)">
<path d="M8.11535 10.0165L8.11535 7.42661C8.11535 5.42785 9.14751 4.07315 10.6004 3.70907L10.8757 4.46281C10.2029 4.78414 9.7705 5.56241 9.7705 6.33718L10.8771 6.51238L10.8771 10.0165L8.11535 10.0165ZM4.23765 10.0165L4.23765 7.42662C4.23765 5.42785 5.27451 4.0728 6.72744 3.70907L7.00297 4.46281C6.3299 4.78414 5.89751 5.56241 5.89751 6.33718L6.99938 6.51238L6.99938 10.0165L4.23765 10.0165Z" fill="white"/>
</g>
<defs>
<clipPath id="clip0_2322_334">
<rect width="6.63942" height="8.40994" fill="white" transform="translate(10.8771 11.0678) rotate(180)"/>
</clipPath>
</defs>
</svg>
