<svg width="60" height="14" viewBox="0 0 60 14" fill="none" xmlns="http://www.w3.org/2000/svg">
<g clip-path="url(#clip0_2321_202)">
<path fill-rule="evenodd" clip-rule="evenodd" d="M4.68546 4.38954H3.98564V6.46962H4.66364C5.50037 6.46962 5.91819 6.11746 5.91819 5.41262C5.91819 4.73092 5.50746 4.38954 4.68655 4.38954" fill="#4A4A4A"/>
<path fill-rule="evenodd" clip-rule="evenodd" d="M13.1149 4.31038L10.4591 10.2227H8.346L11.1262 4.31038H8.19927V2.68262H13.1149V4.31038ZM5.73709 10.2227L3.98509 7.78077V10.2227H2.14364V2.68262H4.52836C5.16818 2.68262 5.65254 2.72031 5.98036 2.79569C6.30764 2.87108 6.59673 3.01431 6.84491 3.22538C7.46236 3.738 7.77164 4.42723 7.77164 5.29415C7.77164 5.91931 7.602 6.44539 7.26327 6.87077C6.924 7.29669 6.468 7.55892 5.89582 7.65692L7.94127 10.2227H5.73764H5.73709ZM11.1955 0.538462H4.06255C1.83709 0.538462 0.0283636 2.32938 0 4.55V13.9133C0.744 12.9721 1.75909 12.3674 3.05182 12.3674H11.1955C13.4395 12.3674 15.258 10.5474 15.258 8.30362V4.60223C15.258 2.35846 13.44 0.538462 11.1955 0.538462ZM23.5036 9.08062C23.2997 9.38966 23.0538 9.66959 22.7727 9.91254C22.4736 10.1726 22.133 10.3822 21.7647 10.5328C21.3795 10.6916 20.9658 10.772 20.5484 10.7692C20.1627 10.7692 19.8185 10.7019 19.5158 10.5668C19.2226 10.4398 18.9745 10.2293 18.8035 9.96208C18.6316 9.69392 18.5455 9.37139 18.5455 8.995C18.5455 8.24977 18.7495 7.48031 19.158 6.68608C19.5671 5.89238 20.1235 5.23223 20.8282 4.70615C21.5335 4.18008 22.3047 3.91731 23.1425 3.91731C23.5364 3.91731 23.856 4.00238 24.1004 4.172C24.3453 4.34162 24.4675 4.58662 24.4675 4.90592C24.4675 5.38462 24.2705 5.82454 23.8767 6.22569C23.4824 6.62685 22.9876 6.96985 22.3931 7.25415C21.798 7.53846 21.1767 7.76462 20.5298 7.93262C20.4816 8.21664 20.4567 8.50403 20.4551 8.792C20.4551 9.23408 20.5391 9.54854 20.7071 9.73431C20.8751 9.92115 21.1189 10.0143 21.438 10.0143C21.7036 10.0143 22.0031 9.93138 22.3369 9.76554C22.6707 9.59969 22.9915 9.33854 23.298 8.98262L23.5036 9.08062ZM22.8627 4.15046C22.6096 4.15046 22.3276 4.32277 22.0167 4.66631C21.7058 5.00985 21.4173 5.45623 21.1522 6.00492C20.8898 6.54428 20.6954 7.11338 20.5735 7.69946C21.1664 7.441 21.6327 7.161 21.9731 6.85839C22.305 6.56604 22.5773 6.21388 22.7755 5.82077C22.9705 5.43132 23.0707 5.00223 23.0678 4.56777C23.0678 4.41269 23.0515 4.30392 23.0182 4.24254C23.0042 4.21396 22.982 4.19007 22.9543 4.1738C22.9267 4.15754 22.8949 4.14907 22.8627 4.15046ZM25.4318 10.4128C25.5562 10.4747 25.7198 10.5054 25.9227 10.5054C26.2424 10.5054 26.5009 10.409 26.6973 10.2168C26.8947 10.024 26.9929 9.76015 26.9929 9.42469C26.9929 9.15869 26.9351 8.88354 26.8189 8.59869C26.7027 8.31438 26.5244 7.99023 26.2844 7.62569C26.2511 7.57669 26.1513 7.42646 25.9855 7.17446C25.8326 6.94862 25.7083 6.70524 25.6151 6.44969C25.5363 6.22983 25.4954 5.99851 25.494 5.76531C25.494 5.40508 25.5867 5.08577 25.7705 4.80739C25.9555 4.529 26.2216 4.31092 26.5702 4.15369C26.9187 3.99592 27.3333 3.91677 27.8138 3.91677C28.3615 3.91677 28.8213 4.01638 29.1922 4.21508C29.5631 4.41377 29.7485 4.75031 29.7485 5.22523C29.7485 5.36846 29.7196 5.51169 29.6618 5.65492C29.6065 5.79428 29.5153 5.91697 29.3973 6.01085C29.2766 6.1057 29.126 6.15563 28.9718 6.15192C28.7596 6.15192 28.59 6.07331 28.4613 5.91554C28.3325 5.75831 28.2682 5.55638 28.2682 5.31085C28.2682 5.10623 28.3064 4.91239 28.3833 4.73092C28.4602 4.54838 28.5545 4.39385 28.6669 4.26731C28.5464 4.19731 28.3969 4.16285 28.2185 4.16285C27.912 4.16285 27.6704 4.25708 27.4942 4.445C27.3175 4.63346 27.2275 4.89731 27.2231 5.23708C27.2231 5.45408 27.2678 5.65762 27.3573 5.84823C27.4462 6.03831 27.5569 6.23485 27.69 6.43785C27.8225 6.64031 27.9224 6.79269 27.9884 6.895C28.2578 7.33708 28.4509 7.70054 28.5665 7.98485C28.6833 8.26915 28.7411 8.55454 28.7411 8.841C28.7463 9.19203 28.6444 9.53649 28.4487 9.82962C28.254 10.1204 27.9747 10.3498 27.612 10.5172C27.2493 10.6852 26.8271 10.7692 26.3465 10.7692C25.7411 10.7692 25.2393 10.6535 24.8411 10.4225C24.4429 10.1909 24.2438 9.81938 24.2438 9.30785C24.2438 9.058 24.3071 8.84531 24.4331 8.66923C24.5596 8.49315 24.7353 8.40538 24.9589 8.40538C25.1825 8.40538 25.3604 8.49746 25.4907 8.68162C25.6216 8.86577 25.6871 9.09946 25.6871 9.38162C25.6871 9.54962 25.6658 9.70685 25.6244 9.85439C25.5829 10.0019 25.5425 10.1258 25.5033 10.2259C25.464 10.3261 25.44 10.3885 25.4318 10.4133V10.4128ZM31.92 9.52269C31.8962 9.60467 31.8835 9.68942 31.8824 9.77469C31.8824 10.024 32.0089 10.1489 32.262 10.1489C32.4485 10.1489 32.6291 10.059 32.8031 9.87915C32.9776 9.69877 33.1331 9.42846 33.27 9.06877L33.4625 8.55292H33.7053L33.45 9.28362C33.1102 10.2738 32.4715 10.7692 31.5344 10.7692C31.1035 10.7692 30.7784 10.6578 30.5607 10.4348C30.3425 10.2114 30.234 9.90715 30.234 9.52269C30.234 9.30569 30.2733 9.05423 30.3524 8.76777L31.6342 4.37769H30.4767L30.5449 4.12569H31.7084L32.262 2.21631C32.9962 2.20446 33.612 2.14469 34.1095 2.03862L33.5002 4.12569H34.9369L34.8998 4.37769H33.4255L31.92 9.52269ZM41.4 8.51577L41.052 9.47423C40.8944 9.93623 40.6647 10.2679 40.3647 10.4682C40.0647 10.6687 39.7097 10.7737 39.3475 10.7692C39.1238 10.7692 38.9296 10.7315 38.766 10.6562C38.6141 10.5908 38.4869 10.4801 38.4022 10.3395C38.3231 10.1963 38.2838 10.024 38.2838 9.82369C38.2838 9.61477 38.3275 9.34285 38.4147 9.00685L38.7502 7.72369C38.4229 8.51362 38.1065 9.13015 37.8016 9.57223C37.4967 10.0138 37.1869 10.3239 36.8716 10.5022C36.5564 10.6798 36.2062 10.7692 35.8205 10.7692C35.4387 10.7692 35.1518 10.6804 34.9587 10.5022C34.7662 10.3245 34.6696 10.0692 34.6696 9.73754C34.6696 9.48823 34.7253 9.19746 34.8376 8.86577L36.0758 5.15738C36.1249 5.00177 36.15 4.88115 36.15 4.795C36.15 4.61892 36.0693 4.53115 35.9073 4.53115C35.7709 4.53115 35.6378 4.60169 35.5091 4.74277C35.3809 4.88438 35.2462 5.145 35.1055 5.52569L34.8747 6.12769H34.632L34.9495 5.20692C35.2522 4.347 35.8222 3.91731 36.66 3.91731C37.4356 3.91731 37.8235 4.263 37.8235 4.95492C37.8235 5.21285 37.7613 5.53215 37.6369 5.91285L36.492 9.30785C36.4173 9.53292 36.3802 9.71115 36.3802 9.842C36.3802 10.0385 36.4609 10.1371 36.6229 10.1371C36.8716 10.1371 37.1695 9.89315 37.5153 9.40639C37.8616 8.91908 38.2113 8.27131 38.5636 7.46254C38.9307 6.61372 39.2444 5.74335 39.5029 4.85638L39.702 4.08908C40.4525 4.07669 41.0684 4.01908 41.5495 3.91677L39.9567 9.52269C39.9033 9.71546 39.876 9.85439 39.876 9.94054C39.876 10.0795 39.9507 10.1489 40.1002 10.1489C40.2578 10.1489 40.4007 10.0746 40.5295 9.92492C40.6582 9.77577 40.7864 9.52108 40.9151 9.16031L41.1578 8.51577H41.4ZM38.0978 2.93462C38.3806 2.54285 38.6463 2.13935 38.8942 1.72523C39.1385 1.316 39.3191 1.01985 39.4353 0.837846C39.5514 0.655846 39.6878 0.487308 39.8455 0.331692C40.0571 0.110923 40.2873 0 40.536 0C40.7144 0 40.8698 0.0635385 41.0029 0.190077C41.1147 0.301 41.1709 0.427538 41.1709 0.570769C41.1709 0.796385 41.046 1.02523 40.7973 1.25892C40.6773 1.37738 40.5409 1.48992 40.3898 1.59654C40.2387 1.70262 39.9398 1.89592 39.4942 2.17646C39.0485 2.45646 38.6269 2.75046 38.2287 3.05738L38.0978 2.93462ZM48.7598 8.55292L48.4549 9.47369C48.2973 9.94862 48.0676 10.283 47.7644 10.4774C47.4692 10.6696 47.123 10.7712 46.7695 10.7692C46.2425 10.7692 45.9065 10.5748 45.7615 10.1861C45.6955 10.0509 45.6622 9.87915 45.6622 9.67023C45.6622 9.41231 45.714 9.11131 45.8176 8.76777L45.8302 8.71231C45.5067 9.42469 45.1631 9.94539 44.8004 10.2749C44.4516 10.599 43.9887 10.7763 43.5098 10.7692C43.062 10.7692 42.6971 10.6217 42.4145 10.3272C42.1325 10.0326 41.9918 9.59269 41.9918 9.00685C41.9918 8.33162 42.1702 7.59285 42.5264 6.79054C42.8679 6.00885 43.3823 5.31249 44.0318 4.75246C44.6793 4.19569 45.4135 3.91731 46.2344 3.91731C46.6325 3.91731 46.8916 4.05838 47.0122 4.34108L47.5844 2.20446C47.6258 2.05262 47.6465 1.93631 47.6465 1.85446C47.6465 1.68646 47.58 1.56477 47.4475 1.48885C47.3149 1.41346 47.0929 1.37577 46.782 1.37577L46.8627 1.11138C47.3966 1.1117 47.9295 1.06648 48.4555 0.976231C48.9286 0.891285 49.3929 0.763858 49.8425 0.595538L47.3416 9.52323C47.2958 9.66592 47.2729 9.78062 47.2729 9.86677C47.2729 10.0552 47.3564 10.1489 47.5222 10.1489C47.6504 10.1489 47.7785 10.0773 47.9045 9.93408C48.0311 9.79085 48.1625 9.53292 48.2995 9.16085L48.5176 8.55239L48.7598 8.55292ZM46.9249 4.648C46.842 4.35292 46.6718 4.20592 46.4149 4.20592C46.0538 4.20592 45.6731 4.46277 45.2733 4.97592C44.8729 5.49015 44.5402 6.14169 44.2751 6.93162C44.0094 7.72208 43.8769 8.50177 43.8769 9.27123C43.8769 9.56577 43.9091 9.78385 43.9729 9.92492C44.0373 10.066 44.142 10.1371 44.2871 10.1371C44.4529 10.1371 44.6525 10.0148 44.8844 9.77146C45.1167 9.52808 45.3573 9.17 45.606 8.69723C45.8547 8.22446 46.0805 7.66662 46.284 7.02369L46.9249 4.648ZM51.5656 2.06338C51.5656 1.81354 51.6224 1.59923 51.7364 1.42154C51.8509 1.24331 52.0064 1.10708 52.2033 1.01285C52.4102 0.916607 52.6367 0.868352 52.8654 0.871769C53.1682 0.871769 53.4016 0.940154 53.5653 1.07746C53.7289 1.21477 53.8107 1.40592 53.8107 1.65146C53.8107 1.87223 53.7518 2.07146 53.634 2.247C53.5156 2.42308 53.3558 2.56038 53.1551 2.65838C52.9469 2.75829 52.7179 2.80881 52.4864 2.80592C52.1956 2.80592 51.9698 2.73915 51.8078 2.60669C51.6464 2.47315 51.5656 2.29277 51.5656 2.06338ZM51.0867 5.15738C51.1402 5.00985 51.1675 4.88277 51.1675 4.77669C51.1675 4.613 51.0927 4.53115 50.9438 4.53115C50.79 4.53115 50.6493 4.60815 50.5205 4.76162C50.3918 4.91508 50.2615 5.16977 50.1284 5.52623L49.8736 6.16431H49.6309L49.9915 5.20638C50.2985 4.347 50.8876 3.91731 51.7587 3.91731C52.1525 3.91731 52.4384 4.01046 52.6167 4.19677C52.7951 4.38254 52.884 4.62754 52.884 4.93015C52.884 5.16385 52.8365 5.411 52.7411 5.67323L51.4036 9.52323C51.354 9.67023 51.3289 9.79085 51.3289 9.88508C51.3289 10.0612 51.414 10.1489 51.5842 10.1489C51.7129 10.1489 51.8411 10.0789 51.9698 9.93731C52.0985 9.79623 52.2371 9.53723 52.3865 9.16085L52.6102 8.55239H52.8529L52.5234 9.47369C52.2245 10.3374 51.6518 10.7692 50.8058 10.7692C50.0345 10.7692 49.6495 10.4235 49.6495 9.73162C49.6495 9.44892 49.7111 9.128 49.8354 8.76777L51.0867 5.15738ZM53.5685 8.694C53.5685 8.00208 53.7267 7.28485 54.0442 6.54177C54.3511 5.81276 54.8365 5.17036 55.4569 4.67223C56.0809 4.16877 56.826 3.91731 57.6933 3.91731C58.3565 3.91731 58.866 4.09338 59.2233 4.445C59.58 4.79715 59.7578 5.31085 59.7578 5.98608C59.7578 6.678 59.5996 7.39523 59.2822 8.13831C58.9747 8.86847 58.4885 9.51193 57.8673 10.0111C57.2405 10.5167 56.4944 10.7692 55.6276 10.7692C54.9682 10.7692 54.4604 10.5921 54.1036 10.2383C53.7469 9.884 53.5685 9.36923 53.5685 8.694ZM57.6305 4.16285C57.3114 4.16285 56.9662 4.46062 56.5947 5.05615C56.2238 5.65169 55.9107 6.38238 55.6555 7.24769C55.4007 8.11354 55.2731 8.91692 55.2731 9.65785C55.2731 9.961 55.308 10.1802 55.3789 10.3148C55.4493 10.4499 55.5589 10.5172 55.7084 10.5172C56.0193 10.5172 56.3596 10.2281 56.7284 9.64869C57.0976 9.06931 57.4102 8.351 57.6649 7.49377C57.9196 6.636 58.0473 5.82077 58.0473 5.047C58.0473 4.71531 58.0135 4.48538 57.9447 4.35615C57.8765 4.22692 57.7718 4.16285 57.6305 4.16285Z" fill="#4A4A4A"/>
</g>
<defs>
<clipPath id="clip0_2321_202">
<rect width="60" height="14" fill="white"/>
</clipPath>
</defs>
</svg>
