<svg width="32" height="32" viewBox="0 0 32 32" xmlns="http://www.w3.org/2000/svg">
  <g clip-path="url(#clip0_502_123)">
    <path fill-rule="evenodd" clip-rule="evenodd"
      d="M2.73858 18.5324C1.90543 18.7556 1.41101 19.612 1.63425 20.4451C3.84185 28.684 12.3104 33.5734 20.5493 31.3658C28.7882 29.1581 33.6775 20.6896 31.4699 12.4507C29.2623 4.2118 20.7938 -0.677528 12.5549 1.53008C7.02416 3.01202 2.87941 7.28092 1.51187 12.4906C1.29287 13.3249 1.79165 14.1787 2.62593 14.3977C3.4602 14.6167 4.31404 14.118 4.53304 13.2837C5.61438 9.16423 8.91057 5.74027 13.3633 4.54717C19.9359 2.78604 26.6917 6.68652 28.4528 13.2591C30.214 19.8317 26.3135 26.5875 19.7409 28.3487C13.1683 30.1098 6.41246 26.2093 4.65134 19.6367C4.4281 18.8036 3.57173 18.3091 2.73858 18.5324Z" />
    <path fill-rule="evenodd" clip-rule="evenodd"
      d="M1.15794 5.93097C0.324789 6.15421 -0.169638 7.01058 0.0536033 7.84373L1.51326 13.2913C1.7365 14.1244 2.59288 14.6188 3.42602 14.3956L8.03547 13.1605C8.86861 12.9372 9.36304 12.0809 9.1398 11.2477C8.91656 10.4146 8.06019 9.92016 7.22704 10.1434L4.12614 10.9743L3.07069 7.0353C2.84745 6.20215 1.99108 5.70773 1.15794 5.93097Z" />
    <path
      d="M18.5986 21.12L8.65816 21.2764C8.17875 21.2839 7.784 20.9014 7.77648 20.422L7.75823 19.2626C7.7507 18.784 8.13196 18.3896 8.61054 18.381L16.5068 18.2382L16.401 10.3414C16.3946 9.86277 16.7768 9.46928 17.2554 9.46175L18.4148 9.4435C18.8942 9.43596 19.2889 9.81847 19.2965 10.2979L19.4529 20.2383C19.4605 20.7176 19.078 21.1124 18.5986 21.12Z" />
  </g>
  <defs>
    <clipPath id="clip0_502_123">
      <rect width="32" height="32" fill="white" transform="translate(32 32) rotate(180)" />
    </clipPath>
  </defs>
</svg>