<svg xmlns="http://www.w3.org/2000/svg" width="32" height="32" viewBox="0 0 32 32">
  <path
    d="M0 2C0 0.895625 0.895625 0 2 0H10C11.1062 0 12 0.895625 12 2V26C12 29.3125 9.3125 32 6 32C2.68625 32 0 29.3125 0 26V2ZM8 4H4V8H8V4ZM4 16H8V12H4V16ZM6 27.5C6.83125 27.5 7.5 26.8312 7.5 26C7.5 25.1688 6.83125 24.5 6 24.5C5.17188 24.5 4.5 25.1688 4.5 26C4.5 26.8312 5.17188 27.5 6 27.5ZM14 26V9.625L18.7125 4.91437C19.4937 4.13312 20.7625 4.13312 21.5438 4.91437L27.2 10.5688C27.9813 11.35 27.9813 12.6187 27.2 13.4L13.975 26.6187C13.9938 26.4187 14 26.2062 14 26ZM23.425 20H30C31.1063 20 32 20.8937 32 22V30C32 31.1063 31.1063 32 30 32H11.425L23.425 20Z" />
</svg>