<svg width="27" height="32" viewBox="0 0 27 32" xmlns="http://www.w3.org/2000/svg">
  <g clip-path="url(#clip0_21_55)">
    <path
      d="M20.9524 20C19.6067 20 18.3698 20.4887 17.3935 21.3059L11.2931 17.3026C11.4738 16.4445 11.4738 15.5554 11.2931 14.6974L17.3935 10.694C18.3698 11.5113 19.6067 12 20.9524 12C24.1083 12 26.6667 9.31369 26.6667 6C26.6667 2.68631 24.1083 0 20.9524 0C17.7965 0 15.2381 2.68631 15.2381 6C15.2381 6.44737 15.2851 6.88313 15.3736 7.30256L9.27321 11.3059C8.29684 10.4887 7.06 10 5.71429 10C2.55839 10 0 12.6863 0 16C0 19.3137 2.55839 22 5.71429 22C7.06 22 8.29684 21.5113 9.27321 20.6941L15.3736 24.6974C15.2834 25.1252 15.238 25.5619 15.2381 26C15.2381 29.3137 17.7965 32 20.9524 32C24.1083 32 26.6667 29.3137 26.6667 26C26.6667 22.6863 24.1083 20 20.9524 20Z" />
  </g>
  <defs>
    <clipPath id="clip0_21_55">
      <rect width="26.6667" height="32" fill="white" />
    </clipPath>
  </defs>
</svg>