<svg viewBox="0 0 12 12" width="27" height="32" xmlns="http://www.w3.org/2000/svg">
  <path
    d="M7.65497 4.34511C9.05529 5.74688 9.03607 7.99427 7.66341 9.37455C7.66083 9.37737 7.65778 9.38041 7.65497 9.38323L6.07997 10.9582C4.69083 12.3474 2.43078 12.3472 1.04185 10.9582C-0.347285 9.56932 -0.347285 7.30901 1.04185 5.92011L1.91152 5.05044C2.14215 4.81981 2.53932 4.97309 2.55123 5.29901C2.56641 5.71437 2.6409 6.13168 2.77834 6.53466C2.82488 6.67111 2.79162 6.82205 2.68967 6.924L2.38295 7.23073C1.72609 7.88759 1.70549 8.95713 2.35588 9.62041C3.01269 10.2902 4.09226 10.2942 4.75411 9.63237L6.32911 8.0576C6.98984 7.39688 6.98707 6.32893 6.32911 5.67097C6.24237 5.58439 6.15499 5.51712 6.08674 5.47013C6.03846 5.43697 5.9986 5.39299 5.97033 5.3417C5.94206 5.2904 5.92617 5.2332 5.92392 5.17468C5.91464 4.92701 6.00239 4.6718 6.1981 4.4761L6.69155 3.98262C6.82095 3.85323 7.02394 3.83734 7.17399 3.94205C7.34582 4.06204 7.50677 4.19691 7.65497 4.34511ZM10.9581 1.04178C9.5692 -0.347168 7.30915 -0.347355 5.92001 1.04178L4.34501 2.61678C4.3422 2.61959 4.33915 2.62264 4.33658 2.62545C2.96394 4.00573 2.94469 6.25313 4.34501 7.6549C4.4932 7.80309 4.65414 7.93795 4.82597 8.05793C4.97602 8.16265 5.17904 8.14674 5.30841 8.01736L5.80186 7.52388C5.99757 7.32818 6.08531 7.07297 6.07603 6.82531C6.07379 6.76678 6.0579 6.70959 6.02963 6.65829C6.00136 6.60699 5.9615 6.56301 5.91321 6.52985C5.84496 6.48286 5.75759 6.4156 5.67085 6.32902C5.01289 5.67106 5.01012 4.60311 5.67085 3.94238L7.24584 2.36762C7.90769 1.70577 8.98725 1.70975 9.64408 2.37957C10.2945 3.04285 10.2739 4.1124 9.61701 4.76926L9.31029 5.07598C9.20833 5.17793 9.17508 5.32887 9.22162 5.46532C9.35906 5.86831 9.43354 6.28561 9.44873 6.70097C9.46066 7.02689 9.85781 7.18017 10.0884 6.94955L10.9581 6.07988C12.3473 4.691 12.3473 2.43069 10.9581 1.04178Z" />
</svg>
