<svg xmlns="http://www.w3.org/2000/svg" width="16" height="16" viewBox="0 0 16 16">
  <path fill-rule="evenodd" clip-rule="evenodd"
    d="M8 14C11.3137 14 14 11.3137 14 8C14 4.68628 11.3137 2 8 2C4.68628 2 2 4.68628 2 8C2 11.3137 4.68628 14 8 14ZM11.7576 6.72533L7.30597 11.1769C7.15479 11.3281 6.90971 11.3281 6.75852 11.1769L4.24239 8.66079C4.09123 8.50963 4.09123 8.26453 4.24239 8.11337L4.78982 7.56594C4.941 7.41478 5.18611 7.41478 5.33727 7.56594L7.03225 9.26091L10.6627 5.63048C10.8139 5.47929 11.059 5.47929 11.2102 5.63048L11.7576 6.17791C11.9087 6.32907 11.9087 6.57417 11.7576 6.72533Z" />
</svg>