<svg xmlns="http://www.w3.org/2000/svg" width="33" height="32" viewBox="0 0 33 32">
  <path
    d="M32 16C32 16.0562 32 16.1125 32 16.1688C31.975 18.45 29.9 20 27.6187 20H21.5C19.8438 20 18.5 21.3438 18.5 23C18.5 23.2125 18.525 23.4187 18.5625 23.6187C18.6938 24.2563 18.9688 24.8687 19.2375 25.4875C19.6187 26.35 19.9937 27.2062 19.9937 28.1125C19.9937 30.1 18.6437 31.9062 16.6562 31.9875C16.4375 31.9937 16.2188 32 15.9937 32C7.1625 32 0 24.8375 0 16C0 7.1625 7.1625 0 16 0C24.8375 0 32 7.1625 32 16ZM8 18C8 16.8937 7.10625 16 6 16C4.89375 16 4 16.8937 4 18C4 19.1063 4.89375 20 6 20C7.10625 20 8 19.1063 8 18ZM8 12C9.10625 12 10 11.1062 10 10C10 8.89375 9.10625 8 8 8C6.89375 8 6 8.89375 6 10C6 11.1062 6.89375 12 8 12ZM18 6C18 4.89375 17.1063 4 16 4C14.8938 4 14 4.89375 14 6C14 7.10625 14.8938 8 16 8C17.1063 8 18 7.10625 18 6ZM24 12C25.1063 12 26 11.1062 26 10C26 8.89375 25.1063 8 24 8C22.8937 8 22 8.89375 22 10C22 11.1062 22.8937 12 24 12Z" />
</svg>