<svg width="27" height="27" viewBox="0 0 27 27" xmlns="http://www.w3.org/2000/svg">
  <path
    d="M24.5455 0H2.45455C1.09841 0 0 1.09841 0 2.45455V24.5455C0 25.9016 1.09841 27 2.45455 27H24.5455C25.9016 27 27 25.9016 27 24.5455V2.45455C27 1.09841 25.9004 0 24.5455 0ZM22.9365 11.6272C22.777 11.6419 22.6162 11.6517 22.4542 11.6517C20.6194 11.6517 19.0068 10.7092 18.0679 9.28186C18.0679 13.0238 18.0679 17.2825 18.0679 17.3536C18.0679 20.6489 15.3961 23.3194 12.1021 23.3194C8.80814 23.3182 6.13636 20.6464 6.13636 17.3524C6.13636 14.0572 8.80814 11.3866 12.1021 11.3866C12.2273 11.3866 12.3488 11.3977 12.4703 11.405V14.3456C12.3476 14.3309 12.2285 14.3088 12.1021 14.3088C10.4208 14.3088 9.05727 15.6723 9.05727 17.3536C9.05727 19.035 10.4195 20.3985 12.1021 20.3985C13.7847 20.3985 15.2697 19.073 15.2697 17.3917C15.2697 17.3242 15.2992 3.68305 15.2992 3.68305H18.1084C18.3723 6.19527 20.401 8.17855 22.9365 8.36018V11.6272Z" />
</svg>