<svg width="32" height="32" viewBox="0 0 32 32" xmlns="http://www.w3.org/2000/svg">
  <g clip-path="url(#clip0_1406_306)">
    <path
      d="M18.5 23.9988H13.5C12.6687 23.9988 12 23.33 12 22.4986V11.9971H6.51875C5.40625 11.9971 4.85 10.6531 5.6375 9.86551L15.1438 0.351614C15.6125 -0.117205 16.3813 -0.117205 16.85 0.351614L26.3625 9.86551C27.15 10.6531 26.5938 11.9971 25.4813 11.9971H20V22.4986C20 23.33 19.3312 23.9988 18.5 23.9988ZM32 23.4988V30.4998C32 31.3312 31.3312 32 30.5 32H1.5C0.66875 32 0 31.3312 0 30.4998V23.4988C0 22.6674 0.66875 21.9985 1.5 21.9985H10V22.4986C10 24.4301 11.5688 25.9991 13.5 25.9991H18.5C20.4312 25.9991 22 24.4301 22 22.4986V21.9985H30.5C31.3312 21.9985 32 22.6674 32 23.4988ZM24.25 28.9996C24.25 28.312 23.6875 27.7494 23 27.7494C22.3125 27.7494 21.75 28.312 21.75 28.9996C21.75 29.6872 22.3125 30.2497 23 30.2497C23.6875 30.2497 24.25 29.6872 24.25 28.9996ZM28.25 28.9996C28.25 28.312 27.6875 27.7494 27 27.7494C26.3125 27.7494 25.75 28.312 25.75 28.9996C25.75 29.6872 26.3125 30.2497 27 30.2497C27.6875 30.2497 28.25 29.6872 28.25 28.9996Z" />
  </g>
  <defs>
    <clipPath id="clip0_1406_306">
      <rect width="32" height="32" fill="white" />
    </clipPath>
  </defs>
</svg>