<svg xmlns="http://www.w3.org/2000/svg" width="32" height="32" viewBox="0 0 32 32">
  <g clip-path="url(#clip0_517_375)">
    <path
      d="M13.4394 4.44061L7.87875 9.99999H1.5C0.67125 9.99999 0 10.6712 0 11.5V20.5C0 21.3281 0.67125 22 1.5 22H7.87875L13.4394 27.5594C14.3787 28.4988 16 27.8388 16 26.4988V5.50124C16 4.15998 14.3775 3.50248 13.4394 4.44061ZM28.8525 16L31.705 13.1475C32.0988 12.7537 32.0988 12.115 31.705 11.7212L30.2787 10.295C29.885 9.90124 29.2463 9.90124 28.8525 10.295L26 13.1475L23.1475 10.295C22.7537 9.90124 22.115 9.90124 21.7213 10.295L20.295 11.7212C19.9013 12.115 19.9013 12.7537 20.295 13.1475L23.1475 16L20.2956 18.8519C19.9019 19.2456 19.9019 19.8844 20.2956 20.2781L21.7219 21.7044C22.1156 22.0981 22.7544 22.0981 23.1481 21.7044L26 18.8525L28.8525 21.705C29.2463 22.0988 29.885 22.0988 30.2787 21.705L31.705 20.2788C32.0988 19.885 32.0988 19.2463 31.705 18.8525L28.8525 16Z" />
  </g>
  <defs>
    <clipPath id="clip0_517_375">
      <rect width="32" height="32" fill="white" />
    </clipPath>
  </defs>
</svg>