<svg width="39" height="15" viewBox="0 0 39 15" fill="none" xmlns="http://www.w3.org/2000/svg">
<g clip-path="url(#clip0_2321_231)">
<path d="M15.0025 2.55939C14.5266 2.35998 14.0236 2.23653 13.5111 2.19334C11.0675 2.01368 8.99042 3.70298 8.66904 6.19042C8.43561 7.99584 9.03686 9.47645 10.5275 10.5207C11.9383 11.5095 13.454 11.5869 15.0329 11.0063C15.1102 10.9781 15.1394 10.9385 15.139 10.8552C15.1369 10.0095 15.139 9.16425 15.139 8.30383C13.8497 9.64811 12.1302 9.25219 11.4299 8.37283C10.6688 7.41564 10.779 5.77683 11.6786 4.94375C12.5692 4.11909 14.1999 4.15906 15.1377 5.30223C15.1377 4.4073 15.1377 3.56119 15.1377 2.71507C15.1394 2.60862 15.0744 2.58842 15.0025 2.55939Z" fill="#333333"/>
<path d="M21.0956 9.22106C20.3353 9.22653 19.575 9.21811 18.8151 9.22779C18.6466 9.22989 18.6137 9.17478 18.6146 9.01489C18.6216 7.94914 18.6183 6.88297 18.6183 5.81723C18.6183 4.74475 18.6146 3.67142 18.622 2.59894C18.622 2.43822 18.5772 2.40035 18.4259 2.40246C17.8165 2.41129 17.2066 2.40919 16.5971 2.40246C16.466 2.40246 16.4035 2.42097 16.4039 2.58085C16.4089 5.37853 16.4089 8.17621 16.4039 10.9739C16.4039 11.0963 16.4286 11.1464 16.5614 11.146C18.0819 11.1418 19.6025 11.1418 21.1231 11.146C21.2514 11.146 21.2875 11.1039 21.2846 10.9777C21.2789 10.4517 21.2756 9.92581 21.2846 9.39987C21.2883 9.23999 21.2283 9.22022 21.0956 9.22106Z" fill="#333333"/>
<path d="M39.0012 4.5352C39.0028 3.85479 38.879 3.18018 38.6363 2.54676C38.3567 1.79872 37.8622 1.15505 37.2179 0.700739C36.5736 0.246426 35.8099 0.00282442 35.0276 0.00209198C32.138 -1.17522e-05 29.2468 -0.00337772 26.3569 0.00503719C25.394 2.94701e-05 24.4612 0.347581 23.7266 0.984954C22.617 1.93163 22.1374 3.19934 22.1288 4.64544C22.1091 8.03202 22.1222 11.4194 22.1234 14.8052C22.1234 14.8653 22.1013 14.9314 22.1567 15.0021C22.389 14.4338 22.814 13.9706 23.3535 13.6978C23.8738 13.4268 24.4331 13.3566 25.0081 13.357C27.9051 13.3587 30.8022 13.3587 33.6993 13.357C34.3519 13.357 34.9963 13.2951 35.6309 13.1264C37.6639 12.5858 38.9955 10.8291 38.9963 8.67955C38.998 7.29782 38.9922 5.91651 39.0012 4.5352ZM28.7553 11.1119C28.6373 11.1119 28.5876 11.0458 28.5305 10.9642C27.9453 10.1266 27.3591 9.28963 26.7719 8.45319C26.7485 8.41995 26.7243 8.38755 26.6976 8.35053C26.6371 8.40606 26.6659 8.47212 26.6659 8.5285C26.6635 9.32792 26.6606 10.1273 26.6659 10.9268C26.6659 11.0778 26.6211 11.1148 26.4802 11.1127C25.9048 11.1057 25.3294 11.1057 24.7541 11.1127C24.616 11.1127 24.5663 11.0833 24.5663 10.9293C24.5712 8.14646 24.5712 5.36351 24.5663 2.58042C24.5663 2.4441 24.586 2.38267 24.7417 2.38477C25.8645 2.40034 26.9873 2.37341 28.1117 2.40792C29.1667 2.44031 30.0022 2.85895 30.5459 3.81194C31.1998 4.961 31.0152 6.60443 30.1395 7.47832C29.7799 7.83764 29.3426 8.03917 28.8174 8.14352L31.1262 11.1077C30.3018 11.1077 29.5283 11.1077 28.7553 11.1119ZM37.195 7.03065C35.6994 8.2581 34.2036 9.48486 32.7076 10.7109C32.6862 10.7286 32.6665 10.7467 32.6435 10.7635C32.6033 10.7967 32.5548 10.8178 32.5035 10.8243C32.4523 10.8307 32.4002 10.8224 32.3534 10.8001C32.242 10.753 32.2712 10.6491 32.2712 10.5628C32.2642 9.27995 32.2605 7.99626 32.2523 6.71383C32.244 5.43139 32.2325 4.14728 32.2181 2.86611C32.2181 2.71632 32.2453 2.61366 32.4154 2.61871C32.4972 2.62505 32.5744 2.65962 32.6345 2.71674C34.1542 3.96888 35.6748 5.22046 37.1963 6.47148C37.4395 6.67091 37.4367 6.83121 37.195 7.02938V7.03065Z" fill="#333333"/>
<path d="M5.76142 2.57285C5.7158 2.44663 5.65785 2.40161 5.52593 2.40455C4.84125 2.41129 4.15616 2.41339 3.47107 2.40455C3.3186 2.40455 3.25777 2.45967 3.20805 2.59599C2.96146 3.27129 2.70748 3.94238 2.45474 4.61557C1.6406 6.78073 0.825643 8.94841 0 11.1443C0.733174 11.1443 1.45114 11.1397 2.1687 11.1485C2.31295 11.1485 2.37007 11.0963 2.41528 10.9667C2.55871 10.5729 2.72146 10.1867 2.86406 9.79285C2.90968 9.66662 2.96927 9.62455 3.09996 9.62455C4.01122 9.63044 4.92207 9.63044 5.83251 9.62455C5.96854 9.62455 6.02238 9.67714 6.06471 9.79958C6.20116 10.1951 6.35239 10.5847 6.48966 10.9802C6.53075 11.1064 6.5961 11.1485 6.72761 11.1485C7.38516 11.1413 8.04272 11.1401 8.70028 11.1485C8.87781 11.151 8.9033 11.1157 8.83918 10.9427C7.80929 8.15432 6.78337 5.36436 5.76142 2.57285ZM5.17126 7.90706C4.68631 7.90706 4.20137 7.90454 3.71601 7.90706C3.59272 7.90706 3.53313 7.88897 3.58121 7.74424C3.87273 6.8674 4.16232 5.98987 4.45 5.11163L4.50548 5.10574C4.57083 5.3077 4.63494 5.50966 4.7007 5.71077L5.34469 7.67229C5.42072 7.90664 5.4199 7.90706 5.17126 7.90706Z" fill="#333333"/>
<path d="M27.9309 4.41404C27.5454 4.33452 27.1546 4.38711 26.7666 4.37197C26.6433 4.3665 26.6651 4.45359 26.6647 4.5268C26.6647 4.8763 26.6647 5.22608 26.6647 5.57614C26.6647 5.92578 26.6647 6.27584 26.6647 6.62548C26.6647 6.70963 26.6618 6.77568 26.7777 6.7719C27.1476 6.75928 27.5174 6.7942 27.8824 6.72982C28.4939 6.62338 28.833 6.21273 28.8416 5.56562C28.8502 4.92819 28.5424 4.54026 27.9309 4.41404Z" fill="#333333"/>
</g>
<defs>
<clipPath id="clip0_2321_231">
<rect width="39" height="15" fill="white"/>
</clipPath>
</defs>
</svg>
