<svg width="28" height="32" viewBox="0 0 28 32" fill="#ffffff" xmlns="http://www.w3.org/2000/svg">
<g clip-path="url(#clip0_12_216)">
<path d="M16.0937 27.8188L14.7062 29.2063C14.1187 29.7938 13.1687 29.7938 12.5874 29.2063L0.43745 17.0625C-0.150049 16.475 -0.150049 15.525 0.43745 14.9438L12.5874 2.79374C13.1749 2.20624 14.1249 2.20624 14.7062 2.79374L16.0937 4.18125C16.6874 4.775 16.6749 5.74375 16.0687 6.325L8.53744 13.5H26.4999C27.3312 13.5 27.9999 14.1688 27.9999 15V17C27.9999 17.8313 27.3312 18.5 26.4999 18.5H8.53744L16.0687 25.675C16.6812 26.2563 16.6937 27.225 16.0937 27.8188Z" />
</g>
<defs>
<clipPath id="clip0_12_216">
<rect width="28" height="32" fill="white"/>
</clipPath>
</defs>
</svg>
