<svg width="28" height="32" viewBox="0 0 28 32" fill="#ffffff" xmlns="http://www.w3.org/2000/svg">
<path d="M10 2V4H18V2C18 0.895625 18.8937 0 20 0C21.1063 0 22 0.895625 22 2V4H25C26.6562 4 28 5.34312 28 7V10H0V7C0 5.34312 1.34312 4 3 4H6V2C6 0.895625 6.89375 0 8 0C9.10625 0 10 0.895625 10 2ZM0 12H28V29C28 30.6562 26.6562 32 25 32H3C1.34312 32 0 30.6562 0 29V12ZM4 19C4 19.55 4.4475 20 5 20H7C7.55 20 8 19.55 8 19V17C8 16.45 7.55 16 7 16H5C4.4475 16 4 16.45 4 17V19ZM12 19C12 19.55 12.45 20 13 20H15C15.55 20 16 19.55 16 19V17C16 16.45 15.55 16 15 16H13C12.45 16 12 16.45 12 17V19ZM21 16C20.45 16 20 16.45 20 17V19C20 19.55 20.45 20 21 20H23C23.55 20 24 19.55 24 19V17C24 16.45 23.55 16 23 16H21ZM4 27C4 27.55 4.4475 28 5 28H7C7.55 28 8 27.55 8 27V25C8 24.45 7.55 24 7 24H5C4.4475 24 4 24.45 4 25V27ZM13 24C12.45 24 12 24.45 12 25V27C12 27.55 12.45 28 13 28H15C15.55 28 16 27.55 16 27V25C16 24.45 15.55 24 15 24H13ZM20 27C20 27.55 20.45 28 21 28H23C23.55 28 24 27.55 24 27V25C24 24.45 23.55 24 23 24H21C20.45 24 20 24.45 20 25V27Z" />
</svg>
