<svg xmlns="http://www.w3.org/2000/svg" width="38" height="32" viewBox="0 0 38 32" fill="#fff">
  <path 
    d="M4.66667 2.28571V1.14286C4.66667 0.511429 5.18875 0 5.83333 0H10.5C11.1417 0 11.6667 0.511429 11.6667 1.14286V2.28571H14L17.6823 0.482857C18.3312 0.165 19.0458 0 19.7677 0H32.6667C35.2406 0 37.3333 2.04643 37.3333 4.57143V27.4286C37.3333 29.95 35.2406 32 32.6667 32H4.66667C2.08906 32 0 29.95 0 27.4286V6.85714C0 4.33214 2.08906 2.28571 4.66667 2.28571ZM16.0854 6.37143C15.4365 6.69286 14.7219 6.85714 14 6.85714H4.66667V11.4286H13.0375C14.6417 10.35 16.574 9.71429 18.6667 9.71429C20.7594 9.71429 22.6917 10.35 24.2958 11.4286H32.6667V4.57143H19.7677L16.0854 6.37143ZM18.6667 13.1429C15.1229 13.1429 12.25 15.9571 12.25 19.4286C12.25 22.9 15.1229 25.7143 18.6667 25.7143C22.2104 25.7143 25.0833 22.9 25.0833 19.4286C25.0833 15.9571 22.2104 13.1429 18.6667 13.1429Z" />
</svg>