<svg width="32" height="32" viewBox="0 0 32 32" fill="#ffffff" xmlns="http://www.w3.org/2000/svg">
<g clip-path="url(#clip0_102_100)">
<path d="M16 0.5C7.4375 0.5 0.5 7.4375 0.5 16C0.5 24.5625 7.4375 31.5 16 31.5C24.5625 31.5 31.5 24.5625 31.5 16C31.5 7.4375 24.5625 0.5 16 0.5ZM16 28.5C9.09375 28.5 3.5 22.9062 3.5 16C3.5 9.09375 9.09375 3.5 16 3.5C22.9062 3.5 28.5 9.09375 28.5 16C28.5 22.9062 22.9062 28.5 16 28.5ZM22.3625 12.1125L18.475 16L22.3625 19.8875C22.6562 20.1813 22.6562 20.6562 22.3625 20.95L20.95 22.3625C20.6562 22.6562 20.1813 22.6562 19.8875 22.3625L16 18.475L12.1125 22.3625C11.8188 22.6562 11.3438 22.6562 11.05 22.3625L9.6375 20.95C9.34375 20.6562 9.34375 20.1813 9.6375 19.8875L13.525 16L9.6375 12.1125C9.34375 11.8188 9.34375 11.3438 9.6375 11.05L11.05 9.6375C11.3438 9.34375 11.8188 9.34375 12.1125 9.6375L16 13.525L19.8875 9.6375C20.1813 9.34375 20.6562 9.34375 20.95 9.6375L22.3625 11.05C22.6562 11.3438 22.6562 11.8188 22.3625 12.1125Z" />
</g>
<defs>
<clipPath id="clip0_102_100">
<rect width="32" height="32" fill="white"/>
</clipPath>
</defs>
</svg>
