<svg width="32" height="32" viewBox="0 0 32 32" fill="#ffffff" xmlns="http://www.w3.org/2000/svg">
<path fill-rule="evenodd" clip-rule="evenodd" d="M0 16C0 7.16129 7.16129 0 16 0C24.8387 0 32 7.16129 32 16C32 24.8387 24.8387 32 16 32C7.16129 32 0 24.8387 0 16ZM23.8451 21.2967C24.1484 20.9935 24.1484 20.5032 23.8451 20.1999L19.6129 15.9999L23.8516 11.8064C24.1548 11.5032 24.1548 11.0128 23.8516 10.7096L21.2967 8.15477C20.9935 7.85154 20.5032 7.85154 20.2 8.15477L16 12.387L11.8064 8.14832C11.5032 7.84509 11.0129 7.84509 10.7096 8.14832L8.15481 10.7032C7.85158 11.0064 7.85158 11.4967 8.15481 11.7999L12.3871 15.9999L8.15481 20.1935C7.85158 20.4967 7.85158 20.987 8.15481 21.2903L10.7032 23.8451C11.0064 24.1483 11.4967 24.1483 11.8 23.8451L16 19.6128L20.1935 23.8451C20.4967 24.1483 20.9871 24.1483 21.2903 23.8451L23.8451 21.2967Z" />
</svg>
