<svg width="32" height="32" viewBox="0 0 32 32" fill="#ffffff" xmlns="http://www.w3.org/2000/svg">
<path fill-rule="evenodd" clip-rule="evenodd" d="M16 32C24.8366 32 32 24.8366 32 16C32 7.16342 24.8366 0 16 0C7.16342 0 0 7.16342 0 16C0 24.8366 7.16342 32 16 32ZM26.0202 12.6009L14.1493 24.4719C13.7461 24.875 13.0925 24.875 12.6894 24.4718L5.97971 17.7621C5.57661 17.359 5.57661 16.7054 5.97971 16.3023L7.43951 14.8425C7.84268 14.4394 8.49629 14.4394 8.89939 14.8425L13.4193 19.3624L23.1005 9.68128C23.5037 9.27812 24.1573 9.27812 24.5604 9.68128L26.0202 11.1411C26.4233 11.5442 26.4233 12.1978 26.0202 12.6009Z" />
</svg>
