<svg xmlns="http://www.w3.org/2000/svg" width="32" height="32" viewBox="0 0 32 32" fill="#fff">
  <path
    d="M14.5 7.5C14.5 6.66875 15.1687 6 16 6C16.8312 6 17.5 6.66875 17.5 7.5V15.2L22.8312 18.75C23.5187 19.2125 23.7063 20.1437 23.1938 20.8312C22.7875 21.5187 21.8563 21.7063 21.1688 21.1938L15.1687 17.1938C14.75 16.9688 14.5 16.5 14.5 15.9438V7.5ZM16 0C24.8375 0 32 7.1625 32 16C32 24.8375 24.8375 32 16 32C7.1625 32 0 24.8375 0 16C0 7.1625 7.1625 0 16 0ZM3 16C3 23.1812 8.81875 29 16 29C23.1812 29 29 23.1812 29 16C29 8.81875 23.1812 3 16 3C8.81875 3 3 8.81875 3 16Z" />
</svg>