<svg width="32" height="32" viewBox="0 0 32 32" fill="#ffffff" xmlns="http://www.w3.org/2000/svg">
<g clip-path="url(#clip0_917_91)">
<path fill-rule="evenodd" clip-rule="evenodd" d="M15.4325 0.719898C15.7459 0.406499 16.2541 0.406499 16.5675 0.719898L21.6746 5.82703C21.988 6.14043 21.988 6.64854 21.6746 6.96194C21.3612 7.27534 20.8531 7.27534 20.5397 6.96194L16.8025 3.22478V15.1975H28.7752L25.0381 11.4603C24.7247 11.1469 24.7247 10.6388 25.0381 10.3254C25.3515 10.012 25.8596 10.012 26.173 10.3254L31.2801 15.4325C31.5935 15.7459 31.5935 16.2541 31.2801 16.5675L26.173 21.6746C25.8596 21.988 25.3515 21.988 25.0381 21.6746C24.7247 21.3612 24.7247 20.8531 25.0381 20.5397L28.7752 16.8025H16.8025V28.7752L20.5397 25.0381C20.8531 24.7247 21.3612 24.7247 21.6746 25.0381C21.988 25.3515 21.988 25.8596 21.6746 26.173L16.5675 31.2801C16.2541 31.5935 15.7459 31.5935 15.4325 31.2801L10.3254 26.173C10.012 25.8596 10.012 25.3515 10.3254 25.0381C10.6388 24.7247 11.1469 24.7247 11.4603 25.0381L15.1975 28.7752V16.8025H3.22478L6.96194 20.5397C7.27534 20.8531 7.27534 21.3612 6.96194 21.6746C6.64854 21.988 6.14043 21.988 5.82703 21.6746L0.719898 16.5675C0.406499 16.2541 0.406499 15.7459 0.719898 15.4325L5.82703 10.3254C6.14043 10.012 6.64854 10.012 6.96194 10.3254C7.27534 10.6388 7.27534 11.1469 6.96194 11.4603L3.22478 15.1975H15.1975V3.22478L11.4603 6.96194C11.1469 7.27534 10.6388 7.27534 10.3254 6.96194C10.012 6.64854 10.012 6.14043 10.3254 5.82703L15.4325 0.719898Z" fill="#2D2D2F"/>
<path fill-rule="evenodd" clip-rule="evenodd" d="M15.0897 0.377058C15.5924 -0.125686 16.4076 -0.125686 16.9103 0.377058L22.0174 5.48419C22.5202 5.98693 22.5202 6.80204 22.0174 7.30478C21.5147 7.80753 20.6996 7.80753 20.1968 7.30478L17.2874 4.39531V14.7126H27.6047L24.6952 11.8032C24.1925 11.3004 24.1925 10.4853 24.6952 9.98257C25.198 9.47983 26.0131 9.47983 26.5158 9.98257L31.6229 15.0897C32.1257 15.5924 32.1257 16.4076 31.6229 16.9103L26.5158 22.0174C26.0131 22.5202 25.198 22.5202 24.6952 22.0174C24.1925 21.5147 24.1925 20.6996 24.6952 20.1968L27.6047 17.2874H17.2874V27.6047L20.1968 24.6952C20.6996 24.1925 21.5147 24.1925 22.0174 24.6952C22.5202 25.198 22.5202 26.0131 22.0174 26.5158L16.9103 31.6229C16.4076 32.1257 15.5924 32.1257 15.0897 31.6229L9.98257 26.5158C9.47983 26.0131 9.47983 25.198 9.98257 24.6952C10.4853 24.1925 11.3004 24.1925 11.8032 24.6952L14.7126 27.6047V17.2874H4.39531L7.30478 20.1968C7.80753 20.6996 7.80753 21.5147 7.30478 22.0174C6.80204 22.5202 5.98693 22.5202 5.48419 22.0174L0.377058 16.9103C-0.125686 16.4076 -0.125686 15.5924 0.377058 15.0897L5.48419 9.98257C5.98693 9.47983 6.80204 9.47983 7.30478 9.98257C7.80753 10.4853 7.80753 11.3004 7.30478 11.8032L4.39531 14.7126H14.7126V4.39531L11.8032 7.30478C11.3004 7.80753 10.4853 7.80753 9.98257 7.30478C9.47983 6.80204 9.47983 5.98693 9.98257 5.48419L15.0897 0.377058ZM16.2246 1.06274C16.1006 0.938684 15.8994 0.938684 15.7754 1.06274L10.6683 6.16987C10.5442 6.29392 10.5442 6.49505 10.6683 6.6191C10.7923 6.74316 10.9934 6.74316 11.1175 6.6191L14.8547 2.88194C14.9933 2.74328 15.2019 2.70179 15.383 2.77684C15.5642 2.85189 15.6823 3.02868 15.6823 3.22478V15.1975C15.6823 15.4653 15.4653 15.6823 15.1975 15.6823H3.22478C3.02868 15.6823 2.85189 15.5642 2.77684 15.383C2.70179 15.2019 2.74328 14.9933 2.88194 14.8547L6.6191 11.1175C6.74316 10.9934 6.74316 10.7923 6.6191 10.6683C6.49505 10.5442 6.29392 10.5442 6.16987 10.6683L1.06274 15.7754C0.938684 15.8994 0.938684 16.1006 1.06274 16.2246L6.16987 21.3317C6.29392 21.4558 6.49505 21.4558 6.6191 21.3317C6.74316 21.2077 6.74316 21.0066 6.6191 20.8825L2.88194 17.1453C2.74328 17.0067 2.70179 16.7981 2.77684 16.617C2.85189 16.4358 3.02868 16.3177 3.22478 16.3177H15.1975C15.4653 16.3177 15.6823 16.5347 15.6823 16.8025V28.7752C15.6823 28.9713 15.5642 29.1481 15.383 29.2232C15.2019 29.2982 14.9933 29.2567 14.8547 29.1181L11.1175 25.3809C10.9934 25.2568 10.7923 25.2568 10.6683 25.3809C10.5442 25.5049 10.5442 25.7061 10.6683 25.8301L15.7754 30.9373C15.8994 31.0613 16.1006 31.0613 16.2246 30.9373L21.3317 25.8301C21.4558 25.7061 21.4558 25.5049 21.3317 25.3809C21.2077 25.2568 21.0066 25.2568 20.8825 25.3809L17.1453 29.1181C17.0067 29.2567 16.7981 29.2982 16.617 29.2232C16.4358 29.1481 16.3177 28.9713 16.3177 28.7752V16.8025C16.3177 16.5347 16.5347 16.3177 16.8025 16.3177H28.7752C28.9713 16.3177 29.1481 16.4358 29.2232 16.617C29.2982 16.7981 29.2567 17.0067 29.1181 17.1453L25.3809 20.8825C25.2568 21.0066 25.2568 21.2077 25.3809 21.3317C25.5049 21.4558 25.7061 21.4558 25.8301 21.3317L30.9373 16.2246C31.0613 16.1006 31.0613 15.8994 30.9373 15.7754L25.8301 10.6683C25.7061 10.5442 25.5049 10.5442 25.3809 10.6683C25.2568 10.7923 25.2568 10.9934 25.3809 11.1175L29.1181 14.8547C29.2567 14.9933 29.2982 15.2019 29.2232 15.383C29.1481 15.5642 28.9713 15.6823 28.7752 15.6823H16.8025C16.5347 15.6823 16.3177 15.4653 16.3177 15.1975V3.22478C16.3177 3.02868 16.4358 2.85189 16.617 2.77684C16.7981 2.70179 17.0067 2.74328 17.1453 2.88194L20.8825 6.6191C21.0066 6.74316 21.2077 6.74316 21.3317 6.6191C21.4558 6.49505 21.4558 6.29392 21.3317 6.16987L16.2246 1.06274Z" />
</g>
<defs>
<clipPath id="clip0_917_91">
<rect width="32" height="32" fill="white"/>
</clipPath>
</defs>
</svg>
