<svg width="12" height="32" viewBox="0 0 12 32" fill="#ffffff" xmlns="http://www.w3.org/2000/svg">
<path d="M6 11.5C8.4875 11.5 10.5 13.5125 10.5 16C10.5 18.4875 8.4875 20.5 6 20.5C3.5125 20.5 1.5 18.4875 1.5 16C1.5 13.5125 3.5125 11.5 6 11.5ZM1.5 5C1.5 7.4875 3.5125 9.5 6 9.5C8.4875 9.5 10.5 7.4875 10.5 5C10.5 2.5125 8.4875 0.5 6 0.5C3.5125 0.5 1.5 2.5125 1.5 5ZM1.5 27C1.5 29.4875 3.5125 31.5 6 31.5C8.4875 31.5 10.5 29.4875 10.5 27C10.5 24.5125 8.4875 22.5 6 22.5C3.5125 22.5 1.5 24.5125 1.5 27Z" />
</svg>
