<svg xmlns="http://www.w3.org/2000/svg" width="16" height="16" viewBox="0 0 16 16" fill="#fff">
  <path fill-rule="evenodd" clip-rule="evenodd"
    d="M2 8C2 4.68548 4.68548 2 8 2C11.3145 2 14 4.68548 14 8C14 11.3145 11.3145 14 8 14C4.68548 14 2 11.3145 2 8ZM10.9419 9.98627C11.0556 9.87255 11.0556 9.68868 10.9419 9.57497L9.35483 7.99997L10.9443 6.42739C11.0581 6.31368 11.0581 6.12981 10.9443 6.0161L9.98628 5.05804C9.87257 4.94433 9.6887 4.94433 9.57499 5.05804L7.99999 6.64514L6.42741 5.05562C6.3137 4.94191 6.12983 4.94191 6.01612 5.05562L5.05805 6.01368C4.94434 6.12739 4.94434 6.31126 5.05805 6.42497L6.64515 7.99997L5.05805 9.57256C4.94434 9.68626 4.94434 9.87014 5.05805 9.98385L6.0137 10.9419C6.12741 11.0556 6.31128 11.0556 6.42499 10.9419L7.99999 9.35481L9.57257 10.9419C9.68628 11.0556 9.87015 11.0556 9.98386 10.9419L10.9419 9.98627Z" />
</svg>