<svg xmlns="http://www.w3.org/2000/svg" width="32" height="32" viewBox="0 0 32 32" fill="#fff">
  <path fill-rule="evenodd" clip-rule="evenodd" d="M1.11578 1.11578C2.6035 -0.371928 5.01555 -0.371928 6.50326 1.11578L16 10.6125L25.4967 1.11578C26.9844 -0.371928 29.3965 -0.371928 30.8842 1.11578C32.3719 2.6035 32.3719 5.01555 30.8842 6.50326L21.3875 16L30.8842 25.4967C32.3719 26.9844 32.3719 29.3965 30.8842 30.8842C29.3965 32.3719 26.9844 32.3719 25.4967 30.8842L16 21.3875L6.50327 30.8842C5.01555 32.3719 2.6035 32.3719 1.11578 30.8842C-0.371927 29.3965 -0.371927 26.9844 1.11578 25.4967L10.6125 16L1.11578 6.50326C-0.371928 5.01555 -0.371928 2.6035 1.11578 1.11578Z"/>
</svg>