<svg width="32" height="32" viewBox="0 0 32 32" fill="none" xmlns="http://www.w3.org/2000/svg">
<g clip-path="url(#clip0_40_476)">
<path d="M27 20H25C24.7348 20 24.4804 20.1054 24.2929 20.2929C24.1054 20.4804 24 20.7348 24 21V28H4V8H13C13.2652 8 13.5196 7.89464 13.7071 7.70711C13.8946 7.51957 14 7.26522 14 7V5C14 4.73478 13.8946 4.48043 13.7071 4.29289C13.5196 4.10536 13.2652 4 13 4H3C2.20435 4 1.44129 4.31607 0.87868 4.87868C0.31607 5.44129 0 6.20435 0 7L0 29C0 29.7956 0.31607 30.5587 0.87868 31.1213C1.44129 31.6839 2.20435 32 3 32H25C25.7956 32 26.5587 31.6839 27.1213 31.1213C27.6839 30.5587 28 29.7956 28 29V21C28 20.7348 27.8946 20.4804 27.7071 20.2929C27.5196 20.1054 27.2652 20 27 20ZM30.5 0H22.5C21.1644 0 20.4969 1.61937 21.4375 2.5625L23.6706 4.79563L8.4375 20.0231C8.29766 20.1625 8.1867 20.3281 8.111 20.5104C8.03529 20.6927 7.99632 20.8882 7.99632 21.0856C7.99632 21.283 8.03529 21.4785 8.111 21.6609C8.1867 21.8432 8.29766 22.0088 8.4375 22.1481L9.85437 23.5625C9.99373 23.7023 10.1593 23.8133 10.3416 23.889C10.524 23.9647 10.7195 24.0037 10.9169 24.0037C11.1143 24.0037 11.3098 23.9647 11.4921 23.889C11.6744 23.8133 11.84 23.7023 11.9794 23.5625L27.205 8.3325L29.4375 10.5625C30.375 11.5 32 10.8438 32 9.5V1.5C32 1.10218 31.842 0.720644 31.5607 0.43934C31.2794 0.158035 30.8978 0 30.5 0Z" fill="#2D2D2F"/>
</g>
<defs>
<clipPath id="clip0_40_476">
<rect width="32" height="32" fill="white"/>
</clipPath>
</defs>
</svg>
