<svg width="32" height="30" viewBox="0 0 32 30" fill="#ffffff" xmlns="http://www.w3.org/2000/svg">
    <path
        d="M15.5333 9.1895C15.6889 9.17231 15.8445 9.16659 16 9.16659C18.9445 9.16659 21.3333 11.5786 21.3333 14.6666C21.3333 17.703 18.9445 20.1666 16 20.1666C13.0056 20.1666 10.6667 17.703 10.6667 14.6666C10.6667 14.5062 10.6722 14.3458 10.6889 14.1853C11.2056 14.4431 11.8056 14.6666 12.4445 14.6666C14.4056 14.6666 16 13.0223 16 10.9999C16 10.3411 15.7833 9.72231 15.5333 9.1895ZM26.7 6.45096C29.3 8.93742 31.0389 11.865 31.8611 13.9619C32.0445 14.4145 32.0445 14.9187 31.8611 15.3713C31.0389 17.4166 29.3 20.3442 26.7 22.8822C24.0833 25.3916 20.4889 27.4999 16 27.4999C11.5111 27.4999 7.91667 25.3916 5.30112 22.8822C2.70112 20.3442 0.96334 17.4166 0.136729 15.3713C-0.0455764 14.9187 -0.0455764 14.4145 0.136729 13.9619C0.96334 11.865 2.70112 8.93742 5.30112 6.45096C7.91667 3.94388 11.5111 1.83325 16 1.83325C20.4889 1.83325 24.0833 3.94388 26.7 6.45096ZM16 6.41659C11.5833 6.41659 8.00001 10.1119 8.00001 14.6666C8.00001 19.2213 11.5833 22.9166 16 22.9166C20.4167 22.9166 24 19.2213 24 14.6666C24 10.1119 20.4167 6.41659 16 6.41659Z" />
</svg>