<svg xmlns="http://www.w3.org/2000/svg" width="47" height="32" viewBox="0 0 47 32" fill="#fff">
  <path 
    fill-rule="evenodd" clip-rule="evenodd" d="M0 22.1626C0 9.72497 10.3574 0 23.1108 0C35.8642 0 46.2215 9.72497 46.2215 22.1626C46.2215 25.2871 45.4446 28.3583 44.4351 30.882C44.0705 31.7936 43.0359 32.237 42.1243 31.8724C41.2127 31.5077 40.7693 30.4731 41.1339 29.5615C42.0207 27.3445 42.666 24.727 42.666 22.1626C42.666 11.8451 34.0607 3.5555 23.1108 3.5555C12.1608 3.5555 3.5555 11.8451 3.5555 22.1626C3.5555 24.727 4.20079 27.3445 5.08759 29.5615C5.45223 30.4731 5.00883 31.5077 4.09723 31.8724C3.18562 32.237 2.15103 31.7936 1.78639 30.882C0.776916 28.3583 0 25.2871 0 22.1626ZM32.664 13.5575C33.3583 14.2518 33.3583 15.3774 32.664 16.0717L24.3678 24.3678C23.6736 25.0621 22.548 25.0621 21.8537 24.3678C21.1595 23.6736 21.1595 22.548 21.8537 21.8537L30.1499 13.5575C30.8441 12.8633 31.9697 12.8633 32.664 13.5575Z" />
</svg>