<svg xmlns="http://www.w3.org/2000/svg" width="28" height="32" viewBox="0 0 28 32" fill="#fff">
  <path 
    d="M0.851875 4.98438L1.25 5.07812V8.73438C0.8125 8.99375 0.5 9.45625 0.5 10C0.5 10.5234 0.789062 10.9613 1.195 11.2344L0.21875 15.125C0.109375 15.5562 0.351875 16 0.695625 16H3.305C3.64875 16 3.89094 15.5547 3.78156 15.1812L2.805 11.2375C3.21125 10.9625 3.5 10.525 3.5 10C3.5 9.45312 3.1875 8.9925 2.75 8.73438V5.44562L6 6.22687L6.00006 10C6.00006 14.4219 9.57819 18 14.0001 18C18.4219 18 21.9438 14.4219 21.9438 10L22 6.22625L27.1406 4.98438C28.2812 4.71094 28.2812 3.29688 27.1406 3.01562L15.2406 0.140625C14.4281 -0.046875 13.5769 -0.046875 12.7638 0.140625L0.85125 3.01562C-0.28125 3.28938 -0.28125 4.71125 0.851875 4.98438ZM20.45 19.55L14 26L7.55 19.55C3.17938 20.9437 0 25 0 29.8312C0 31.0312 0.970625 32 2.16687 32H25.8356C27.0312 32 28 31.0312 28 29.8312C28 25 24.8188 20.9437 20.45 19.55Z" />
</svg>