<svg width="32" height="32" viewBox="0 0 32 32" fill="#ffffff" xmlns="http://www.w3.org/2000/svg">
    <path
        d="M16 0C15.3143 0 14.8571 0.457143 14.8571 1.14286V6.85714C14.8571 7.54286 15.3143 8 16 8C16.6857 8 17.1429 7.54286 17.1429 6.85714V1.14286C17.1429 0.457143 16.6857 0 16 0Z"
    />
    <path
        d="M6.28569 4.68575C5.82855 4.22861 5.14283 4.22861 4.68569 4.68575C4.22855 5.1429 4.22855 5.82861 4.68569 6.28575L8.68569 10.2858C8.91426 10.5143 9.25712 10.6286 9.48569 10.6286C9.71426 10.6286 10.0571 10.5143 10.2857 10.2858C10.7428 9.82861 10.7428 9.1429 10.2857 8.68575L6.28569 4.68575Z" />
    <path
        d="M8 16C8 15.3143 7.54286 14.8572 6.85714 14.8572H1.14286C0.457143 14.8572 0 15.3143 0 16C0 16.6857 0.457143 17.1429 1.14286 17.1429H6.85714C7.54286 17.1429 8 16.6857 8 16Z" />
    <path
        d="M8.68569 21.6001L4.68569 25.6001C4.22855 26.0572 4.22855 26.743 4.68569 27.2001C4.91426 27.4287 5.25712 27.543 5.48569 27.543C5.71426 27.543 6.05712 27.4287 6.28569 27.2001L10.2857 23.2001C10.7428 22.743 10.7428 22.0572 10.2857 21.6001C9.82855 21.143 9.14283 21.2572 8.68569 21.6001Z" />
    <path
        d="M16 24C15.3143 24 14.8571 24.4571 14.8571 25.1429V30.8571C14.8571 31.5429 15.3143 32 16 32C16.6857 32 17.1429 31.5429 17.1429 30.8571V25.1429C17.1429 24.4571 16.6857 24 16 24Z" />
    <path
        d="M23.3143 21.5999C22.8571 21.1428 22.1714 21.1428 21.7143 21.5999C21.2571 22.0571 21.2571 22.7428 21.7143 23.1999L25.7143 27.1999C25.9429 27.4285 26.2857 27.5428 26.5143 27.5428C26.7429 27.5428 27.0857 27.4285 27.3143 27.1999C27.7714 26.7428 27.7714 26.0571 27.3143 25.5999L23.3143 21.5999Z" />
    <path
        d="M30.8571 14.8572H25.1429C24.4571 14.8572 24 15.3143 24 16C24 16.6857 24.4571 17.1429 25.1429 17.1429H30.8571C31.5429 17.1429 32 16.6857 32 16C32 15.3143 31.5429 14.8572 30.8571 14.8572Z" />
    <path
        d="M22.5143 10.6286C22.8571 10.6286 23.0857 10.5143 23.3143 10.2858L27.3143 6.28575C27.7714 5.82861 27.7714 5.1429 27.3143 4.68575C26.8571 4.22861 26.1714 4.22861 25.7143 4.68575L21.7143 8.68575C21.2571 9.1429 21.2571 9.82861 21.7143 10.2858C21.8286 10.5143 22.1714 10.6286 22.5143 10.6286Z"
    />
</svg>