<svg width="32" height="32" viewBox="0 0 32 32" fill="none" xmlns="http://www.w3.org/2000/svg">
<path d="M25.5 5C25.2504 5 25.0056 5.02039 24.7669 5.05969C24.1677 3.27782 22.4813 1.99032 20.5 1.99032C20.0964 1.99032 19.705 2.04379 19.3325 2.14388C18.5375 0.858125 17.1187 0 15.5 0C13.8813 0 12.4563 0.861875 11.6625 2.1525C11.2938 2.05312 10.9062 2 10.5063 2C8.025 2 6.00063 4.01875 6.00063 6.5V14.1C5.67313 14.0375 5.33813 14 5.00063 14C5.00046 14 5.00079 14 5.00063 14C2.27688 14 0 16.2 0 19.0063C0 20.2744 0.472375 21.4762 1.34125 22.4094L6.41937 27.8619C8.86875 30.4938 12.3375 32 15.9312 32H17.9988C24.6188 32 30 26.6187 30 20V9.5C30 7.01875 27.9813 5 25.5 5ZM27 20C27 24.9631 22.9631 29 18.0562 29H15.9312C13.1556 29 10.5044 27.8463 8.6125 25.815L3.6275 20.4631C3.23988 20.0469 3.03962 19.5006 3.03962 19.0194C3.03962 17.6344 4.19775 17.0569 4.999 17.0569C5.534 17.0569 6.06775 17.2704 6.46275 17.6931L8.13275 19.4862C8.2375 19.5438 8.36875 19.5875 8.49375 19.5875C8.75037 19.5875 8.99775 19.3892 8.99775 19.0865V6.5C8.99775 5.67188 9.66962 5 10.4415 5C11.2696 5 11.8853 5.67188 11.8853 6.5V16C12 16.55 12.45 17 13 17C13.55 17 13.9438 16.5523 13.9438 16.0562L14 4.5C14 3.67188 14.6719 3 15.4438 3C16.2719 3 16.8875 3.67188 16.8875 4.5V16C17 16.55 17.45 17 18 17C18.55 17 18.9994 16.5522 18.9994 16.0562L18.9999 6.54375C18.9999 5.71562 19.6717 5.04375 20.4436 5.04375C21.2717 5.04375 21.8874 5.71562 21.8874 6.54375V16.0562C22 16.55 22.45 17 23 17C23.55 17 23.9438 16.5523 23.9438 16.0562V9.5C23.9438 8.67188 24.6156 8 25.3875 8C26.2156 8 26.8312 8.67188 26.8312 9.5V20H27Z" fill="#2D2D2F"/>
</svg>
