<svg xmlns="http://www.w3.org/2000/svg" width="40" height="32" viewBox="0 0 40 32" fill="#fff">
  <path 
    d="M36.6667 0H10C8.15903 0 6.66667 1.535 6.66667 3.42857V21.7143C6.66667 23.6079 8.15903 25.1429 10 25.1429H36.6667C38.5076 25.1429 40 23.6079 40 21.7143V3.42857C40 1.535 38.5069 0 36.6667 0ZM15.4931 4.57143C16.7208 4.57143 17.7153 5.595 17.7153 6.85714C17.7153 8.11929 16.7847 9.14286 15.4931 9.14286C14.266 9.14286 13.2708 8.11929 13.2708 6.85714C13.2708 5.595 14.3264 4.57143 15.4931 4.57143ZM34.3125 19.9714C34.1181 20.3429 33.7431 20.5714 33.3333 20.5714H13.3333C12.9151 20.5714 12.5326 20.3301 12.3431 19.9464C12.1535 19.5631 12.1892 19.1029 12.4356 18.755L17.2967 11.8979C17.5069 11.6 17.8403 11.4286 18.1944 11.4286C18.5494 11.4286 18.8831 11.6029 19.0924 11.8981L20.6444 14.0881L25.0014 7.366C25.1458 7.05 25.4931 6.85714 25.9236 6.85714C26.295 6.85714 26.6417 7.048 26.8479 7.36607L34.2576 18.7946C34.4861 19.1429 34.5069 19.5929 34.3125 19.9714ZM31.6667 28.5714H8.33333C5.57639 28.5714 3.33333 26.2643 3.33333 23.4286V6.28571C3.33333 5.34286 2.58681 4.57143 1.66667 4.57143C0.746528 4.57143 0 5.34286 0 6.28571V23.4286C0 28.1571 3.73819 32 8.33333 32H31.6667C32.5868 32 33.3333 31.2321 33.3333 30.2857C33.3333 29.3393 32.5903 28.5714 31.6667 28.5714Z" />
</svg>