<svg xmlns="http://www.w3.org/2000/svg" width="32" height="32" viewBox="0 0 32 32" fill="#fff">
  <path
    d="M16 32C24.8375 32 32 24.8375 32 16C32 7.1625 24.8375 0 16 0C7.1625 0 0 7.1625 0 16C0 24.8375 7.1625 32 16 32ZM13.5 21H15V17H13.5C12.6687 17 12 16.3312 12 15.5C12 14.6687 12.6687 14 13.5 14H16.5C17.3312 14 18 14.6687 18 15.5V21H18.5C19.3312 21 20 21.6688 20 22.5C20 23.3312 19.3312 24 18.5 24H13.5C12.6687 24 12 23.3312 12 22.5C12 21.6688 12.6687 21 13.5 21ZM16 12C14.8938 12 14 11.1062 14 10C14 8.89375 14.8938 8 16 8C17.1063 8 18 8.89375 18 10C18 11.1062 17.1063 12 16 12Z" />
</svg>