<svg xmlns="http://www.w3.org/2000/svg" width="24" height="32" viewBox="0 0 24 32" fill="#fff">
  <path
    d="M15.3225 0H7.2C3.2295 0 0 3.08197 0 6.8711C0 8.13581 1.07325 9.09705 2.4 9.09705C3.72675 9.09705 4.8 8.07211 4.8 6.8711C4.8 5.60854 5.8755 4.58073 7.2 4.58073H15.3225C17.46 4.58073 19.2 6.24053 19.2 8.28755C19.2 9.69899 18.3773 10.9694 16.9125 11.6751L9.585 15.7742C8.7825 16.1893 8.4 16.9408 8.4 17.7496V20.6126C8.4 21.8773 9.47325 22.9022 10.8 22.9022C12.1268 22.9022 13.2 21.8773 13.2 20.6126V19.0594L19.2 15.6955C22.1603 14.2819 24 11.4425 24 8.28755C24 3.71755 20.1075 0 15.3225 0ZM10.8 26.3385C9.14325 26.3385 7.8 27.6204 7.8 29.2015C7.8 30.7825 9.14325 32 10.8 32C12.4568 32 13.8 30.7188 13.8 29.2015C13.8 27.6841 12.4575 26.3385 10.8 26.3385Z" />
</svg>