<svg width="32" height="32" viewBox="0 0 32 32" fill="#ffffff" xmlns="http://www.w3.org/2000/svg">
    <g clip-path="url(#clip0_901_294)">
        <path
            d="M21 22C27.075 22 32 17.075 32 11C32 4.925 27.075 0 21 0C14.925 0 10 4.925 10 11C10 12.1687 10.1813 13.3 10.5188 14.3562L0.4375 24.4375C0.15625 24.7188 0 25.1 0 25.5V30.5C0 31.3312 0.66875 32 1.5 32H6.5C7.33125 32 8 31.3312 8 30.5V28H10.5C11.3313 28 12 27.3312 12 26.5V24H14.5C14.9 24 15.2812 23.8438 15.5625 23.5625L17.6437 21.4813C18.7 21.8188 19.8312 22 21 22ZM23.5 11C22.1187 11 21 9.88125 21 8.5C21 7.11875 22.1187 6 23.5 6C24.8813 6 26 7.11875 26 8.5C26 9.88125 24.8813 11 23.5 11Z" />
    </g>
    <defs>
        <clipPath id="clip0_901_294">
            <rect width="32" height="32" fill="white" />
        </clipPath>
    </defs>
</svg>