<svg width="70" height="62" viewBox="0 0 70 62" fill="none" xmlns="http://www.w3.org/2000/svg">
<path fill-rule="evenodd" clip-rule="evenodd" d="M21.3815 17.5662H18.1844V27.0542H21.2788C25.0944 27.0542 27.002 25.4475 27.002 22.2328C27.002 19.1225 25.128 17.5662 21.3815 17.5662Z" fill="#2D2D2F"/>
<path fill-rule="evenodd" clip-rule="evenodd" d="M59.8435 17.2057L47.7257 44.1741H38.0833L50.7689 17.2053H37.4132V9.77913H59.8435V17.2057ZM26.1771 44.1737L18.1844 33.0351V44.1737H9.77953V9.77913H20.6598C23.581 9.77913 25.7903 9.95228 27.2857 10.2961C28.7811 10.6396 30.0963 11.2929 31.2306 12.2557C34.0491 14.5936 35.4585 17.7387 35.4585 21.6914C35.4585 24.5446 34.6852 26.9435 33.1387 28.8838C31.5917 30.8274 29.5109 32.0227 26.8988 32.4681L36.2326 44.1737H26.1771ZM51.0857 0H18.5373C8.38076 0 0.130175 8.16953 0 18.295L0.000409357 61.0056C3.39561 56.7119 8.02585 53.9532 13.9243 53.9532L51.0857 53.9536C61.3237 53.9536 69.623 45.6539 69.623 35.4163V18.5373C69.623 8.2993 61.3237 0 51.0857 0Z" fill="#2D2D2F"/>
</svg>
