<svg xmlns="http://www.w3.org/2000/svg" width="24" height="32" viewBox="0 0 24 32" fill="#fff">
  <path
    d="M22.8312 5.83625L18.1669 1.17125C17.4125 0.421375 16.3937 0 15.3375 0H4C1.79063 0 0 1.79063 0 4L0.00040625 28C0.00040625 30.2087 1.79103 32 4.00041 32H20C22.2 32 24 30.2 24 28V8.6625C24 7.60625 23.5812 6.5875 22.8312 5.83625ZM21 28C21 28.5522 20.5522 29 20 29H4.00125C3.44887 29 3.00125 28.5522 3.00125 28L3 4.00812C3 3.45587 3.44775 3.00813 4 3.00813H14V8C14 9.10437 14.8956 10 16 10H20.9438V28H21ZM13.4125 15.5C13.2063 14.9 12.6375 14.5 12 14.5C11.3625 14.5 10.7969 14.9004 10.5863 15.5L9.04375 19.8813L7.42562 15.0275C7.1625 14.2375 6.3125 13.825 5.52563 14.075C4.73938 14.3375 4.31563 15.1875 4.57688 15.975L7.57688 24.975C7.78125 25.5813 8.34375 25.9937 8.9875 26C9.62313 26 10.2031 25.5996 10.4144 25L12 20.5063L13.5875 25C13.8 25.6 14.3625 26 15 26C15.6419 25.9941 16.2206 25.582 16.4231 24.9744L19.4231 15.9744C19.6849 15.1875 19.261 14.3394 18.475 14.0756C17.6869 13.8178 16.8375 14.2378 16.5775 15.025L14.9594 19.8787L13.4125 15.5Z" />
</svg>