<svg xmlns="http://www.w3.org/2000/svg" width="32" height="32" viewBox="0 0 32 32" fill="#fff">
  <path
    d="M16.0612 1.03625C16.0612 0.472188 16.4214 0 17.0059 0C24.3102 0 30.2328 6.26875 30.2328 14C30.2328 14.5625 29.784 15 29.2526 15H16.0612V1.03625ZM0 17C0 9.41875 5.32026 3.14625 12.1699 2.14062C12.7663 2.06188 13.2268 2.5225 13.2268 3.10063V18L22.4679 27.7812C22.8636 28.2 22.834 28.8875 22.3794 29.2313C20.0647 30.975 17.2303 32 14.1716 32C6.34771 32 0 25.2875 0 17ZM31.0831 18C31.6263 18 32.0633 18.4875 31.9924 19.0625C31.5378 22.5562 29.9435 25.6625 27.6288 27.9562C27.2745 28.2562 26.7194 28.2812 26.3769 27.9188L17.0059 18H31.0831Z" />
</svg>