<svg width="40" height="32" viewBox="0 0 40 32" fill="#ffffff" xmlns="http://www.w3.org/2000/svg">
<path fill-rule="evenodd" clip-rule="evenodd" d="M35.0772 3.03486C35.8094 2.34059 35.8094 1.21496 35.0772 0.520699C34.3449 -0.173566 33.1577 -0.173566 32.4254 0.520699L29.557 3.24024C26.8706 1.66532 23.6755 0.592594 20.0009 0.592594C14.3895 0.592594 9.89627 3.09408 6.62668 6.06543C3.37654 9.01235 1.20423 12.4821 0.170919 14.9673C-0.0569729 15.5037 -0.0569729 16.1012 0.170919 16.6377C1.17253 18.9874 3.24433 22.3196 6.33059 25.2614L2.42412 28.9651C1.69186 29.6594 1.69186 30.785 2.42412 31.4793C3.15639 32.1736 4.34362 32.1736 5.07589 31.4793L35.0772 3.03486ZM11.2722 20.5762L13.7881 18.1908C13.4943 17.4512 13.3339 16.6455 13.3339 15.8025C13.3339 15.6123 13.34 15.4541 13.3617 15.2321C13.4735 14.0854 13.713 13.4095 14.3756 12.4444C14.9406 11.6216 15.4135 11.2445 16.2507 10.6667C17.3477 9.90949 18.0677 9.44244 19.4175 9.31111C19.6444 9.28904 19.8064 9.28395 20.0009 9.28395C20.936 9.28395 21.8263 9.46848 22.6342 9.80379L25.1493 7.41926C23.6452 6.53397 21.8836 6.02469 20.0009 6.02469C14.4798 6.02469 10.0004 10.4043 10.0004 15.8025C10.0004 17.5358 10.4623 19.1642 11.2722 20.5762ZM29.5802 12.9874L35.088 7.76544C37.4002 10.2769 38.9927 12.9473 39.8281 14.9673C40.0573 15.5037 40.0573 16.1012 39.8281 16.6377C38.8003 19.0617 36.6266 22.5315 33.3764 25.5395C30.1055 28.5136 25.6122 31.0123 20.0009 31.0123C17.1505 31.0123 14.5887 30.3676 12.3291 29.3433L16.8284 25.0776C17.8253 25.4036 18.8921 25.5802 20.0009 25.5802C25.5219 25.5802 30.0013 21.2006 30.0013 15.8025C30.0013 14.824 29.8541 13.879 29.5802 12.9874ZM20.0009 22.321C19.9137 22.321 19.827 22.3194 19.7408 22.3163L26.6676 15.7489L26.6678 15.8025C26.6678 19.4012 23.6816 22.321 20.0009 22.321Z" />
</svg>
