<svg width="70" height="71" viewBox="0 0 70 71" fill="#ffffff" xmlns="http://www.w3.org/2000/svg">
<mask id="mask0_40_417" style="mask-type:luminance" maskUnits="userSpaceOnUse" x="11" y="0" width="57" height="31">
<path fill-rule="evenodd" clip-rule="evenodd" d="M11.1169 0.161377H67.0986V30.0007H11.1169V0.161377Z" fill="white"/>
</mask>
<g mask="url(#mask0_40_417)">
<path fill-rule="evenodd" clip-rule="evenodd" d="M11.1169 9.3428C11.1169 9.3428 19.073 0.241669 34.5204 0.16183C48.5472 0.0903784 60.8397 8.47522 66.7104 21.0055C66.7104 21.0055 68.0899 24.5517 65.648 27.8604C63.2039 31.1699 60.4067 30.5789 56.8604 26.5205C53.3152 22.4633 48.5797 16.7246 39.2883 11.8246C29.9499 6.89877 17.0651 4.85022 11.1169 9.3428Z" />
</g>
<mask id="mask1_40_417" style="mask-type:luminance" maskUnits="userSpaceOnUse" x="0" y="12" width="26" height="58">
<path fill-rule="evenodd" clip-rule="evenodd" d="M0 12.1729H25.8907V69.1922H0V12.1729Z" fill="white"/>
</mask>
<g mask="url(#mask1_40_417)">
<path fill-rule="evenodd" clip-rule="evenodd" d="M7.68927 13.9522C7.68927 13.9522 9.34282 12.0604 13.993 12.1781C18.6414 12.2951 18.2481 16.7894 17.1428 20.1407C16.5938 21.8126 13.2035 31.798 13.2035 39.8004C13.2035 50.0835 16.4769 64.2275 25.8907 69.1922C25.8907 69.1922 0.952335 63.7541 0.00507704 36.0549C0.00507704 36.0549 -0.468955 23.9207 7.68927 13.9522Z" />
</g>
<path fill-rule="evenodd" clip-rule="evenodd" d="M10.3262 12.3387C10.3262 12.3387 11.9444 8.19886 21.3221 8.35644C30.6986 8.51515 38.6584 12.7701 44.0944 16.4342C49.5317 20.101 54.6552 26.3629 54.6552 26.3629C54.6552 26.3629 58.3171 31.4853 62.1407 30.9742C65.9633 30.461 66.9868 26.284 67.2234 24.511C67.2234 24.511 67.9313 26.1282 67.7754 27.9393C67.6176 29.7513 67.1055 32.7853 64.1115 37.5534C61.1163 42.3214 49.281 55.2452 32.4178 57.8069C32.4178 57.8069 27.0346 58.2782 25.0649 59.7748C23.7807 60.75 21.7163 62.3747 24.9452 67.0647C24.9452 67.0647 14.702 60.1302 14.5442 40.0353C14.5442 40.0353 14.457 31.9642 17.8157 22.8566C21.5188 12.8101 16.0315 12.0605 16.0315 12.0605C16.0315 12.0605 13.7944 11.3451 10.3262 12.3387Z" />
<mask id="mask2_40_417" style="mask-type:luminance" maskUnits="userSpaceOnUse" x="23" y="26" width="47" height="45">
<path fill-rule="evenodd" clip-rule="evenodd" d="M23.8797 26.6003H69.8967V70.0677H23.8797V26.6003Z" fill="white"/>
</mask>
<g mask="url(#mask2_40_417)">
<path fill-rule="evenodd" clip-rule="evenodd" d="M68.95 26.6003C69.4158 30.2941 68.4453 39.5241 51.2859 51.9542C51.2859 51.9542 42.7159 58.4341 30.9742 59.3024C22.1485 59.9557 23.4087 64.425 25.0648 66.7112C27.1356 69.5728 34.9537 71.5165 44.6659 68.681C54.5242 65.8002 61.3345 60.0429 65.4513 52.6445C71.5322 41.71 69.9243 30.7766 68.95 26.6003Z" />
</g>
</svg>
