<svg width="30" height="32" viewBox="0 0 30 32" fill="none" xmlns="http://www.w3.org/2000/svg">
<g clip-path="url(#clip0_46_70)">
<path d="M28.4128 4.12131L25.0158 0.878688C24.4264 0.316077 23.627 4.16048e-06 22.7934 0L11.5238 0C9.78804 0 8.38095 1.34312 8.38095 3V6H3.14286C1.40708 6 0 7.34312 0 9V29C0 30.6569 1.40708 32 3.14286 32H17.8095C19.5453 32 20.9524 30.6569 20.9524 29V26H26.1905C27.9263 26 29.3333 24.6569 29.3333 23V6.24263C29.3333 5.44698 29.0022 4.68392 28.4128 4.12131ZM17.4167 29H3.53571C3.43152 29 3.3316 28.9605 3.25792 28.8902C3.18425 28.8198 3.14286 28.7245 3.14286 28.625V9.375C3.14286 9.27554 3.18425 9.18016 3.25792 9.10983C3.3316 9.03951 3.43152 9 3.53571 9H8.38095V23C8.38095 24.6569 9.78804 26 11.5238 26H17.8095V28.625C17.8095 28.7245 17.7681 28.8198 17.6945 28.8902C17.6208 28.9605 17.5209 29 17.4167 29ZM25.7976 23H11.9167C11.8125 23 11.7126 22.9605 11.6389 22.8902C11.5652 22.8198 11.5238 22.7245 11.5238 22.625V3.375C11.5238 3.27554 11.5652 3.18016 11.6389 3.10983C11.7126 3.03951 11.8125 3 11.9167 3H18.8571V8.5C18.8571 9.32844 19.5607 10 20.4286 10H26.1905V22.625C26.1905 22.7245 26.1491 22.8198 26.0754 22.8902C26.0017 22.9605 25.9018 23 25.7976 23ZM26.1905 7H22V3H22.6307C22.7348 3 22.8348 3.0395 22.9085 3.10981L26.0754 6.13281C26.1119 6.16764 26.1409 6.20898 26.1606 6.25448C26.1803 6.29999 26.1905 6.34875 26.1905 6.398V7Z" fill="#2D2D2F"/>
</g>
<defs>
<clipPath id="clip0_46_70">
<rect width="29.3333" height="32" fill="white"/>
</clipPath>
</defs>
</svg>
