<svg width="28" height="32" viewBox="0 0 28 32" fill="none" xmlns="http://www.w3.org/2000/svg">
<g clip-path="url(#clip0_1004_170)">
<path d="M10.2375 0H17.7625C18.5188 0 19.2125 0.425 19.55 1.10625L20 2H26C27.1063 2 28 2.89375 28 4C28 5.10625 27.1063 6 26 6H2C0.89375 6 0 5.10625 0 4C0 2.89375 0.89375 2 2 2H8L8.45 1.10625C8.7875 0.425 9.48125 0 10.2375 0ZM2 8H26L24.675 29.1875C24.575 30.7687 23.2625 32 21.6812 32H6.31875C4.7375 32 3.425 30.7687 3.325 29.1875L2 8ZM14 12C13.6 12 13.2188 12.1562 12.9375 12.4375L7.9375 17.4375C7.35 18.025 7.35 18.975 7.9375 19.5562C8.525 20.1375 9.475 20.1437 10.0562 19.5562L12.4937 17.1187V25.5C12.4937 26.3312 13.1625 27 13.9937 27C14.825 27 15.4937 26.3312 15.4937 25.5V17.1187L17.9312 19.5562C18.5187 20.1437 19.4688 20.1437 20.05 19.5562C20.6312 18.9688 20.6375 18.0187 20.05 17.4375L15.05 12.4375C14.7688 12.1562 14.3875 12 13.9875 12H14Z" fill="#2D2D2F"/>
</g>
<defs>
<clipPath id="clip0_1004_170">
<rect width="28" height="32" fill="white"/>
</clipPath>
</defs>
</svg>
