<svg xmlns="http://www.w3.org/2000/svg" width="24" height="25" viewBox="0 0 24 25" fill="#fff">
  <path fill-rule="evenodd" clip-rule="evenodd" d="M13.2135 1.41343C13.2135 0.743246 12.6702 0.199951 12 0.199951C5.37258 0.199951 0 5.57253 0 12.2C0 18.8274 5.37258 24.2 12 24.2C18.6274 24.2 24 18.8274 24 12.2C24 7.75102 21.6296 3.78182 17.9946 1.70777C17.4125 1.37563 16.6714 1.57827 16.3393 2.16037C16.0071 2.74247 16.2098 3.4836 16.7919 3.81573C19.6661 5.45573 21.573 8.61816 21.573 12.2C21.573 17.487 17.287 21.773 12 21.773C6.71296 21.773 2.42697 17.487 2.42697 12.2C2.42697 6.91291 6.71296 2.62692 12 2.62692C12.6702 2.62692 13.2135 2.08362 13.2135 1.41343Z"/>
  <path fill-rule="evenodd" clip-rule="evenodd" d="M22.9888 2.7617C22.9888 2.09151 22.4455 1.54822 21.7753 1.54822L17.3933 1.54822C16.7231 1.54822 16.1798 2.09151 16.1798 2.7617V6.46957C16.1798 7.13976 16.7231 7.68305 17.3933 7.68305C18.0635 7.68305 18.6067 7.13976 18.6067 6.46957V3.97518L21.7753 3.97518C22.4455 3.97518 22.9888 3.43189 22.9888 2.7617Z" />
  <path d="M8.13644 15.4899C8.13644 15.9429 8.50319 16.3097 8.95622 16.3097C9.40925 16.3097 9.77599 15.9429 9.77599 15.4899V9.40629C9.77599 8.95326 9.40925 8.58651 8.95622 8.58651H8.93465C8.70813 8.58651 8.47083 8.64045 8.15802 8.72674L7.09015 9.03955C6.75577 9.13663 6.54004 9.41708 6.54004 9.75146C6.54004 10.1398 6.87442 10.4634 7.26274 10.4634C7.34903 10.4634 7.46768 10.4418 7.55397 10.4202L8.13644 10.2692V15.4899Z" />
  <path d="M13.8304 16.3744C15.8475 16.3744 17.1958 14.6593 17.1958 12.4697V12.4481C17.1958 10.2584 15.8475 8.56494 13.8519 8.56494C11.8457 8.56494 10.4866 10.28 10.4866 12.4697V12.4912C10.4866 14.6809 11.8133 16.3744 13.8304 16.3744ZM13.8519 14.8751C12.8488 14.8751 12.1908 13.8503 12.1908 12.4697V12.4481C12.1908 11.0674 12.838 10.0643 13.8304 10.0643C14.8227 10.0643 15.4915 11.0998 15.4915 12.4697V12.4912C15.4915 13.8611 14.8551 14.8751 13.8519 14.8751Z" />
</svg>