<svg xmlns="http://www.w3.org/2000/svg" width="32" height="32" viewBox="0 0 32 32" fill="#fff">
  <path
    d="M13.467 6.49975C12.6406 6.49975 11.9644 7.17472 11.9644 7.99969C11.9644 8.82466 12.6374 9.49963 13.467 9.49963C18.4386 9.49963 22.4825 13.5364 22.4825 18.4993C22.4825 19.3305 23.1586 19.9992 23.985 19.9992C24.8114 19.9992 25.4876 19.3274 25.4876 18.4993C25.4876 11.8808 20.0971 6.49975 13.467 6.49975ZM13.9679 0C12.8597 0 11.9644 0.894341 11.9644 1.99992C11.9644 3.10551 12.8616 3.99985 13.9679 3.99985C21.6999 3.99985 27.9919 10.2809 27.9919 17.9993C27.9919 19.1049 28.8891 19.9992 29.9953 19.9992C31.1016 19.9992 31.9988 19.1049 31.9988 17.9993C31.9988 8.07469 23.9099 0 13.9679 0ZM11.7703 21.6242L13.4839 19.9136C13.6482 19.9527 13.8006 20.0077 13.9728 20.0077C15.0841 20.0077 15.9756 19.1165 15.9756 18.0078C15.9756 16.9066 15.0841 16.0073 13.9728 16.0073C12.8697 16.0073 11.97 16.906 11.97 18.0078C11.97 18.1875 12.0207 18.3359 12.0677 18.5L10.3492 20.2117L3.03473 12.9058C2.58083 12.4526 1.77508 12.5308 1.5259 13.0932C-1.08796 17.9606 -0.344809 24.1366 3.76411 28.2427C7.8724 32.3438 14.0693 33.0862 18.9401 30.4769C19.5114 30.1645 19.59 29.3676 19.128 28.9145L11.7703 21.6242Z" />
</svg>