<svg width="32" height="32" viewBox="0 0 32 32" fill="#ffffff" xmlns="http://www.w3.org/2000/svg">
<path d="M0 26C0 24.8937 0.895625 24 2 24H5.41625C6.1875 22.2313 7.95 21 10 21C12.05 21 13.7563 22.2313 14.5813 24H30C31.1063 24 32 24.8937 32 26C32 27.1063 31.1063 28 30 28H14.5813C13.7563 29.7687 12.05 31 10 31C7.95 31 6.1875 29.7687 5.41625 28H2C0.895625 28 0 27.1063 0 26ZM12 26C12 24.8937 11.1062 24 10 24C8.89375 24 8 24.8937 8 26C8 27.1063 8.89375 28 10 28C11.1062 28 12 27.1063 12 26ZM22 11C24.05 11 25.7562 12.2312 26.5812 14H30C31.1063 14 32 14.8938 32 16C32 17.1063 31.1063 18 30 18H26.5812C25.7562 19.7687 24.05 21 22 21C19.95 21 18.1875 19.7687 17.4188 18H2C0.895625 18 0 17.1063 0 16C0 14.8938 0.895625 14 2 14H17.4188C18.1875 12.2312 19.95 11 22 11ZM24 16C24 14.8938 23.1063 14 22 14C20.8937 14 20 14.8938 20 16C20 17.1063 20.8937 18 22 18C23.1063 18 24 17.1063 24 16ZM30 4C31.1063 4 32 4.89563 32 6C32 7.10625 31.1063 8 30 8H16.5812C15.7562 9.76875 14.05 11 12 11C9.95 11 8.1875 9.76875 7.41875 8H2C0.895625 8 0 7.10625 0 6C0 4.89563 0.895625 4 2 4H7.41875C8.1875 2.23438 9.95 1 12 1C14.05 1 15.7562 2.23438 16.5812 4H30ZM10 6C10 7.10625 10.8938 8 12 8C13.1062 8 14 7.10625 14 6C14 4.89563 13.1062 4 12 4C10.8938 4 10 4.89563 10 6Z" />
</svg>
