<svg width="16" height="24" viewBox="0 0 16 24" fill="none" xmlns="http://www.w3.org/2000/svg">
  <g clip-path="url(#clip0_148_391)">
    <path
      d="M11.0327 12L15.5814 7.30922C16.1395 6.73359 16.1395 5.80031 15.5814 5.22422L14.5705 4.18172C14.0123 3.60609 13.1073 3.60609 12.5486 4.18172L8 8.8725L3.45136 4.18172C2.89318 3.60609 1.98818 3.60609 1.42955 4.18172L0.418636 5.22422C-0.139545 5.79984 -0.139545 6.73312 0.418636 7.30922L4.96727 12L0.418636 16.6908C-0.139545 17.2664 -0.139545 18.1997 0.418636 18.7758L1.42955 19.8183C1.98773 20.3939 2.89318 20.3939 3.45136 19.8183L8 15.1275L12.5486 19.8183C13.1068 20.3939 14.0123 20.3939 14.5705 19.8183L15.5814 18.7758C16.1395 18.2002 16.1395 17.2669 15.5814 16.6908L11.0327 12Z"
      fill="#F5F6FA" />
  </g>
  <defs>
    <clipPath id="clip0_148_391">
      <rect width="16" height="24" fill="white" />
    </clipPath>
  </defs>
</svg>