<svg width="16" height="16" viewBox="0 0 16 16" fill="#fff" xmlns="http://www.w3.org/2000/svg">
  <path fill-rule="evenodd" clip-rule="evenodd"
    d="M8 16C12.4183 16 16 12.4183 16 8C16 3.58171 12.4183 0 8 0C3.58171 0 0 3.58171 0 8C0 12.4183 3.58171 16 8 16ZM13.0101 6.30045L7.07463 12.2359C6.87305 12.4375 6.54627 12.4375 6.34469 12.2359L2.98985 8.88106C2.78831 8.67951 2.78831 8.3527 2.98985 8.15115L3.71976 7.42125C3.92134 7.2197 4.24814 7.2197 4.44969 7.42125L6.70966 9.68122L11.5503 4.84064C11.7519 4.63906 12.0787 4.63906 12.2802 4.84064L13.0101 5.57054C13.2117 5.77209 13.2117 6.0989 13.0101 6.30045Z" />
</svg>