<svg width="16" height="16" viewBox="0 0 16 16" fill="none" xmlns="http://www.w3.org/2000/svg">
  <path
    d="M11.5625 3.875C11.4689 3.875 11.3771 3.88265 11.2876 3.89739C11.0629 3.22918 10.4305 2.74637 9.6875 2.74637C9.53616 2.74637 9.38938 2.76642 9.24969 2.80396C8.95156 2.3218 8.41953 2 7.8125 2C7.20547 2 6.67109 2.3232 6.37344 2.80719C6.23516 2.76992 6.08984 2.75 5.93984 2.75C5.00938 2.75 4.25023 3.50703 4.25023 4.4375V7.2875C4.12742 7.26406 4.0018 7.25 3.87523 7.25C3.87517 7.25 3.8753 7.25 3.87523 7.25C2.85383 7.25 2 8.075 2 9.12734C2 9.60289 2.17714 10.0536 2.50297 10.4035L4.40727 12.4482C5.32578 13.4352 6.62656 14 7.97422 14H8.74953C11.232 14 13.25 11.982 13.25 9.5V5.5625C13.25 4.63203 12.493 3.875 11.5625 3.875ZM12.125 9.5C12.125 11.3612 10.6112 12.875 8.77109 12.875H7.97422C6.93336 12.875 5.93914 12.4423 5.22969 11.6806L3.36031 9.67367C3.21495 9.5176 3.13986 9.31273 3.13986 9.13227C3.13986 8.61289 3.57416 8.39633 3.87462 8.39633C4.07525 8.39633 4.27541 8.47639 4.42353 8.63492L5.04978 9.30734C5.08906 9.32891 5.13828 9.34531 5.18516 9.34531C5.28139 9.34531 5.37416 9.27097 5.37416 9.15744V4.4375C5.37416 4.12695 5.62611 3.875 5.91556 3.875C6.22611 3.875 6.45697 4.12695 6.45697 4.4375V8C6.5 8.20625 6.66875 8.375 6.875 8.375C7.08125 8.375 7.22891 8.20712 7.22891 8.02109L7.25 3.6875C7.25 3.37695 7.50195 3.125 7.79141 3.125C8.10195 3.125 8.33281 3.37695 8.33281 3.6875V8C8.375 8.20625 8.54375 8.375 8.75 8.375C8.95625 8.375 9.12477 8.20709 9.12477 8.02109L9.12495 4.45391C9.12495 4.14336 9.3769 3.89141 9.66635 3.89141C9.9769 3.89141 10.2078 4.14336 10.2078 4.45391V8.02109C10.25 8.20625 10.4187 8.375 10.625 8.375C10.8313 8.375 10.9789 8.20712 10.9789 8.02109V5.5625C10.9789 5.25195 11.2309 5 11.5203 5C11.8309 5 12.0617 5.25195 12.0617 5.5625V9.5H12.125Z"
    fill="white" />
</svg>