<svg xmlns="http://www.w3.org/2000/svg" width="27" height="33" viewBox="0 0 27 33" fill="#fff">
  <g clip-path="url(#clip0_517_176)">
    <path 
        d="M23.683 13.4168L4.04018 0.410548C2.4442 -0.645704 0 0.379298 0 2.9918V28.9981C0 31.3418 2.27121 32.7543 4.04018 31.5793L23.683 18.5793C25.4353 17.4231 25.4408 14.5731 23.683 13.4168Z" />
    <path fill-rule="evenodd" clip-rule="evenodd" d="M25 0C26.1046 4.82823e-08 27 0.89543 27 2L27 30C27 31.1046 26.1046 32 25 32C23.8954 32 23 31.1046 23 30L23 2C23 0.89543 23.8954 -4.82823e-08 25 0Z" />
  </g>
  <defs>
    <clipPath id="clip0_517_176">
      <rect width="27" height="33" fill="white"/>
    </clipPath>
  </defs>
</svg>