<svg xmlns="http://www.w3.org/2000/svg" width="33" height="32" viewBox="0 0 33 32" fill="#fff">
  <path 
    d="M16 3C8.81875 3 3 8.81875 3 16L3 18.5C3 19.3312 2.33125 20 1.5 20C0.668748 20 -1.68999e-06 19.3312 -1.61732e-06 18.5L-1.39876e-06 16C-6.26166e-07 7.1625 7.1625 6.26166e-07 16 1.39876e-06C24.8375 2.17136e-06 32 7.1625 32 16L32 25.0063C32 28.0438 29.5375 30.5063 26.4938 30.5063L19.6 30.5C19.0813 31.3938 18.1125 32 17 32L15 32C13.3438 32 12 30.6563 12 29C12 27.3438 13.3438 26 15 26L17 26C18.1125 26 19.0813 26.6063 19.6 27.5L26.5 27.5063C27.8813 27.5063 29 26.3875 29 25.0063L29 16C29 8.81875 23.1813 3 16 3ZM9 13L10 13C11.1063 13 12 13.8938 12 15L12 22C12 23.1063 11.1063 24 10 24L9 24C6.79375 24 5 22.2062 5 20L5 17C5 14.7938 6.79375 13 9 13ZM23 13C25.2063 13 27 14.7938 27 17L27 20C27 22.2063 25.2063 24 23 24L22 24C20.8938 24 20 23.1063 20 22L20 15C20 13.8938 20.8938 13 22 13L23 13Z" />
</svg>