<svg xmlns="http://www.w3.org/2000/svg" width="33" height="32" viewBox="0 0 33 32" fill="#fff">
  <path 
    d="M20.7374 14.0063C22.5056 14.0063 24.1674 14.6932 25.4162 15.9419L26.6405 17.1663C29.1412 16.0575 31.0937 13.8351 31.7418 11.1257C32.0996 9.63069 32.0755 8.1832 31.7552 6.8507C31.5919 6.1707 30.7283 5.94383 30.234 6.43795L25.9277 10.7442H21.2027V6.07508L25.509 1.76884C26.0035 1.27434 25.7762 0.410719 25.0962 0.247595C23.7637 -0.0727169 22.3162 -0.0967794 20.8212 0.26102C17.365 1.08789 14.6719 4.02476 14.1213 7.536C14.0312 8.05632 14.0125 8.56257 14.0187 9.06257L19.1924 14.2413C19.6999 14.0688 20.2187 14.0063 20.7374 14.0063ZM23.9999 17.4125C22.5524 15.965 20.4018 15.6894 18.6631 16.5438L11.9437 9.87507V5.99945L3.99999 9.53301e-05L0 3.94383L5.99998 11.8876L9.87747 11.888L16.5462 18.5505C15.6918 20.2893 15.968 22.4399 17.4156 23.8874L24.7281 31.2061C25.6418 32.1124 27.1162 32.1124 28.0224 31.206L31.3193 27.9091C32.2255 27.0029 32.2255 25.5292 31.3192 24.6148L23.9999 17.4125ZM14.2437 19.1875L10.5437 15.4938L1.2375 24.8C-0.410624 26.4481 -0.410624 29.1175 1.2375 30.7656C2.05999 31.5875 3.13812 32 4.21874 32C5.29936 32 6.37748 31.588 7.20123 30.7638L14.645 23.32C14.0937 22.0188 13.9125 20.5875 14.2437 19.1875ZM3.99999 29.5C3.17187 29.5 2.49999 28.8281 2.49999 28C2.49999 27.1713 3.17187 26.5 3.99999 26.5C4.82811 26.5 5.49998 27.1688 5.49998 28C5.49998 28.8313 4.82811 29.5 3.99999 29.5Z" />
</svg>