<svg width="28" height="32" viewBox="0 0 28 32" fill="none" xmlns="http://www.w3.org/2000/svg">
<g clip-path="url(#clip0_630_51)">
<path d="M8.45 1.10563C8.7875 0.428 9.48125 0 10.2375 0H17.7625C18.5188 0 19.2125 0.428 19.55 1.10563L20 2H26C27.1063 2 28 2.89563 28 4C28 5.10437 27.1063 6 26 6H2C0.895625 6 0 5.10437 0 4C0 2.89563 0.895625 2 2 2H8L8.45 1.10563ZM24.675 29.1313C24.575 30.7688 23.2687 32 21.6812 32H6.31875C4.73438 32 3.42313 30.7688 3.32437 29.1313L1.94375 8H26L24.675 29.1313Z" fill="#2D2D2F"/>
</g>
<defs>
<clipPath id="clip0_630_51">
<rect width="28" height="32" fill="white"/>
</clipPath>
</defs>
</svg>
