<svg xmlns="http://www.w3.org/2000/svg" width="36" height="32" viewBox="0 0 36 32" fill="#fff">
  <path
    d="M13.4394 4.44067L7.87875 10.0001H1.5C0.67125 10.0001 0 10.6713 0 11.5001V20.5001C0 21.3282 0.67125 22.0001 1.5 22.0001H7.87875L13.4394 27.5594C14.3787 28.4988 16 27.8388 16 26.4988V5.5013C16 4.16005 14.3775 3.50255 13.4394 4.44067ZM28.0219 1.24817C27.3237 0.790045 26.3856 0.983171 25.9275 1.68255C25.4688 2.38067 25.6637 3.3188 26.3619 3.77692C30.5037 6.49505 32.9756 11.0644 32.9756 16.0007C32.9756 20.9369 30.5037 25.5063 26.3619 28.2244C25.6637 28.6819 25.4688 29.6207 25.9275 30.3182C26.3675 30.9876 27.2981 31.2282 28.0219 30.7526C33.0169 27.4738 36 21.9582 36 16.0001C36 10.0419 33.0169 4.52692 28.0219 1.24817ZM30 16.0001C30 12.0294 27.9963 8.3788 24.6394 6.23505C23.94 5.7888 23.0125 5.9963 22.5694 6.7013C22.1262 7.4063 22.3331 8.33942 23.0325 8.7863C25.5169 10.3732 27 13.0694 27 16.0001C27 18.9307 25.5169 21.6269 23.0325 23.2138C22.3331 23.6601 22.1262 24.5932 22.5694 25.2988C22.9762 25.9463 23.8894 26.2451 24.6394 25.7651C27.9963 23.6213 30 19.9713 30 16.0001ZM21.1394 11.1957C20.4156 10.8001 19.5025 11.0607 19.1012 11.7863C18.7019 12.5119 18.9663 13.4238 19.6919 13.8244C20.4988 14.2676 21 15.1019 21 16.0001C21 16.8988 20.4987 17.7326 19.6925 18.1757C18.9669 18.5763 18.7025 19.4882 19.1019 20.2138C19.5037 20.9426 20.4175 21.2013 21.14 20.8044C22.9044 19.8326 24.0006 17.9919 24.0006 15.9994C24.0006 14.0069 22.9044 12.1669 21.1394 11.1957Z" />
</svg>