<svg xmlns="http://www.w3.org/2000/svg" width="16" height="16" viewBox="0 0 16 16" fill="#fff">
  <path
    d="M8 0C7.65715 0 7.42857 0.228571 7.42857 0.571429V3.42857C7.42857 3.77143 7.65715 4 8 4C8.34286 4 8.57143 3.77143 8.57143 3.42857V0.571429C8.57143 0.228571 8.34286 0 8 0Z" />
  <path
    d="M3.14285 2.34282C2.91427 2.11424 2.57142 2.11424 2.34285 2.34282C2.11427 2.57139 2.11427 2.91424 2.34285 3.14282L4.34285 5.14282C4.45713 5.2571 4.62856 5.31424 4.74285 5.31424C4.85713 5.31424 5.02856 5.2571 5.14285 5.14282C5.37142 4.91424 5.37142 4.57139 5.14285 4.34282L3.14285 2.34282Z" />
  <path
    d="M4 8.00014C4 7.65728 3.77143 7.42871 3.42857 7.42871H0.571429C0.228571 7.42871 0 7.65728 0 8.00014C0 8.343 0.228571 8.57157 0.571429 8.57157H3.42857C3.77143 8.57157 4 8.343 4 8.00014Z" />
  <path
    d="M4.34285 10.8002L2.34285 12.8002C2.11427 13.0287 2.11427 13.3716 2.34285 13.6002C2.45713 13.7145 2.62856 13.7716 2.74285 13.7716C2.85713 13.7716 3.02856 13.7145 3.14285 13.6002L5.14285 11.6002C5.37142 11.3716 5.37142 11.0287 5.14285 10.8002C4.91427 10.5716 4.57142 10.6287 4.34285 10.8002Z" />
  <path
    d="M8 12C7.65715 12 7.42857 12.2286 7.42857 12.5714V15.4286C7.42857 15.7714 7.65715 16 8 16C8.34286 16 8.57143 15.7714 8.57143 15.4286V12.5714C8.57143 12.2286 8.34286 12 8 12Z" />
  <path
    d="M11.6571 10.7998C11.4286 10.5713 11.0857 10.5713 10.8571 10.7998C10.6286 11.0284 10.6286 11.3713 10.8571 11.5998L12.8571 13.5998C12.9714 13.7141 13.1429 13.7713 13.2571 13.7713C13.3714 13.7713 13.5429 13.7141 13.6571 13.5998C13.8857 13.3713 13.8857 13.0284 13.6571 12.7998L11.6571 10.7998Z" />
  <path
    d="M15.4286 7.42871H12.5714C12.2286 7.42871 12 7.65728 12 8.00014C12 8.343 12.2286 8.57157 12.5714 8.57157H15.4286C15.7714 8.57157 16 8.343 16 8.00014C16 7.65728 15.7714 7.42871 15.4286 7.42871Z" />
  <path
    d="M11.2571 5.31424C11.4286 5.31424 11.5429 5.2571 11.6571 5.14282L13.6571 3.14282C13.8857 2.91424 13.8857 2.57139 13.6571 2.34282C13.4286 2.11424 13.0857 2.11424 12.8571 2.34282L10.8571 4.34282C10.6286 4.57139 10.6286 4.91424 10.8571 5.14282C10.9143 5.2571 11.0857 5.31424 11.2571 5.31424Z" />
</svg>