<svg width="32" height="37" viewBox="0 0 32 37" fill="#ffffff" xmlns="http://www.w3.org/2000/svg">
<path d="M27.2071 6.93577C24.2143 3.93577 20.2286 2.28577 15.9929 2.28577C7.25 2.28577 0.135714 9.40005 0.135714 18.1429C0.135714 20.9358 0.864286 23.6643 2.25 26.0715L0 34.2858L8.40714 32.0786C10.7214 33.3429 13.3286 34.0072 15.9857 34.0072H15.9929C24.7286 34.0072 32 26.8929 32 18.1501C32 13.9143 30.2 9.93577 27.2071 6.93577ZM15.9929 31.3358C13.6214 31.3358 11.3 30.7001 9.27857 29.5001L8.8 29.2143L3.81429 30.5215L5.14286 25.6572L4.82857 25.1572C3.50714 23.0572 2.81429 20.6358 2.81429 18.1429C2.81429 10.8786 8.72857 4.96434 16 4.96434C19.5214 4.96434 22.8286 6.33577 25.3143 8.82862C27.8 11.3215 29.3286 14.6286 29.3214 18.1501C29.3214 25.4215 23.2571 31.3358 15.9929 31.3358ZM23.2214 21.4643C22.8286 21.2643 20.8786 20.3072 20.5143 20.1786C20.15 20.0429 19.8857 19.9786 19.6214 20.3786C19.3571 20.7786 18.6 21.6643 18.3643 21.9358C18.1357 22.2001 17.9 22.2358 17.5071 22.0358C15.1786 20.8715 13.65 19.9572 12.1143 17.3215C11.7071 16.6215 12.5214 16.6715 13.2786 15.1572C13.4071 14.8929 13.3429 14.6643 13.2429 14.4643C13.1429 14.2643 12.35 12.3143 12.0214 11.5215C11.7 10.7501 11.3714 10.8572 11.1286 10.8429C10.9 10.8286 10.6357 10.8286 10.3714 10.8286C10.1071 10.8286 9.67857 10.9286 9.31429 11.3215C8.95 11.7215 7.92857 12.6786 7.92857 14.6286C7.92857 16.5786 9.35 18.4643 9.54286 18.7286C9.74286 18.9929 12.3357 22.9929 16.3143 24.7143C18.8286 25.8001 19.8143 25.8929 21.0714 25.7072C21.8357 25.5929 23.4143 24.7501 23.7429 23.8215C24.0714 22.8929 24.0714 22.1001 23.9714 21.9358C23.8786 21.7572 23.6143 21.6572 23.2214 21.4643Z" />
</svg>
