<svg width="32" height="32" viewBox="0 0 32 32" fill="#ffffff" xmlns="http://www.w3.org/2000/svg">
<g clip-path="url(#clip0_1526_159)">
<path d="M31.5625 27.6688L25.3312 21.4375C25.05 21.1562 24.6687 21 24.2687 21H23.25C24.975 18.7938 26 16.0187 26 13C26 5.81875 20.1812 0 13 0C5.81875 0 0 5.81875 0 13C0 20.1812 5.81875 26 13 26C16.0187 26 18.7938 24.975 21 23.25V24.2687C21 24.6687 21.1562 25.05 21.4375 25.3312L27.6688 31.5625C28.2563 32.15 29.2063 32.15 29.7875 31.5625L31.5562 29.7938C32.1437 29.2063 32.1437 28.2563 31.5625 27.6688ZM13 21C8.58125 21 5 17.425 5 13C5 8.58125 8.575 5 13 5C17.4188 5 21 8.575 21 13C21 17.4188 17.425 21 13 21Z" />
<path d="M17.5304 14.0939L14.0939 14.0939L14.0939 17.5304C14.0939 17.7901 13.884 18 13.6243 18H12.3757C12.116 18 11.9061 17.7901 11.9061 17.5304L11.9061 14.0939L8.46961 14.0939C8.20995 14.0939 8 13.884 8 13.6243L8 12.3757C8 12.116 8.20994 11.9061 8.46961 11.9061L11.9061 11.9061V8.46961C11.9061 8.20994 12.116 8 12.3757 8H13.6243C13.884 8 14.0939 8.20994 14.0939 8.46961V11.9061L17.5304 11.9061C17.7901 11.9061 18 12.116 18 12.3757V13.6243C18 13.884 17.7901 14.0939 17.5304 14.0939Z" />
</g>
<defs>
<clipPath id="clip0_1526_159">
<rect width="32" height="32" fill="white"/>
</clipPath>
</defs>
</svg>
